<?xml version="1.0" encoding="UTF-8"?>
<!-- Generator: Adobe Illustrator 26.0.0, SVG Export Plug-In . SVG Version: 6.00 Build 0)  -->
<svg xmlns="http://www.w3.org/2000/svg" xmlns:xlink="http://www.w3.org/1999/xlink" version="1.1" id="Layer_2_00000145739474951201295460000014618225823113735846_" x="0px" y="0px" viewBox="0 0 714.5 407" style="enable-background:new 0 0 714.5 407;" xml:space="preserve">
<style type="text/css">
	.st0{fill:#F4AE23;}
	.st1{fill:#231F20;}
	.st2{font-family:'Georgia';}
	.st3{font-size:21px;}
	.st4{fill:none;stroke:#D9D9D9;stroke-width:0.75;stroke-linejoin:round;stroke-miterlimit:10;}
	.st5{fill:none;stroke:#BFBFBF;stroke-width:1.25;stroke-linejoin:round;stroke-miterlimit:10;}
	
		.st6{clip-path:url(#SVGID_00000006681964233607013710000015646987266507273875_);fill:none;stroke:#000000;stroke-width:3.25;stroke-linecap:round;stroke-linejoin:round;stroke-miterlimit:10;}
	
		.st7{clip-path:url(#SVGID_00000170970140915562439000000014952436610402757760_);fill:none;stroke:#F5AF23;stroke-width:3.25;stroke-linecap:round;stroke-linejoin:round;stroke-miterlimit:10;}
	.st8{font-family:'Arial-BoldMT';}
	.st9{font-size:9.96px;}
</style>
<g>
	<g>
		<path class="st0" d="M411.5,55.9c3.9,0,7-3.1,7-7s-3.1-7-7-7s-7,3.1-7,7S407.6,55.9,411.5,55.9"></path>
	</g>
	<g>
		<path d="M158.3,55.9c3.9,0,7-3.1,7-7s-3.1-7-7-7s-7,3.1-7,7S154.5,55.9,158.3,55.9"></path>
	</g>
	<text transform="matrix(1 0 0 1 53.3108 54.3291)" class="st1 st2 st3">I</text>
	<text transform="matrix(1 0 0 1 61.5984 54.3291)" class="st1 st2 st3">n</text>
	<text transform="matrix(1 0 0 1 74.1106 54.3291)" class="st1 st2 st3">f</text>
	<text transform="matrix(1 0 0 1 81.0446 54.3291)" class="st1 st2 st3">l</text>
	<text transform="matrix(1 0 0 1 87.1584 54.3291)" class="st1 st2 st3">a</text>
	<text transform="matrix(1 0 0 1 97.8454 54.3291)" class="st1 st2 st3">t</text>
	<text transform="matrix(1 0 0 1 105.1999 54.3291)" class="st1 st2 st3">i</text>
	<text transform="matrix(1 0 0 1 111.4572 54.3291)" class="st1 st2 st3">o</text>
	<text transform="matrix(1 0 0 1 122.8825 54.3291)" class="st1 st2 st3">n</text>
	<text transform="matrix(1 0 0 1 203.9099 54.3291)" class="st1 st2 st3">R</text>
	<text transform="matrix(1 0 0 1 218.7497 54.3291)" class="st1 st2 st3">e</text>
	<text transform="matrix(1 0 0 1 229.006 54.3291)" class="st1 st2 st3">a</text>
	<text transform="matrix(1 0 0 1 239.6931 54.3291)" class="st1 st2 st3">l</text>
	<text transform="matrix(1 0 0 1 245.8069 54.3291)" class="st1 st2 st3"> </text>
	<text transform="matrix(1 0 0 1 250.9773 54.3291)" class="st1 st2 st3">E</text>
	<text transform="matrix(1 0 0 1 264.802 54.3291)" class="st1 st2 st3">s</text>
	<text transform="matrix(1 0 0 1 273.9817 54.3291)" class="st1 st2 st3">t</text>
	<text transform="matrix(1 0 0 1 281.3362 54.3291)" class="st1 st2 st3">a</text>
	<text transform="matrix(1 0 0 1 292.0232 54.3291)" class="st1 st2 st3">t</text>
	<text transform="matrix(1 0 0 1 299.3777 54.3291)" class="st1 st2 st3">e</text>
	<text transform="matrix(1 0 0 1 309.634 54.3291)" class="st1 st2 st3"> </text>
	<text transform="matrix(1 0 0 1 314.8044 54.3291)" class="st1 st2 st3">I</text>
	<text transform="matrix(1 0 0 1 323.0925 54.3291)" class="st1 st2 st3">n</text>
	<text transform="matrix(1 0 0 1 335.6047 54.3291)" class="st1 st2 st3">c</text>
	<text transform="matrix(1 0 0 1 345.2458 54.3291)" class="st1 st2 st3">o</text>
	<text transform="matrix(1 0 0 1 356.6711 54.3291)" class="st1 st2 st3">m</text>
	<text transform="matrix(1 0 0 1 375.2741 54.3291)" class="st1 st2 st3">e</text>
</g>
<g>
	<path class="st4" d="M51.8,318.3h653.6 M51.8,280.2h653.6 M51.8,242.1h653.6 M51.8,204.1h653.6 M51.8,165.9h653.6 M51.8,127.9   h653.6 M51.8,89.7h653.6"></path>
</g>
<g>
	<line class="st5" x1="51.8" y1="356.4" x2="705.4" y2="356.4"></line>
</g>
<g>
	<path class="st5" d="M51.8,356.4v3.1 M73.9,356.4v3.1 M96.1,356.4v3.1 M118.3,356.4v3.1 M140.3,356.4v3.1 M162.5,356.4v3.1    M184.7,356.4v3.1 M206.8,356.4v3.1 M229,356.4v3.1 M251.2,356.4v3.1 M273.3,356.4v3.1 M295.5,356.4v3.1 M317.7,356.4v3.1    M339.8,356.4v3.1 M362,356.4v3.1 M384.2,356.4v3.1 M406.3,356.4v3.1 M428.5,356.4v3.1 M450.7,356.4v3.1 M472.7,356.4v3.1    M494.9,356.4v3.1 M517,356.4v3.1 M539.2,356.4v3.1 M561.4,356.4v3.1 M583.5,356.4v3.1 M605.7,356.4v3.1 M627.9,356.4v3.1    M650,356.4v3.1 M672.2,356.4v3.1 M694.4,356.4v3.1"></path>
</g>
<g>
	<g>
		<defs>
			<rect id="SVGID_1_" x="51.7" y="89.7" width="654.4" height="267.4"></rect>
		</defs>
		<clipPath id="SVGID_00000044154146314773141270000004077488133663664567_">
			<use xlink:href="#SVGID_1_" style="overflow:visible;"></use>
		</clipPath>
		
			<polyline style="clip-path:url(#SVGID_00000044154146314773141270000004077488133663664567_);fill:none;stroke:#000000;stroke-width:3.25;stroke-linecap:round;stroke-linejoin:round;stroke-miterlimit:10;" points="    54.5,337.3 60.1,336 65.6,334.6 71.2,333 76.7,331.6 82.2,330.3 87.7,329.3 93.4,327.5 98.9,326.4 104.4,325.3 109.9,323.4     115.4,322.3 121,320.8 126.6,319.1 132.1,318.1 137.6,317.1 143.2,314.9 148.7,313.2 154.2,311.9 159.7,310 165.4,309     170.9,308.4 176.4,307.1 181.9,306.3 187.4,306 193,304.9 198.6,304 204.1,302.7 209.6,302.2 215.2,300.5 220.7,298.1     226.2,296.7 231.8,293.7 237.4,292 242.9,290.1 248.4,288.7 253.9,286.7 259.4,284.5 265.1,283.9 270.6,284.9 276.1,283.5     281.6,281.9 287.2,280.2 292.7,278.9 298.3,276 303.8,277.1 309.4,274.3 314.9,273.9 320.4,271.6 325.9,269.2 331.6,268     337.1,265.3 342.6,263.4 348.1,262.6 353.6,255.6 359.2,256.6 364.7,254.4 370.3,251.5 375.8,250.1 381.4,249.7 386.9,246.7     392.4,244.1 397.9,242.3 403.6,238.3 409.1,235.6 414.6,230.1 420.1,228.1 425.6,238.3 431.2,236.9 436.8,233.7 442.3,232.2     447.8,230.2 453.4,230.2 458.9,230.4 464.4,229 470,226 475.6,222.4 481.1,220 486.6,217.6 492.1,216.7 497.6,214.5 503.3,214.9     508.8,211.5 514.3,211.2 519.8,209.8 525.4,209.5 530.9,208 536.5,206.4 542,204.6 547.6,202.9 553.1,202.7 558.6,204.4     564.1,204.7 569.8,202.5 575.3,202.6 580.8,202.2 586.3,201.9 591.8,198.9 597.4,197.5 602.9,195.6 608.5,194.1 614,193.5     619.6,190.2 625.1,188.5 630.6,186.1 636.1,184 641.8,182.5 647.3,182.1 652.8,179.8 658.3,178.1 663.8,176.5 669.4,174.3     675,174.6 680.5,175.6 686,171.6 691.6,169.7 697.1,165.3 702.6,156.7   "></polyline>
	</g>
</g>
<g>
	<g>
		<defs>
			<rect id="SVGID_00000163035569085921487860000008535459835055612319_" x="51.7" y="89.7" width="654.4" height="267.4"></rect>
		</defs>
		<clipPath id="SVGID_00000130630012770868688070000015399645595514587826_">
			<use xlink:href="#SVGID_00000163035569085921487860000008535459835055612319_" style="overflow:visible;"></use>
		</clipPath>
		
			<polyline style="clip-path:url(#SVGID_00000130630012770868688070000015399645595514587826_);fill:none;stroke:#F5AF23;stroke-width:3.25;stroke-linecap:round;stroke-linejoin:round;stroke-miterlimit:10;" points="    54.5,337.3 60.1,327.9 65.6,338.5 71.2,334.2 76.7,332.2 82.2,337 87.7,339.4 93.4,329.4 98.9,332.3 104.4,325.3 109.9,328.3     115.4,319.5 121,319.6 126.6,314.1 132.1,318.4 137.6,313.9 143.2,321.4 148.7,312.9 154.2,317.4 159.7,312.1 165.4,310.6     170.9,302.7 176.4,303.9 181.9,296.4 187.4,290.7 193,293.9 198.6,290.9 204.1,288.3 209.6,289.3 215.2,276.7 220.7,282.1     226.2,277.7 231.8,274 237.4,255 242.9,252.1 248.4,247.1 253.9,240.9 259.4,236.1 265.1,240.9 270.6,244.7 276.1,244.2     281.6,243.6 287.2,249.7 292.7,258 298.3,260.4 303.8,258.4 309.4,265.8 314.9,265.7 320.4,270.1 325.9,263.4 331.6,267.5     337.1,264.3 342.6,263.1 348.1,262.6 353.6,261.1 359.2,256.6 364.7,252.6 370.3,244.2 375.8,250 381.4,236.3 386.9,238.5     392.4,231.5 397.9,232.2 403.6,220.1 409.1,226.3 414.6,219.5 420.1,224.7 425.6,223.6 431.2,225.4 436.8,223.8 442.3,231.4     447.8,234.1 453.4,234.7 458.9,228.9 464.4,234.7 470,230.5 475.6,233.7 481.1,224.5 486.6,228.3 492.1,223.3 497.6,221.1     503.3,212.4 508.8,213.6 514.3,211.6 519.8,210.1 525.4,200.7 530.9,201.7 536.5,200.8 542,202.1 547.6,183.5 553.1,184.1     558.6,178.3 564.1,181.2 569.8,165.6 575.3,165.6 580.8,163.8 586.3,159.3 591.8,147.4 597.4,148.1 602.9,146.5 608.5,140.2     614,130.3 619.6,130.7 625.1,128.4 630.6,128.1 636.1,114.5 641.8,118.3 647.3,113.2 652.8,107.3 658.3,97.1 663.8,94.8     669.4,95.1 675,89.8 680.5,126.3 686,130.9 691.6,133.5 697.1,117.4 702.6,104.4   "></polyline>
	</g>
</g>
<g>
	<path d="M32.6,357.9l0.8-0.1c0.1,0.4,0.2,0.7,0.4,0.9c0.2,0.2,0.5,0.3,0.8,0.3s0.5-0.1,0.7-0.2s0.4-0.3,0.5-0.5s0.2-0.5,0.3-0.8   c0.1-0.4,0.1-0.7,0.1-1.1c0,0,0-0.1,0-0.2c-0.2,0.3-0.4,0.5-0.7,0.7s-0.6,0.3-1,0.3c-0.6,0-1.1-0.2-1.5-0.6s-0.6-1-0.6-1.7   s0.2-1.3,0.6-1.7c0.4-0.4,1-0.7,1.6-0.7c0.5,0,0.9,0.1,1.3,0.4s0.7,0.6,0.9,1.1s0.3,1.1,0.3,2s-0.1,1.6-0.3,2.2s-0.5,1-0.9,1.2   s-0.8,0.4-1.4,0.4c-0.6,0-1-0.2-1.4-0.5S32.6,358.4,32.6,357.9z M36.2,354.7c0-0.5-0.1-0.9-0.4-1.2c-0.3-0.3-0.6-0.4-1-0.4   s-0.7,0.2-1,0.5s-0.4,0.7-0.4,1.2s0.1,0.8,0.4,1.1c0.3,0.3,0.6,0.4,1,0.4s0.7-0.1,1-0.4C36,355.6,36.2,355.2,36.2,354.7z"></path>
	<path d="M38,356c0-0.8,0.1-1.5,0.3-2s0.4-0.9,0.8-1.2c0.3-0.3,0.8-0.4,1.3-0.4c0.4,0,0.7,0.1,1,0.2s0.5,0.4,0.7,0.7   s0.3,0.6,0.4,1.1s0.2,1,0.2,1.7c0,0.8-0.1,1.5-0.3,2s-0.4,0.9-0.8,1.2c-0.3,0.3-0.8,0.4-1.3,0.4c-0.7,0-1.2-0.2-1.6-0.7   C38.2,358.3,38,357.3,38,356z M38.9,356c0,1.2,0.1,2,0.4,2.3c0.3,0.4,0.6,0.6,1,0.6s0.7-0.2,1-0.6s0.4-1.2,0.4-2.3   c0-1.2-0.1-2-0.4-2.3s-0.6-0.6-1-0.6s-0.7,0.2-1,0.5C39,354,38.9,354.8,38.9,356z"></path>
</g>
<g>
	<path d="M30.2,321.4h-0.9v-5.6c-0.2,0.2-0.5,0.4-0.8,0.6s-0.6,0.4-0.9,0.5v-0.8c0.5-0.2,0.9-0.5,1.3-0.8s0.6-0.6,0.8-1h0.6v7.1   H30.2z"></path>
	<path d="M35.7,321.4h-0.9v-5.6c-0.2,0.2-0.5,0.4-0.8,0.6s-0.6,0.4-0.9,0.5v-0.8c0.5-0.2,0.9-0.5,1.3-0.8c0.4-0.3,0.6-0.6,0.8-1h0.6   L35.7,321.4L35.7,321.4z"></path>
	<path d="M38.1,317.9c0-0.8,0.1-1.5,0.3-2s0.4-0.9,0.8-1.2c0.3-0.3,0.8-0.4,1.3-0.4c0.4,0,0.7,0.1,1,0.2s0.5,0.4,0.7,0.7   s0.3,0.6,0.4,1.1s0.2,1,0.2,1.7c0,0.8-0.1,1.5-0.3,2s-0.4,0.9-0.8,1.2c-0.3,0.3-0.8,0.4-1.3,0.4c-0.7,0-1.2-0.2-1.6-0.7   C38.3,320.2,38.1,319.3,38.1,317.9z M39,317.9c0,1.2,0.1,2,0.4,2.3c0.3,0.4,0.6,0.6,1,0.6s0.7-0.2,1-0.6s0.4-1.2,0.4-2.3   c0-1.2-0.1-2-0.4-2.3s-0.6-0.6-1-0.6s-0.7,0.2-1,0.5C39.1,315.9,39,316.7,39,317.9z"></path>
</g>
<g>
	<path d="M30.2,283.3h-0.9v-5.6c-0.2,0.2-0.5,0.4-0.8,0.6s-0.6,0.4-0.9,0.5V278c0.5-0.2,0.9-0.5,1.3-0.8s0.6-0.6,0.8-1h0.6v7.1H30.2   z"></path>
	<path d="M32.4,281.5l0.9-0.1c0.1,0.5,0.3,0.9,0.5,1.1s0.5,0.3,0.9,0.3s0.8-0.1,1-0.4s0.4-0.6,0.4-1.1c0-0.4-0.1-0.7-0.4-1   s-0.6-0.4-1-0.4c-0.2,0-0.4,0-0.6,0.1l0.1-0.8c0.1,0,0.1,0,0.1,0c0.4,0,0.7-0.1,1-0.3s0.4-0.5,0.4-0.9c0-0.3-0.1-0.6-0.3-0.8   s-0.5-0.3-0.8-0.3s-0.6,0.1-0.9,0.3s-0.4,0.5-0.4,1l-0.9-0.2c0.1-0.6,0.4-1,0.7-1.4s0.9-0.5,1.4-0.5c0.4,0,0.7,0.1,1.1,0.3   c0.3,0.2,0.6,0.4,0.8,0.7c0.2,0.3,0.3,0.6,0.3,0.9s-0.1,0.6-0.2,0.8s-0.4,0.5-0.7,0.6c0.4,0.1,0.7,0.3,1,0.6s0.4,0.7,0.4,1.2   c0,0.6-0.2,1.1-0.7,1.6c-0.5,0.4-1,0.6-1.7,0.6c-0.6,0-1.1-0.2-1.6-0.6C32.7,282.5,32.5,282,32.4,281.5z"></path>
	<path d="M38.1,279.8c0-0.8,0.1-1.5,0.3-2s0.4-0.9,0.8-1.2c0.3-0.3,0.8-0.4,1.3-0.4c0.4,0,0.7,0.1,1,0.2s0.5,0.4,0.7,0.7   s0.3,0.6,0.4,1.1s0.2,1,0.2,1.7c0,0.8-0.1,1.5-0.3,2s-0.4,0.9-0.8,1.2c-0.3,0.3-0.8,0.4-1.3,0.4c-0.7,0-1.2-0.2-1.6-0.7   C38.3,282.1,38.1,281.2,38.1,279.8z M39,279.8c0,1.2,0.1,2,0.4,2.3c0.3,0.4,0.6,0.6,1,0.6s0.7-0.2,1-0.6s0.4-1.2,0.4-2.3   c0-1.2-0.1-2-0.4-2.3s-0.6-0.6-1-0.6s-0.7,0.2-1,0.5C39.1,277.8,39,278.6,39,279.8z"></path>
</g>
<g>
	<path d="M30.2,245.2h-0.9v-5.6c-0.2,0.2-0.5,0.4-0.8,0.6c-0.3,0.2-0.6,0.4-0.9,0.5v-0.8c0.5-0.2,0.9-0.5,1.3-0.8s0.6-0.6,0.8-1h0.6   v7.1H30.2z"></path>
	<path d="M32.4,243.4l0.9-0.1c0.1,0.4,0.2,0.8,0.5,1c0.2,0.2,0.5,0.3,0.9,0.3s0.8-0.2,1.1-0.5s0.4-0.7,0.4-1.3   c0-0.5-0.1-0.9-0.4-1.2c-0.3-0.3-0.6-0.4-1.1-0.4c-0.3,0-0.5,0.1-0.8,0.2s-0.4,0.3-0.5,0.5l-0.8-0.1l0.7-3.7h3.5v0.8H34l-0.4,1.9   c0.4-0.3,0.9-0.4,1.3-0.4c0.6,0,1.1,0.2,1.6,0.6c0.4,0.4,0.6,1,0.6,1.7c0,0.6-0.2,1.2-0.6,1.7c-0.5,0.6-1.1,0.9-1.9,0.9   c-0.6,0-1.2-0.2-1.6-0.5S32.5,244,32.4,243.4z"></path>
	<path d="M38.1,241.7c0-0.8,0.1-1.5,0.3-2s0.4-0.9,0.8-1.2c0.3-0.3,0.8-0.4,1.3-0.4c0.4,0,0.7,0.1,1,0.2s0.5,0.4,0.7,0.7   s0.3,0.6,0.4,1.1s0.2,1,0.2,1.7c0,0.8-0.1,1.5-0.3,2s-0.4,0.9-0.8,1.2c-0.3,0.3-0.8,0.4-1.3,0.4c-0.7,0-1.2-0.2-1.6-0.7   C38.3,244,38.1,243.1,38.1,241.7z M39,241.7c0,1.2,0.1,2,0.4,2.3c0.3,0.4,0.6,0.6,1,0.6s0.7-0.2,1-0.6c0.3-0.4,0.4-1.2,0.4-2.3   c0-1.2-0.1-2-0.4-2.3s-0.6-0.6-1-0.6s-0.7,0.2-1,0.5C39.1,239.7,39,240.6,39,241.7z"></path>
</g>
<g>
	<path d="M30.2,207.1h-0.9v-5.6c-0.2,0.2-0.5,0.4-0.8,0.6c-0.3,0.2-0.6,0.4-0.9,0.5v-0.8c0.5-0.2,0.9-0.5,1.3-0.8s0.6-0.6,0.8-1h0.6   v7.1H30.2z"></path>
	<path d="M32.5,200.9v-0.8h4.6v0.7c-0.5,0.5-0.9,1.1-1.3,1.9c-0.4,0.8-0.8,1.6-1,2.5c-0.2,0.6-0.3,1.3-0.3,2h-0.9   c0-0.6,0.1-1.2,0.3-2s0.5-1.6,0.9-2.3s0.8-1.4,1.3-1.9L32.5,200.9L32.5,200.9z"></path>
	<path d="M38.1,203.6c0-0.8,0.1-1.5,0.3-2s0.4-0.9,0.8-1.2c0.3-0.3,0.8-0.4,1.3-0.4c0.4,0,0.7,0.1,1,0.2s0.5,0.4,0.7,0.7   s0.3,0.6,0.4,1.1s0.2,1,0.2,1.7c0,0.8-0.1,1.5-0.3,2s-0.4,0.9-0.8,1.2c-0.3,0.3-0.8,0.4-1.3,0.4c-0.7,0-1.2-0.2-1.6-0.7   C38.3,205.9,38.1,205,38.1,203.6z M39,203.6c0,1.2,0.1,1.9,0.4,2.3c0.3,0.4,0.6,0.6,1,0.6s0.7-0.2,1-0.6c0.3-0.4,0.4-1.2,0.4-2.3   c0-1.2-0.1-2-0.4-2.3s-0.6-0.6-1-0.6s-0.7,0.2-1,0.5C39.1,201.7,39,202.5,39,203.6z"></path>
</g>
<g>
	<path d="M30.2,169h-0.9v-5.6c-0.2,0.2-0.5,0.4-0.8,0.6c-0.3,0.2-0.6,0.4-0.9,0.5v-0.8c0.5-0.2,0.9-0.5,1.3-0.8s0.6-0.6,0.8-1h0.6   v7.1H30.2z"></path>
	<path d="M32.5,167.4l0.8-0.1c0.1,0.4,0.2,0.7,0.4,0.9s0.5,0.3,0.8,0.3s0.5-0.1,0.7-0.2c0.2-0.1,0.4-0.3,0.5-0.5s0.2-0.5,0.3-0.8   c0.1-0.4,0.1-0.7,0.1-1.1c0,0,0-0.1,0-0.2c-0.2,0.3-0.4,0.5-0.7,0.7s-0.6,0.3-1,0.3c-0.6,0-1.1-0.2-1.5-0.6c-0.4-0.4-0.6-1-0.6-1.7   s0.2-1.3,0.6-1.7c0.4-0.4,1-0.7,1.6-0.7c0.5,0,0.9,0.1,1.3,0.4s0.7,0.6,0.9,1.1s0.3,1.1,0.3,2s-0.1,1.6-0.3,2.2   c-0.2,0.5-0.5,1-0.9,1.2c-0.4,0.3-0.8,0.4-1.4,0.4c-0.6,0-1-0.2-1.4-0.5S32.6,168,32.5,167.4z M36.1,164.2c0-0.5-0.1-0.9-0.4-1.2   c-0.3-0.3-0.6-0.4-1-0.4s-0.7,0.2-1,0.5s-0.4,0.7-0.4,1.2s0.1,0.8,0.4,1.1s0.6,0.4,1,0.4s0.7-0.1,1-0.4   C36,165.1,36.1,164.8,36.1,164.2z"></path>
	<path d="M38.1,165.5c0-0.8,0.1-1.5,0.3-2s0.4-0.9,0.8-1.2c0.3-0.3,0.8-0.4,1.3-0.4c0.4,0,0.7,0.1,1,0.2s0.5,0.4,0.7,0.7   s0.3,0.6,0.4,1.1s0.2,1,0.2,1.7c0,0.8-0.1,1.5-0.3,2s-0.4,0.9-0.8,1.2c-0.3,0.3-0.8,0.4-1.3,0.4c-0.7,0-1.2-0.2-1.6-0.7   C38.3,167.8,38.1,166.9,38.1,165.5z M39,165.5c0,1.2,0.1,1.9,0.4,2.3c0.3,0.4,0.6,0.6,1,0.6s0.7-0.2,1-0.6s0.4-1.2,0.4-2.3   c0-1.2-0.1-2-0.4-2.3s-0.6-0.6-1-0.6s-0.7,0.2-1,0.5C39.1,163.6,39,164.4,39,165.5z"></path>
</g>
<g>
	<path d="M31.5,130.1v0.8h-4.7c0-0.2,0-0.4,0.1-0.6c0.1-0.3,0.3-0.6,0.6-0.9c0.3-0.3,0.6-0.7,1.1-1.1c0.8-0.6,1.3-1.1,1.6-1.5   c0.3-0.4,0.4-0.7,0.4-1.1c0-0.3-0.1-0.6-0.4-0.9s-0.6-0.4-1-0.4s-0.8,0.1-1,0.4s-0.4,0.6-0.4,1.1l-0.9-0.1c0.1-0.7,0.3-1.2,0.7-1.5   c0.4-0.4,0.9-0.5,1.6-0.5s1.2,0.2,1.6,0.6s0.6,0.8,0.6,1.4c0,0.3-0.1,0.6-0.2,0.8c-0.1,0.3-0.3,0.6-0.6,0.9   c-0.3,0.3-0.7,0.7-1.3,1.3c-0.5,0.4-0.9,0.7-1,0.9s-0.3,0.3-0.4,0.5L31.5,130.1L31.5,130.1z"></path>
	<path d="M35.7,130.9h-0.9v-5.6c-0.2,0.2-0.5,0.4-0.8,0.6s-0.6,0.4-0.9,0.5v-0.8c0.5-0.2,0.9-0.5,1.3-0.8c0.4-0.3,0.6-0.6,0.8-1h0.6   L35.7,130.9L35.7,130.9z"></path>
	<path d="M38.1,127.4c0-0.8,0.1-1.5,0.3-2s0.4-0.9,0.8-1.2c0.3-0.3,0.8-0.4,1.3-0.4c0.4,0,0.7,0.1,1,0.2s0.5,0.4,0.7,0.7   c0.2,0.3,0.3,0.6,0.4,1.1s0.2,1,0.2,1.7c0,0.8-0.1,1.5-0.3,2s-0.4,0.9-0.8,1.2c-0.3,0.3-0.8,0.4-1.3,0.4c-0.7,0-1.2-0.2-1.6-0.7   C38.3,129.7,38.1,128.8,38.1,127.4z M39,127.4c0,1.2,0.1,1.9,0.4,2.3c0.3,0.4,0.6,0.6,1,0.6s0.7-0.2,1-0.6s0.4-1.2,0.4-2.3   c0-1.2-0.1-2-0.4-2.3s-0.6-0.6-1-0.6s-0.7,0.2-1,0.5C39.1,125.5,39,126.3,39,127.4z"></path>
</g>
<g>
	<path d="M31.5,92v0.8h-4.7c0-0.2,0-0.4,0.1-0.6c0.1-0.3,0.3-0.6,0.6-0.9c0.3-0.3,0.6-0.7,1.1-1.1c0.8-0.6,1.3-1.1,1.6-1.5   c0.3-0.4,0.4-0.7,0.4-1.1c0-0.3-0.1-0.6-0.4-0.9s-0.6-0.4-1-0.4s-0.8,0.1-1,0.4s-0.4,0.6-0.4,1.1l-0.9-0.1c0.1-0.7,0.3-1.2,0.7-1.5   c0.4-0.4,0.9-0.5,1.6-0.5s1.2,0.2,1.6,0.6s0.6,0.8,0.6,1.4c0,0.3-0.1,0.6-0.2,0.8c-0.1,0.3-0.3,0.6-0.6,0.9   c-0.3,0.3-0.7,0.7-1.3,1.3c-0.5,0.4-0.9,0.7-1,0.9c-0.1,0.2-0.3,0.3-0.4,0.5h3.6V92z"></path>
	<path d="M32.4,91l0.9-0.1c0.1,0.5,0.3,0.9,0.5,1.1s0.5,0.3,0.9,0.3s0.8-0.1,1-0.4c0.3-0.3,0.4-0.6,0.4-1.1c0-0.4-0.1-0.7-0.4-1   c-0.3-0.3-0.6-0.4-1-0.4c-0.2,0-0.4,0-0.6,0.1l0.1-0.8c0.1,0,0.1,0,0.1,0c0.4,0,0.7-0.1,1-0.3c0.3-0.2,0.4-0.5,0.4-0.9   c0-0.3-0.1-0.6-0.3-0.8c-0.2-0.2-0.5-0.3-0.8-0.3s-0.6,0.1-0.9,0.3c-0.2,0.2-0.4,0.5-0.4,1l-0.9-0.2c0.1-0.6,0.4-1,0.7-1.4   s0.9-0.5,1.4-0.5c0.4,0,0.7,0.1,1.1,0.3c0.3,0.2,0.6,0.4,0.8,0.7s0.3,0.6,0.3,0.9s-0.1,0.6-0.2,0.8s-0.4,0.5-0.7,0.6   c0.4,0.1,0.7,0.3,1,0.6c0.2,0.3,0.4,0.7,0.4,1.1c0,0.6-0.2,1.2-0.7,1.6s-1,0.6-1.7,0.6c-0.6,0-1.1-0.2-1.6-0.6   C32.7,92.1,32.5,91.6,32.4,91z"></path>
	<path d="M38.1,89.3c0-0.8,0.1-1.5,0.3-2s0.4-0.9,0.8-1.2c0.3-0.3,0.8-0.4,1.3-0.4c0.4,0,0.7,0.1,1,0.2s0.5,0.4,0.7,0.7   c0.2,0.3,0.3,0.6,0.4,1.1s0.2,1,0.2,1.7c0,0.8-0.1,1.5-0.3,2s-0.4,0.9-0.8,1.2c-0.3,0.3-0.8,0.4-1.3,0.4c-0.7,0-1.2-0.2-1.6-0.7   C38.3,91.7,38.1,90.7,38.1,89.3z M39,89.3c0,1.2,0.1,1.9,0.4,2.3c0.3,0.4,0.6,0.6,1,0.6s0.7-0.2,1-0.6s0.4-1.2,0.4-2.3   c0-1.2-0.1-2-0.4-2.3s-0.6-0.6-1-0.6s-0.7,0.2-1,0.5C39.1,87.4,39,88.2,39,89.3z"></path>
</g>
<g>
	<path d="M57.9,381v0.9h-5.6c0.2,0.2,0.4,0.5,0.6,0.8s0.4,0.6,0.5,0.9h-0.8c-0.2-0.5-0.5-0.9-0.8-1.3s-0.6-0.6-1-0.8V381H57.9z"></path>
	<path d="M56.3,378.6l-0.1-0.8c0.4-0.1,0.7-0.2,0.9-0.4c0.2-0.2,0.3-0.5,0.3-0.8s-0.1-0.5-0.2-0.7c-0.1-0.2-0.3-0.4-0.5-0.5   s-0.5-0.2-0.8-0.3s-0.7-0.1-1.1-0.1c0,0-0.1,0-0.2,0c0.3,0.2,0.5,0.4,0.7,0.7s0.3,0.6,0.3,1c0,0.6-0.2,1.1-0.6,1.5   c-0.4,0.4-1,0.6-1.7,0.6s-1.3-0.2-1.7-0.6s-0.7-1-0.7-1.6c0-0.5,0.1-0.9,0.4-1.3c0.2-0.4,0.6-0.7,1.1-0.9s1.1-0.3,2-0.3   s1.6,0.1,2.2,0.3c0.5,0.2,1,0.5,1.2,0.9c0.3,0.4,0.4,0.8,0.4,1.4s-0.2,1-0.5,1.4S56.8,378.5,56.3,378.6z M53.1,375   c-0.5,0-0.9,0.1-1.2,0.4s-0.4,0.6-0.4,1s0.2,0.7,0.5,1s0.7,0.4,1.2,0.4s0.8-0.1,1.1-0.4s0.4-0.6,0.4-1s-0.1-0.7-0.4-1   S53.6,375,53.1,375z"></path>
	<path d="M56.3,373l-0.1-0.8c0.4-0.1,0.7-0.2,0.9-0.4c0.2-0.2,0.3-0.5,0.3-0.8s-0.1-0.5-0.2-0.7c-0.1-0.2-0.3-0.4-0.5-0.5   s-0.5-0.2-0.8-0.3s-0.7-0.1-1.1-0.1c0,0-0.1,0-0.2,0c0.3,0.2,0.5,0.4,0.7,0.7s0.3,0.6,0.3,1c0,0.6-0.2,1.1-0.6,1.5   c-0.4,0.4-1,0.6-1.7,0.6s-1.3-0.2-1.7-0.6s-0.7-1-0.7-1.6c0-0.5,0.1-0.9,0.4-1.3c0.2-0.4,0.6-0.7,1.1-0.9s1.1-0.3,2-0.3   s1.6,0.1,2.2,0.3c0.5,0.2,1,0.5,1.2,0.9c0.3,0.4,0.4,0.8,0.4,1.4s-0.2,1-0.5,1.4S56.8,372.9,56.3,373z M53.1,369.4   c-0.5,0-0.9,0.1-1.2,0.4s-0.4,0.6-0.4,1s0.2,0.7,0.5,1s0.7,0.4,1.2,0.4s0.8-0.1,1.1-0.4s0.4-0.6,0.4-1s-0.1-0.7-0.4-1   S53.6,369.4,53.1,369.4z"></path>
	<path d="M57.1,363h0.8v4.7c-0.2,0-0.4,0-0.6-0.1c-0.3-0.1-0.6-0.3-0.9-0.6c-0.3-0.3-0.7-0.6-1.1-1.1c-0.6-0.8-1.1-1.3-1.5-1.6   s-0.7-0.4-1.1-0.4c-0.3,0-0.6,0.1-0.9,0.4s-0.4,0.6-0.4,1s0.1,0.8,0.4,1s0.6,0.4,1.1,0.4l-0.1,0.9c-0.7-0.1-1.2-0.3-1.5-0.7   c-0.4-0.4-0.5-0.9-0.5-1.6s0.2-1.2,0.6-1.6s0.8-0.6,1.4-0.6c0.3,0,0.6,0.1,0.8,0.2c0.3,0.1,0.6,0.3,0.9,0.6   c0.3,0.3,0.7,0.7,1.3,1.3c0.4,0.5,0.7,0.9,0.9,1s0.3,0.3,0.5,0.4V363H57.1z"></path>
</g>
<g>
	<path d="M80.1,381v0.9h-5.6c0.2,0.2,0.4,0.5,0.6,0.8s0.4,0.6,0.5,0.9h-0.8c-0.2-0.5-0.5-0.9-0.8-1.3s-0.6-0.6-1-0.8V381H80.1z"></path>
	<path d="M78.4,378.6l-0.1-0.8c0.4-0.1,0.7-0.2,0.9-0.4c0.2-0.2,0.3-0.5,0.3-0.8s-0.1-0.5-0.2-0.7s-0.3-0.4-0.5-0.5   s-0.5-0.2-0.8-0.3s-0.7-0.1-1.1-0.1c0,0-0.1,0-0.2,0c0.3,0.2,0.5,0.4,0.7,0.7s0.3,0.6,0.3,1c0,0.6-0.2,1.1-0.6,1.5s-1,0.6-1.7,0.6   s-1.3-0.2-1.7-0.6c-0.4-0.4-0.7-1-0.7-1.6c0-0.5,0.1-0.9,0.4-1.3c0.2-0.4,0.6-0.7,1.1-0.9s1.1-0.3,2-0.3s1.6,0.1,2.2,0.3   c0.5,0.2,1,0.5,1.2,0.9c0.3,0.4,0.4,0.8,0.4,1.4s-0.2,1-0.5,1.4S79,378.5,78.4,378.6z M75.3,375c-0.5,0-0.9,0.1-1.2,0.4   c-0.3,0.3-0.4,0.6-0.4,1s0.2,0.7,0.5,1s0.7,0.4,1.2,0.4s0.8-0.1,1.1-0.4c0.3-0.3,0.4-0.6,0.4-1s-0.1-0.7-0.4-1S75.8,375,75.3,375z"></path>
	<path d="M78.4,373l-0.1-0.8c0.4-0.1,0.7-0.2,0.9-0.4c0.2-0.2,0.3-0.5,0.3-0.8s-0.1-0.5-0.2-0.7s-0.3-0.4-0.5-0.5s-0.5-0.2-0.8-0.3   s-0.7-0.1-1.1-0.1c0,0-0.1,0-0.2,0c0.3,0.2,0.5,0.4,0.7,0.7s0.3,0.6,0.3,1c0,0.6-0.2,1.1-0.6,1.5s-1,0.6-1.7,0.6s-1.3-0.2-1.7-0.6   c-0.4-0.4-0.7-1-0.7-1.6c0-0.5,0.1-0.9,0.4-1.3c0.2-0.4,0.6-0.7,1.1-0.9s1.1-0.3,2-0.3s1.6,0.1,2.2,0.3c0.5,0.2,1,0.5,1.2,0.9   c0.3,0.4,0.4,0.8,0.4,1.4s-0.2,1-0.5,1.4S79,372.9,78.4,373z M75.3,369.4c-0.5,0-0.9,0.1-1.2,0.4c-0.3,0.3-0.4,0.6-0.4,1   s0.2,0.7,0.5,1s0.7,0.4,1.2,0.4s0.8-0.1,1.1-0.4c0.3-0.3,0.4-0.6,0.4-1s-0.1-0.7-0.4-1S75.8,369.4,75.3,369.4z"></path>
	<path d="M78.2,367.6l-0.1-0.9c0.5-0.1,0.9-0.3,1.1-0.5s0.3-0.5,0.3-0.9s-0.1-0.8-0.4-1c-0.3-0.3-0.6-0.4-1.1-0.4   c-0.4,0-0.7,0.1-1,0.4s-0.4,0.6-0.4,1c0,0.2,0,0.4,0.1,0.6l-0.8-0.1c0-0.1,0-0.1,0-0.1c0-0.4-0.1-0.7-0.3-1   c-0.2-0.3-0.5-0.4-0.9-0.4c-0.3,0-0.6,0.1-0.8,0.3c-0.2,0.2-0.3,0.5-0.3,0.8s0.1,0.6,0.3,0.9c0.2,0.2,0.5,0.4,1,0.4l-0.2,0.9   c-0.6-0.1-1-0.3-1.4-0.7c-0.3-0.4-0.5-0.9-0.5-1.4c0-0.4,0.1-0.7,0.3-1.1c0.2-0.3,0.4-0.6,0.7-0.8s0.6-0.3,0.9-0.3s0.6,0.1,0.8,0.2   c0.3,0.2,0.5,0.4,0.6,0.7c0.1-0.4,0.3-0.7,0.6-1c0.3-0.2,0.7-0.3,1.1-0.3c0.6,0,1.2,0.2,1.6,0.7s0.6,1,0.6,1.7   c0,0.6-0.2,1.1-0.6,1.6C79.3,367.3,78.8,367.5,78.2,367.6z"></path>
</g>
<g>
	<path d="M102.3,381v0.9h-5.6c0.2,0.2,0.4,0.5,0.6,0.8s0.4,0.6,0.5,0.9H97c-0.2-0.5-0.5-0.9-0.8-1.3s-0.6-0.6-1-0.8V381H102.3z"></path>
	<path d="M100.6,378.6l-0.1-0.8c0.4-0.1,0.7-0.2,0.9-0.4c0.2-0.2,0.3-0.5,0.3-0.8s-0.1-0.5-0.2-0.7s-0.3-0.4-0.5-0.5   s-0.5-0.2-0.8-0.3s-0.7-0.1-1.1-0.1c0,0-0.1,0-0.2,0c0.3,0.2,0.5,0.4,0.7,0.7s0.3,0.6,0.3,1c0,0.6-0.2,1.1-0.6,1.5s-1,0.6-1.7,0.6   s-1.3-0.2-1.7-0.6c-0.4-0.4-0.7-1-0.7-1.6c0-0.5,0.1-0.9,0.4-1.3c0.2-0.4,0.6-0.7,1.1-0.9s1.1-0.3,2-0.3s1.6,0.1,2.2,0.3   c0.5,0.2,1,0.5,1.2,0.9c0.3,0.4,0.4,0.8,0.4,1.4s-0.2,1-0.5,1.4S101.2,378.5,100.6,378.6z M97.5,375c-0.5,0-0.9,0.1-1.2,0.4   c-0.3,0.3-0.4,0.6-0.4,1s0.2,0.7,0.5,1s0.7,0.4,1.2,0.4s0.8-0.1,1.1-0.4c0.3-0.3,0.4-0.6,0.4-1s-0.1-0.7-0.4-1S98,375,97.5,375z"></path>
	<path d="M100.6,373l-0.1-0.8c0.4-0.1,0.7-0.2,0.9-0.4c0.2-0.2,0.3-0.5,0.3-0.8s-0.1-0.5-0.2-0.7s-0.3-0.4-0.5-0.5s-0.5-0.2-0.8-0.3   s-0.7-0.1-1.1-0.1c0,0-0.1,0-0.2,0c0.3,0.2,0.5,0.4,0.7,0.7s0.3,0.6,0.3,1c0,0.6-0.2,1.1-0.6,1.5s-1,0.6-1.7,0.6s-1.3-0.2-1.7-0.6   c-0.4-0.4-0.7-1-0.7-1.6c0-0.5,0.1-0.9,0.4-1.3c0.2-0.4,0.6-0.7,1.1-0.9s1.1-0.3,2-0.3s1.6,0.1,2.2,0.3c0.5,0.2,1,0.5,1.2,0.9   c0.3,0.4,0.4,0.8,0.4,1.4s-0.2,1-0.5,1.4S101.2,372.9,100.6,373z M97.5,369.4c-0.5,0-0.9,0.1-1.2,0.4c-0.3,0.3-0.4,0.6-0.4,1   s0.2,0.7,0.5,1s0.7,0.4,1.2,0.4s0.8-0.1,1.1-0.4c0.3-0.3,0.4-0.6,0.4-1s-0.1-0.7-0.4-1S98,369.4,97.5,369.4z"></path>
	<path d="M102.3,364.8h-1.7v3.1h-0.8l-4.6-3.3v-0.7h4.6v-1h0.8v1h1.7V364.8z M99.7,364.8h-3.2l3.2,2.2V364.8z"></path>
</g>
<g>
	<path d="M124.4,381v0.9h-5.6c0.2,0.2,0.4,0.5,0.6,0.8s0.4,0.6,0.5,0.9H119c-0.2-0.5-0.5-0.9-0.8-1.3s-0.6-0.6-1-0.8V381H124.4z"></path>
	<path d="M122.8,378.6l-0.1-0.8c0.4-0.1,0.7-0.2,0.9-0.4c0.2-0.2,0.3-0.5,0.3-0.8s-0.1-0.5-0.2-0.7s-0.3-0.4-0.5-0.5   s-0.5-0.2-0.8-0.3s-0.7-0.1-1.1-0.1c0,0-0.1,0-0.2,0c0.3,0.2,0.5,0.4,0.7,0.7s0.3,0.6,0.3,1c0,0.6-0.2,1.1-0.6,1.5s-1,0.6-1.7,0.6   s-1.3-0.2-1.7-0.6c-0.4-0.4-0.7-1-0.7-1.6c0-0.5,0.1-0.9,0.4-1.3c0.2-0.4,0.6-0.7,1.1-0.9s1.1-0.3,2-0.3s1.6,0.1,2.2,0.3   c0.5,0.2,1,0.5,1.2,0.9c0.3,0.4,0.4,0.8,0.4,1.4s-0.2,1-0.5,1.4S123.3,378.5,122.8,378.6z M119.6,375c-0.5,0-0.9,0.1-1.2,0.4   c-0.3,0.3-0.4,0.6-0.4,1s0.2,0.7,0.5,1s0.7,0.4,1.2,0.4s0.8-0.1,1.1-0.4c0.3-0.3,0.4-0.6,0.4-1s-0.1-0.7-0.4-1S120.1,375,119.6,375   z"></path>
	<path d="M122.8,373l-0.1-0.8c0.4-0.1,0.7-0.2,0.9-0.4c0.2-0.2,0.3-0.5,0.3-0.8s-0.1-0.5-0.2-0.7s-0.3-0.4-0.5-0.5s-0.5-0.2-0.8-0.3   s-0.7-0.1-1.1-0.1c0,0-0.1,0-0.2,0c0.3,0.2,0.5,0.4,0.7,0.7s0.3,0.6,0.3,1c0,0.6-0.2,1.1-0.6,1.5s-1,0.6-1.7,0.6s-1.3-0.2-1.7-0.6   c-0.4-0.4-0.7-1-0.7-1.6c0-0.5,0.1-0.9,0.4-1.3c0.2-0.4,0.6-0.7,1.1-0.9s1.1-0.3,2-0.3s1.6,0.1,2.2,0.3c0.5,0.2,1,0.5,1.2,0.9   c0.3,0.4,0.4,0.8,0.4,1.4s-0.2,1-0.5,1.4S123.3,372.9,122.8,373z M119.6,369.4c-0.5,0-0.9,0.1-1.2,0.4c-0.3,0.3-0.4,0.6-0.4,1   s0.2,0.7,0.5,1s0.7,0.4,1.2,0.4s0.8-0.1,1.1-0.4c0.3-0.3,0.4-0.6,0.4-1s-0.1-0.7-0.4-1S120.1,369.4,119.6,369.4z"></path>
	<path d="M122.5,367.6l-0.1-0.9c0.4-0.1,0.8-0.2,1-0.5c0.2-0.2,0.3-0.5,0.3-0.9s-0.2-0.8-0.5-1.1c-0.3-0.3-0.7-0.4-1.3-0.4   c-0.5,0-0.9,0.1-1.2,0.4s-0.4,0.6-0.4,1.1c0,0.3,0.1,0.5,0.2,0.8s0.3,0.4,0.5,0.5l-0.1,0.8l-3.7-0.7v-3.5h0.8v2.8l1.9,0.4   c-0.3-0.4-0.4-0.9-0.4-1.3c0-0.6,0.2-1.1,0.6-1.6c0.4-0.4,1-0.6,1.7-0.6c0.6,0,1.2,0.2,1.7,0.6c0.6,0.5,0.9,1.1,0.9,1.9   c0,0.6-0.2,1.2-0.5,1.6C123.6,367.3,123.1,367.5,122.5,367.6z"></path>
</g>
<g>
	<path d="M146.6,381v0.9H141c0.2,0.2,0.4,0.5,0.6,0.8s0.4,0.6,0.5,0.9h-0.8c-0.2-0.5-0.5-0.9-0.8-1.3s-0.6-0.6-1-0.8V381H146.6z"></path>
	<path d="M144.9,378.6l-0.1-0.8c0.4-0.1,0.7-0.2,0.9-0.4c0.2-0.2,0.3-0.5,0.3-0.8s-0.1-0.5-0.2-0.7c-0.1-0.2-0.3-0.4-0.5-0.5   s-0.5-0.2-0.8-0.3s-0.7-0.1-1.1-0.1c0,0-0.1,0-0.2,0c0.3,0.2,0.5,0.4,0.7,0.7s0.3,0.6,0.3,1c0,0.6-0.2,1.1-0.6,1.5   c-0.4,0.4-1,0.6-1.7,0.6s-1.3-0.2-1.7-0.6s-0.7-1-0.7-1.6c0-0.5,0.1-0.9,0.4-1.3c0.2-0.4,0.6-0.7,1.1-0.9s1.1-0.3,2-0.3   s1.6,0.1,2.2,0.3c0.5,0.2,1,0.5,1.2,0.9c0.3,0.4,0.4,0.8,0.4,1.4s-0.2,1-0.5,1.4S145.5,378.5,144.9,378.6z M141.8,375   c-0.5,0-0.9,0.1-1.2,0.4s-0.4,0.6-0.4,1s0.2,0.7,0.5,1s0.7,0.4,1.2,0.4s0.8-0.1,1.1-0.4s0.4-0.6,0.4-1s-0.1-0.7-0.4-1   S142.3,375,141.8,375z"></path>
	<path d="M144.9,373l-0.1-0.8c0.4-0.1,0.7-0.2,0.9-0.4c0.2-0.2,0.3-0.5,0.3-0.8s-0.1-0.5-0.2-0.7c-0.1-0.2-0.3-0.4-0.5-0.5   s-0.5-0.2-0.8-0.3s-0.7-0.1-1.1-0.1c0,0-0.1,0-0.2,0c0.3,0.2,0.5,0.4,0.7,0.7s0.3,0.6,0.3,1c0,0.6-0.2,1.1-0.6,1.5   c-0.4,0.4-1,0.6-1.7,0.6s-1.3-0.2-1.7-0.6s-0.7-1-0.7-1.6c0-0.5,0.1-0.9,0.4-1.3c0.2-0.4,0.6-0.7,1.1-0.9s1.1-0.3,2-0.3   s1.6,0.1,2.2,0.3c0.5,0.2,1,0.5,1.2,0.9c0.3,0.4,0.4,0.8,0.4,1.4s-0.2,1-0.5,1.4S145.5,372.9,144.9,373z M141.8,369.4   c-0.5,0-0.9,0.1-1.2,0.4s-0.4,0.6-0.4,1s0.2,0.7,0.5,1s0.7,0.4,1.2,0.4s0.8-0.1,1.1-0.4s0.4-0.6,0.4-1s-0.1-0.7-0.4-1   S142.3,369.4,141.8,369.4z"></path>
	<path d="M141.2,363l0.1,0.9c-0.3,0.1-0.6,0.2-0.7,0.3c-0.2,0.2-0.4,0.5-0.4,0.9c0,0.3,0.1,0.5,0.2,0.7c0.2,0.3,0.5,0.5,0.9,0.7   s0.9,0.2,1.6,0.2c-0.3-0.2-0.6-0.5-0.7-0.8s-0.2-0.6-0.2-1c0-0.6,0.2-1.1,0.6-1.5s1-0.6,1.7-0.6c0.4,0,0.9,0.1,1.2,0.3   c0.4,0.2,0.7,0.5,0.9,0.8s0.3,0.7,0.3,1.1c0,0.7-0.3,1.3-0.8,1.8s-1.4,0.7-2.7,0.7c-1.4,0-2.4-0.3-3-0.8c-0.5-0.4-0.8-1-0.8-1.8   c0-0.6,0.2-1,0.5-1.4S140.6,363.1,141.2,363z M144.3,366.6c0.3,0,0.6-0.1,0.9-0.2s0.5-0.3,0.6-0.5s0.2-0.5,0.2-0.7   c0-0.4-0.1-0.7-0.4-1c-0.3-0.3-0.7-0.4-1.2-0.4s-0.9,0.1-1.2,0.4s-0.4,0.6-0.4,1s0.1,0.7,0.4,1   C143.4,366.5,143.8,366.6,144.3,366.6z"></path>
</g>
<g>
	<path d="M168.7,381v0.9h-5.6c0.2,0.2,0.4,0.5,0.6,0.8s0.4,0.6,0.5,0.9h-0.8c-0.2-0.5-0.5-0.9-0.8-1.3s-0.6-0.6-1-0.8V381H168.7z"></path>
	<path d="M167.1,378.6l-0.1-0.8c0.4-0.1,0.7-0.2,0.9-0.4c0.2-0.2,0.3-0.5,0.3-0.8s-0.1-0.5-0.2-0.7c-0.1-0.2-0.3-0.4-0.5-0.5   s-0.5-0.2-0.8-0.3s-0.7-0.1-1.1-0.1c0,0-0.1,0-0.2,0c0.3,0.2,0.5,0.4,0.7,0.7s0.3,0.6,0.3,1c0,0.6-0.2,1.1-0.6,1.5   c-0.4,0.4-1,0.6-1.7,0.6s-1.3-0.2-1.7-0.6s-0.7-1-0.7-1.6c0-0.5,0.1-0.9,0.4-1.3c0.2-0.4,0.6-0.7,1.1-0.9s1.1-0.3,2-0.3   s1.6,0.1,2.2,0.3c0.5,0.2,1,0.5,1.2,0.9c0.3,0.4,0.4,0.8,0.4,1.4s-0.2,1-0.5,1.4S167.6,378.5,167.1,378.6z M163.9,375   c-0.5,0-0.9,0.1-1.2,0.4s-0.4,0.6-0.4,1s0.2,0.7,0.5,1s0.7,0.4,1.2,0.4s0.8-0.1,1.1-0.4s0.4-0.6,0.4-1s-0.1-0.7-0.4-1   S164.4,375,163.9,375z"></path>
	<path d="M167.1,373l-0.1-0.8c0.4-0.1,0.7-0.2,0.9-0.4c0.2-0.2,0.3-0.5,0.3-0.8s-0.1-0.5-0.2-0.7c-0.1-0.2-0.3-0.4-0.5-0.5   s-0.5-0.2-0.8-0.3s-0.7-0.1-1.1-0.1c0,0-0.1,0-0.2,0c0.3,0.2,0.5,0.4,0.7,0.7s0.3,0.6,0.3,1c0,0.6-0.2,1.1-0.6,1.5   c-0.4,0.4-1,0.6-1.7,0.6s-1.3-0.2-1.7-0.6s-0.7-1-0.7-1.6c0-0.5,0.1-0.9,0.4-1.3c0.2-0.4,0.6-0.7,1.1-0.9s1.1-0.3,2-0.3   s1.6,0.1,2.2,0.3c0.5,0.2,1,0.5,1.2,0.9c0.3,0.4,0.4,0.8,0.4,1.4s-0.2,1-0.5,1.4S167.6,372.9,167.1,373z M163.9,369.4   c-0.5,0-0.9,0.1-1.2,0.4s-0.4,0.6-0.4,1s0.2,0.7,0.5,1s0.7,0.4,1.2,0.4s0.8-0.1,1.1-0.4s0.4-0.6,0.4-1s-0.1-0.7-0.4-1   S164.4,369.4,163.9,369.4z"></path>
	<path d="M162.5,367.5h-0.8v-4.6h0.7c0.5,0.5,1.1,0.9,1.9,1.3c0.8,0.4,1.6,0.8,2.5,1c0.6,0.2,1.3,0.3,2,0.3v0.9   c-0.6,0-1.2-0.1-2-0.3c-0.8-0.2-1.6-0.5-2.3-0.9s-1.4-0.8-1.9-1.3L162.5,367.5L162.5,367.5z"></path>
</g>
<g>
	<path d="M190.9,381v0.9h-5.6c0.2,0.2,0.4,0.5,0.6,0.8s0.4,0.6,0.5,0.9h-0.8c-0.2-0.5-0.5-0.9-0.8-1.3s-0.6-0.6-1-0.8V381H190.9z"></path>
	<path d="M189.2,378.6l-0.1-0.8c0.4-0.1,0.7-0.2,0.9-0.4c0.2-0.2,0.3-0.5,0.3-0.8s-0.1-0.5-0.2-0.7c-0.1-0.2-0.3-0.4-0.5-0.5   s-0.5-0.2-0.8-0.3s-0.7-0.1-1.1-0.1c0,0-0.1,0-0.2,0c0.3,0.2,0.5,0.4,0.7,0.7s0.3,0.6,0.3,1c0,0.6-0.2,1.1-0.6,1.5   c-0.4,0.4-1,0.6-1.7,0.6s-1.3-0.2-1.7-0.6s-0.7-1-0.7-1.6c0-0.5,0.1-0.9,0.4-1.3c0.2-0.4,0.6-0.7,1.1-0.9s1.1-0.3,2-0.3   s1.6,0.1,2.2,0.3c0.5,0.2,1,0.5,1.2,0.9c0.3,0.4,0.4,0.8,0.4,1.4s-0.2,1-0.5,1.4S189.8,378.5,189.2,378.6z M186.1,375   c-0.5,0-0.9,0.1-1.2,0.4s-0.4,0.6-0.4,1s0.2,0.7,0.5,1s0.7,0.4,1.2,0.4s0.8-0.1,1.1-0.4s0.4-0.6,0.4-1s-0.1-0.7-0.4-1   S186.6,375,186.1,375z"></path>
	<path d="M189.2,373l-0.1-0.8c0.4-0.1,0.7-0.2,0.9-0.4c0.2-0.2,0.3-0.5,0.3-0.8s-0.1-0.5-0.2-0.7c-0.1-0.2-0.3-0.4-0.5-0.5   s-0.5-0.2-0.8-0.3s-0.7-0.1-1.1-0.1c0,0-0.1,0-0.2,0c0.3,0.2,0.5,0.4,0.7,0.7s0.3,0.6,0.3,1c0,0.6-0.2,1.1-0.6,1.5   c-0.4,0.4-1,0.6-1.7,0.6s-1.3-0.2-1.7-0.6s-0.7-1-0.7-1.6c0-0.5,0.1-0.9,0.4-1.3c0.2-0.4,0.6-0.7,1.1-0.9s1.1-0.3,2-0.3   s1.6,0.1,2.2,0.3c0.5,0.2,1,0.5,1.2,0.9c0.3,0.4,0.4,0.8,0.4,1.4s-0.2,1-0.5,1.4S189.8,372.9,189.2,373z M186.1,369.4   c-0.5,0-0.9,0.1-1.2,0.4s-0.4,0.6-0.4,1s0.2,0.7,0.5,1s0.7,0.4,1.2,0.4s0.8-0.1,1.1-0.4s0.4-0.6,0.4-1s-0.1-0.7-0.4-1   S186.6,369.4,186.1,369.4z"></path>
	<path d="M187,366.2c-0.1,0.4-0.3,0.6-0.6,0.8c-0.2,0.2-0.5,0.3-0.9,0.3c-0.5,0-1-0.2-1.3-0.6c-0.4-0.4-0.5-0.9-0.5-1.5   s0.2-1.1,0.5-1.5c0.4-0.4,0.8-0.6,1.3-0.6c0.3,0,0.6,0.1,0.9,0.3c0.2,0.2,0.4,0.4,0.6,0.8c0.1-0.4,0.4-0.8,0.7-1s0.7-0.3,1.1-0.3   c0.6,0,1.1,0.2,1.5,0.6s0.6,1,0.6,1.7s-0.2,1.3-0.6,1.7c-0.4,0.4-0.9,0.6-1.6,0.6c-0.5,0-0.9-0.1-1.2-0.4   C187.3,367,187.1,366.7,187,366.2z M185.5,366.4c0.3,0,0.6-0.1,0.8-0.3c0.2-0.2,0.3-0.5,0.3-0.8s-0.1-0.6-0.3-0.8s-0.5-0.3-0.8-0.3   s-0.6,0.1-0.8,0.3c-0.2,0.2-0.3,0.5-0.3,0.8s0.1,0.6,0.3,0.8C185,366.3,185.2,366.4,185.5,366.4z M188.8,366.7   c0.2,0,0.5-0.1,0.7-0.2s0.4-0.3,0.5-0.5s0.2-0.5,0.2-0.8c0-0.4-0.1-0.8-0.4-1s-0.6-0.4-1-0.4s-0.8,0.1-1,0.4   c-0.3,0.3-0.4,0.6-0.4,1.1c0,0.4,0.1,0.8,0.4,1C188.1,366.5,188.4,366.7,188.8,366.7z"></path>
</g>
<g>
	<path d="M213,381v0.9h-5.6c0.2,0.2,0.4,0.5,0.6,0.8s0.4,0.6,0.5,0.9h-0.8c-0.2-0.5-0.5-0.9-0.8-1.3s-0.6-0.6-1-0.8V381H213z"></path>
	<path d="M211.4,378.6l-0.1-0.8c0.4-0.1,0.7-0.2,0.9-0.4c0.2-0.2,0.3-0.5,0.3-0.8s-0.1-0.5-0.2-0.7c-0.1-0.2-0.3-0.4-0.5-0.5   s-0.5-0.2-0.8-0.3s-0.7-0.1-1.1-0.1c0,0-0.1,0-0.2,0c0.3,0.2,0.5,0.4,0.7,0.7s0.3,0.6,0.3,1c0,0.6-0.2,1.1-0.6,1.5   c-0.4,0.4-1,0.6-1.7,0.6s-1.3-0.2-1.7-0.6s-0.7-1-0.7-1.6c0-0.5,0.1-0.9,0.4-1.3c0.2-0.4,0.6-0.7,1.1-0.9s1.1-0.3,2-0.3   s1.6,0.1,2.2,0.3c0.5,0.2,1,0.5,1.2,0.9c0.3,0.4,0.4,0.8,0.4,1.4s-0.2,1-0.5,1.4S212,378.5,211.4,378.6z M208.2,375   c-0.5,0-0.9,0.1-1.2,0.4s-0.4,0.6-0.4,1s0.2,0.7,0.5,1s0.7,0.4,1.2,0.4s0.8-0.1,1.1-0.4s0.4-0.6,0.4-1s-0.1-0.7-0.4-1   S208.7,375,208.2,375z"></path>
	<path d="M211.4,373l-0.1-0.8c0.4-0.1,0.7-0.2,0.9-0.4c0.2-0.2,0.3-0.5,0.3-0.8s-0.1-0.5-0.2-0.7c-0.1-0.2-0.3-0.4-0.5-0.5   s-0.5-0.2-0.8-0.3s-0.7-0.1-1.1-0.1c0,0-0.1,0-0.2,0c0.3,0.2,0.5,0.4,0.7,0.7s0.3,0.6,0.3,1c0,0.6-0.2,1.1-0.6,1.5   c-0.4,0.4-1,0.6-1.7,0.6s-1.3-0.2-1.7-0.6s-0.7-1-0.7-1.6c0-0.5,0.1-0.9,0.4-1.3c0.2-0.4,0.6-0.7,1.1-0.9s1.1-0.3,2-0.3   s1.6,0.1,2.2,0.3c0.5,0.2,1,0.5,1.2,0.9c0.3,0.4,0.4,0.8,0.4,1.4s-0.2,1-0.5,1.4S212,372.9,211.4,373z M208.2,369.4   c-0.5,0-0.9,0.1-1.2,0.4s-0.4,0.6-0.4,1s0.2,0.7,0.5,1s0.7,0.4,1.2,0.4s0.8-0.1,1.1-0.4s0.4-0.6,0.4-1s-0.1-0.7-0.4-1   S208.7,369.4,208.2,369.4z"></path>
	<path d="M211.4,367.4l-0.1-0.8c0.4-0.1,0.7-0.2,0.9-0.4c0.2-0.2,0.3-0.5,0.3-0.8s-0.1-0.5-0.2-0.7c-0.1-0.2-0.3-0.4-0.5-0.5   s-0.5-0.2-0.8-0.3s-0.7-0.1-1.1-0.1c0,0-0.1,0-0.2,0c0.3,0.2,0.5,0.4,0.7,0.7s0.3,0.6,0.3,1c0,0.6-0.2,1.1-0.6,1.5   c-0.4,0.4-1,0.6-1.7,0.6s-1.3-0.2-1.7-0.6s-0.7-1-0.7-1.6c0-0.5,0.1-0.9,0.4-1.3c0.2-0.4,0.6-0.7,1.1-0.9s1.1-0.3,2-0.3   s1.6,0.1,2.2,0.3c0.5,0.2,1,0.5,1.2,0.9c0.3,0.4,0.4,0.8,0.4,1.4s-0.2,1-0.5,1.4S212,367.4,211.4,367.4z M208.2,363.9   c-0.5,0-0.9,0.1-1.2,0.4s-0.4,0.6-0.4,1s0.2,0.7,0.5,1s0.7,0.4,1.2,0.4s0.8-0.1,1.1-0.4s0.4-0.6,0.4-1s-0.1-0.7-0.4-1   S208.7,363.9,208.2,363.9z"></path>
</g>
<g>
	<path d="M234.4,379.7h0.8v4.7c-0.2,0-0.4,0-0.6-0.1c-0.3-0.1-0.6-0.3-0.9-0.6c-0.3-0.3-0.7-0.6-1.1-1.1c-0.6-0.8-1.1-1.3-1.5-1.6   s-0.7-0.4-1.1-0.4c-0.3,0-0.6,0.1-0.9,0.4s-0.4,0.6-0.4,1s0.1,0.8,0.4,1s0.6,0.4,1.1,0.4l-0.1,0.9c-0.7-0.1-1.2-0.3-1.5-0.7   c-0.4-0.4-0.5-0.9-0.5-1.6s0.2-1.2,0.6-1.6s0.8-0.6,1.4-0.6c0.3,0,0.6,0.1,0.8,0.2c0.3,0.1,0.6,0.3,0.9,0.6   c0.3,0.3,0.7,0.7,1.3,1.3c0.4,0.5,0.7,0.9,0.9,1s0.3,0.3,0.5,0.4L234.4,379.7L234.4,379.7z"></path>
	<path d="M231.7,378.7c-0.8,0-1.5-0.1-2-0.3c-0.5-0.2-0.9-0.4-1.2-0.8c-0.3-0.3-0.4-0.8-0.4-1.3c0-0.4,0.1-0.7,0.2-1   c0.2-0.3,0.4-0.5,0.7-0.7s0.6-0.3,1.1-0.4c0.4-0.1,1-0.2,1.7-0.2c0.8,0,1.5,0.1,2,0.3c0.5,0.2,0.9,0.4,1.2,0.8   c0.3,0.3,0.4,0.8,0.4,1.3c0,0.7-0.2,1.2-0.7,1.6C234,378.5,233,378.7,231.7,378.7z M231.7,377.8c1.2,0,1.9-0.1,2.3-0.4   c0.4-0.3,0.6-0.6,0.6-1s-0.2-0.7-0.6-1s-1.2-0.4-2.3-0.4c-1.2,0-2,0.1-2.3,0.4s-0.6,0.6-0.6,1s0.2,0.7,0.5,1   C229.7,377.7,230.5,377.8,231.7,377.8z"></path>
	<path d="M231.7,373.1c-0.8,0-1.5-0.1-2-0.3c-0.5-0.2-0.9-0.4-1.2-0.8c-0.3-0.3-0.4-0.8-0.4-1.3c0-0.4,0.1-0.7,0.2-1   c0.2-0.3,0.4-0.5,0.7-0.7s0.6-0.3,1.1-0.4c0.4-0.1,1-0.2,1.7-0.2c0.8,0,1.5,0.1,2,0.3c0.5,0.2,0.9,0.4,1.2,0.8   c0.3,0.3,0.4,0.8,0.4,1.3c0,0.7-0.2,1.2-0.7,1.6C234,372.9,233,373.1,231.7,373.1z M231.7,372.2c1.2,0,1.9-0.1,2.3-0.4   c0.4-0.3,0.6-0.6,0.6-1s-0.2-0.7-0.6-1s-1.2-0.4-2.3-0.4c-1.2,0-2,0.1-2.3,0.4s-0.6,0.6-0.6,1s0.2,0.7,0.5,1   C229.7,372.1,230.5,372.2,231.7,372.2z"></path>
	<path d="M231.7,367.6c-0.8,0-1.5-0.1-2-0.3c-0.5-0.2-0.9-0.4-1.2-0.8c-0.3-0.3-0.4-0.8-0.4-1.3c0-0.4,0.1-0.7,0.2-1   c0.2-0.3,0.4-0.5,0.7-0.7s0.6-0.3,1.1-0.4c0.4-0.1,1-0.2,1.7-0.2c0.8,0,1.5,0.1,2,0.3c0.5,0.2,0.9,0.4,1.2,0.8   c0.3,0.3,0.4,0.8,0.4,1.3c0,0.7-0.2,1.2-0.7,1.6C234,367.3,233,367.6,231.7,367.6z M231.7,366.7c1.2,0,1.9-0.1,2.3-0.4   c0.4-0.3,0.6-0.6,0.6-1s-0.2-0.7-0.6-1s-1.2-0.4-2.3-0.4c-1.2,0-2,0.1-2.3,0.4s-0.6,0.6-0.6,1s0.2,0.7,0.5,1   C229.7,366.5,230.5,366.7,231.7,366.7z"></path>
</g>
<g>
	<path d="M256.5,379.7h0.8v4.7c-0.2,0-0.4,0-0.6-0.1c-0.3-0.1-0.6-0.3-0.9-0.6c-0.3-0.3-0.7-0.6-1.1-1.1c-0.6-0.8-1.1-1.3-1.5-1.6   s-0.7-0.4-1.1-0.4c-0.3,0-0.6,0.1-0.9,0.4s-0.4,0.6-0.4,1s0.1,0.8,0.4,1s0.6,0.4,1.1,0.4l-0.1,0.9c-0.7-0.1-1.2-0.3-1.5-0.7   c-0.4-0.4-0.5-0.9-0.5-1.6s0.2-1.2,0.6-1.6s0.8-0.6,1.4-0.6c0.3,0,0.6,0.1,0.8,0.2c0.3,0.1,0.6,0.3,0.9,0.6   c0.3,0.3,0.7,0.7,1.3,1.3c0.4,0.5,0.7,0.9,0.9,1c0.2,0.1,0.3,0.3,0.5,0.4L256.5,379.7L256.5,379.7z"></path>
	<path d="M253.8,378.7c-0.8,0-1.5-0.1-2-0.3c-0.5-0.2-0.9-0.4-1.2-0.8c-0.3-0.3-0.4-0.8-0.4-1.3c0-0.4,0.1-0.7,0.2-1   c0.2-0.3,0.4-0.5,0.7-0.7s0.6-0.3,1.1-0.4c0.4-0.1,1-0.2,1.7-0.2c0.8,0,1.5,0.1,2,0.3c0.5,0.2,0.9,0.4,1.2,0.8   c0.3,0.3,0.4,0.8,0.4,1.3c0,0.7-0.2,1.2-0.7,1.6C256.1,378.5,255.2,378.7,253.8,378.7z M253.8,377.8c1.2,0,1.9-0.1,2.3-0.4   c0.4-0.3,0.6-0.6,0.6-1s-0.2-0.7-0.6-1s-1.2-0.4-2.3-0.4c-1.2,0-2,0.1-2.3,0.4s-0.6,0.6-0.6,1s0.2,0.7,0.5,1   C251.9,377.7,252.7,377.8,253.8,377.8z"></path>
	<path d="M253.8,373.1c-0.8,0-1.5-0.1-2-0.3c-0.5-0.2-0.9-0.4-1.2-0.8c-0.3-0.3-0.4-0.8-0.4-1.3c0-0.4,0.1-0.7,0.2-1   c0.2-0.3,0.4-0.5,0.7-0.7s0.6-0.3,1.1-0.4c0.4-0.1,1-0.2,1.7-0.2c0.8,0,1.5,0.1,2,0.3c0.5,0.2,0.9,0.4,1.2,0.8   c0.3,0.3,0.4,0.8,0.4,1.3c0,0.7-0.2,1.2-0.7,1.6C256.1,372.9,255.2,373.1,253.8,373.1z M253.8,372.2c1.2,0,1.9-0.1,2.3-0.4   c0.4-0.3,0.6-0.6,0.6-1s-0.2-0.7-0.6-1s-1.2-0.4-2.3-0.4c-1.2,0-2,0.1-2.3,0.4s-0.6,0.6-0.6,1s0.2,0.7,0.5,1   C251.9,372.1,252.7,372.2,253.8,372.2z"></path>
	<path d="M257.4,364.3v0.9h-5.6c0.2,0.2,0.4,0.5,0.6,0.8s0.4,0.6,0.5,0.9H252c-0.2-0.5-0.5-0.9-0.8-1.3s-0.6-0.6-1-0.8v-0.6h7.2   V364.3z"></path>
</g>
<g>
	<path d="M278.7,379.7h0.8v4.7c-0.2,0-0.4,0-0.6-0.1c-0.3-0.1-0.6-0.3-0.9-0.6c-0.3-0.3-0.7-0.6-1.1-1.1c-0.6-0.8-1.1-1.3-1.5-1.6   s-0.7-0.4-1.1-0.4c-0.3,0-0.6,0.1-0.9,0.4s-0.4,0.6-0.4,1s0.1,0.8,0.4,1s0.6,0.4,1.1,0.4l-0.1,0.9c-0.7-0.1-1.2-0.3-1.5-0.7   c-0.4-0.4-0.5-0.9-0.5-1.6s0.2-1.2,0.6-1.6s0.8-0.6,1.4-0.6c0.3,0,0.6,0.1,0.8,0.2c0.3,0.1,0.6,0.3,0.9,0.6   c0.3,0.3,0.7,0.7,1.3,1.3c0.4,0.5,0.7,0.9,0.9,1s0.3,0.3,0.5,0.4L278.7,379.7L278.7,379.7z"></path>
	<path d="M276,378.7c-0.8,0-1.5-0.1-2-0.3c-0.5-0.2-0.9-0.4-1.2-0.8c-0.3-0.3-0.4-0.8-0.4-1.3c0-0.4,0.1-0.7,0.2-1   c0.2-0.3,0.4-0.5,0.7-0.7c0.3-0.2,0.6-0.3,1.1-0.4c0.4-0.1,1-0.2,1.7-0.2c0.8,0,1.5,0.1,2,0.3c0.5,0.2,0.9,0.4,1.2,0.8   c0.3,0.3,0.4,0.8,0.4,1.3c0,0.7-0.2,1.2-0.7,1.6C278.3,378.5,277.3,378.7,276,378.7z M276,377.8c1.2,0,1.9-0.1,2.3-0.4   s0.6-0.6,0.6-1s-0.2-0.7-0.6-1s-1.2-0.4-2.3-0.4c-1.2,0-2,0.1-2.3,0.4s-0.6,0.6-0.6,1s0.2,0.7,0.5,1   C274,377.7,274.8,377.8,276,377.8z"></path>
	<path d="M276,373.1c-0.8,0-1.5-0.1-2-0.3c-0.5-0.2-0.9-0.4-1.2-0.8c-0.3-0.3-0.4-0.8-0.4-1.3c0-0.4,0.1-0.7,0.2-1   c0.2-0.3,0.4-0.5,0.7-0.7c0.3-0.2,0.6-0.3,1.1-0.4c0.4-0.1,1-0.2,1.7-0.2c0.8,0,1.5,0.1,2,0.3c0.5,0.2,0.9,0.4,1.2,0.8   c0.3,0.3,0.4,0.8,0.4,1.3c0,0.7-0.2,1.2-0.7,1.6C278.3,372.9,277.3,373.1,276,373.1z M276,372.2c1.2,0,1.9-0.1,2.3-0.4   s0.6-0.6,0.6-1s-0.2-0.7-0.6-1s-1.2-0.4-2.3-0.4c-1.2,0-2,0.1-2.3,0.4s-0.6,0.6-0.6,1s0.2,0.7,0.5,1   C274,372.1,274.8,372.2,276,372.2z"></path>
	<path d="M278.7,363h0.8v4.7c-0.2,0-0.4,0-0.6-0.1c-0.3-0.1-0.6-0.3-0.9-0.6c-0.3-0.3-0.7-0.6-1.1-1.1c-0.6-0.8-1.1-1.3-1.5-1.6   s-0.7-0.4-1.1-0.4c-0.3,0-0.6,0.1-0.9,0.4s-0.4,0.6-0.4,1s0.1,0.8,0.4,1s0.6,0.4,1.1,0.4l-0.1,0.9c-0.7-0.1-1.2-0.3-1.5-0.7   c-0.4-0.4-0.5-0.9-0.5-1.6s0.2-1.2,0.6-1.6s0.8-0.6,1.4-0.6c0.3,0,0.6,0.1,0.8,0.2c0.3,0.1,0.6,0.3,0.9,0.6   c0.3,0.3,0.7,0.7,1.3,1.3c0.4,0.5,0.7,0.9,0.9,1s0.3,0.3,0.5,0.4L278.7,363L278.7,363z"></path>
</g>
<g>
	<path d="M300.8,379.7h0.8v4.7c-0.2,0-0.4,0-0.6-0.1c-0.3-0.1-0.6-0.3-0.9-0.6c-0.3-0.3-0.7-0.6-1.1-1.1c-0.6-0.8-1.1-1.3-1.5-1.6   s-0.7-0.4-1.1-0.4c-0.3,0-0.6,0.1-0.9,0.4s-0.4,0.6-0.4,1s0.1,0.8,0.4,1s0.6,0.4,1.1,0.4l-0.1,0.9c-0.7-0.1-1.2-0.3-1.5-0.7   c-0.4-0.4-0.5-0.9-0.5-1.6s0.2-1.2,0.6-1.6s0.8-0.6,1.4-0.6c0.3,0,0.6,0.1,0.8,0.2c0.3,0.1,0.6,0.3,0.9,0.6   c0.3,0.3,0.7,0.7,1.3,1.3c0.4,0.5,0.7,0.9,0.9,1s0.3,0.3,0.5,0.4L300.8,379.7L300.8,379.7z"></path>
	<path d="M298.2,378.7c-0.8,0-1.5-0.1-2-0.3c-0.5-0.2-0.9-0.4-1.2-0.8c-0.3-0.3-0.4-0.8-0.4-1.3c0-0.4,0.1-0.7,0.2-1   c0.2-0.3,0.4-0.5,0.7-0.7c0.3-0.2,0.6-0.3,1.1-0.4c0.4-0.1,1-0.2,1.7-0.2c0.8,0,1.5,0.1,2,0.3c0.5,0.2,0.9,0.4,1.2,0.8   c0.3,0.3,0.4,0.8,0.4,1.3c0,0.7-0.2,1.2-0.7,1.6C300.5,378.5,299.5,378.7,298.2,378.7z M298.2,377.8c1.2,0,1.9-0.1,2.3-0.4   s0.6-0.6,0.6-1s-0.2-0.7-0.6-1s-1.2-0.4-2.3-0.4c-1.2,0-2,0.1-2.3,0.4s-0.6,0.6-0.6,1s0.2,0.7,0.5,1   C296.2,377.7,297,377.8,298.2,377.8z"></path>
	<path d="M298.2,373.1c-0.8,0-1.5-0.1-2-0.3c-0.5-0.2-0.9-0.4-1.2-0.8c-0.3-0.3-0.4-0.8-0.4-1.3c0-0.4,0.1-0.7,0.2-1   c0.2-0.3,0.4-0.5,0.7-0.7c0.3-0.2,0.6-0.3,1.1-0.4c0.4-0.1,1-0.2,1.7-0.2c0.8,0,1.5,0.1,2,0.3c0.5,0.2,0.9,0.4,1.2,0.8   c0.3,0.3,0.4,0.8,0.4,1.3c0,0.7-0.2,1.2-0.7,1.6C300.5,372.9,299.5,373.1,298.2,373.1z M298.2,372.2c1.2,0,1.9-0.1,2.3-0.4   s0.6-0.6,0.6-1s-0.2-0.7-0.6-1s-1.2-0.4-2.3-0.4c-1.2,0-2,0.1-2.3,0.4s-0.6,0.6-0.6,1s0.2,0.7,0.5,1   C296.2,372.1,297,372.2,298.2,372.2z"></path>
	<path d="M299.8,367.6l-0.1-0.9c0.5-0.1,0.9-0.3,1.1-0.5s0.3-0.5,0.3-0.9s-0.1-0.8-0.4-1c-0.3-0.3-0.6-0.4-1.1-0.4   c-0.4,0-0.7,0.1-1,0.4s-0.4,0.6-0.4,1c0,0.2,0,0.4,0.1,0.6l-0.8-0.1c0-0.1,0-0.1,0-0.1c0-0.4-0.1-0.7-0.3-1   c-0.2-0.3-0.5-0.4-0.9-0.4c-0.3,0-0.6,0.1-0.8,0.3c-0.2,0.2-0.3,0.5-0.3,0.8s0.1,0.6,0.3,0.9c0.2,0.2,0.5,0.4,1,0.4l-0.2,0.9   c-0.6-0.1-1-0.3-1.4-0.7c-0.3-0.4-0.5-0.9-0.5-1.4c0-0.4,0.1-0.7,0.3-1.1c0.2-0.3,0.4-0.6,0.7-0.8s0.6-0.3,0.9-0.3s0.6,0.1,0.8,0.2   c0.3,0.2,0.5,0.4,0.6,0.7c0.1-0.4,0.3-0.7,0.6-1c0.3-0.2,0.7-0.3,1.1-0.3c0.6,0,1.2,0.2,1.6,0.7s0.6,1,0.6,1.7   c0,0.6-0.2,1.1-0.6,1.6C300.9,367.3,300.4,367.5,299.8,367.6z"></path>
</g>
<g>
	<path d="M323,379.7h0.8v4.7c-0.2,0-0.4,0-0.6-0.1c-0.3-0.1-0.6-0.3-0.9-0.6c-0.3-0.3-0.7-0.6-1.1-1.1c-0.6-0.8-1.1-1.3-1.5-1.6   s-0.7-0.4-1.1-0.4c-0.3,0-0.6,0.1-0.9,0.4s-0.4,0.6-0.4,1s0.1,0.8,0.4,1s0.6,0.4,1.1,0.4l-0.1,0.9c-0.7-0.1-1.2-0.3-1.5-0.7   c-0.4-0.4-0.5-0.9-0.5-1.6s0.2-1.2,0.6-1.6s0.8-0.6,1.4-0.6c0.3,0,0.6,0.1,0.8,0.2c0.3,0.1,0.6,0.3,0.9,0.6   c0.3,0.3,0.7,0.7,1.3,1.3c0.4,0.5,0.7,0.9,0.9,1s0.3,0.3,0.5,0.4L323,379.7L323,379.7z"></path>
	<path d="M320.3,378.7c-0.8,0-1.5-0.1-2-0.3c-0.5-0.2-0.9-0.4-1.2-0.8c-0.3-0.3-0.4-0.8-0.4-1.3c0-0.4,0.1-0.7,0.2-1   c0.2-0.3,0.4-0.5,0.7-0.7c0.3-0.2,0.6-0.3,1.1-0.4c0.4-0.1,1-0.2,1.7-0.2c0.8,0,1.5,0.1,2,0.3c0.5,0.2,0.9,0.4,1.2,0.8   c0.3,0.3,0.4,0.8,0.4,1.3c0,0.7-0.2,1.2-0.7,1.6C322.6,378.5,321.7,378.7,320.3,378.7z M320.3,377.8c1.2,0,1.9-0.1,2.3-0.4   s0.6-0.6,0.6-1s-0.2-0.7-0.6-1s-1.2-0.4-2.3-0.4c-1.2,0-2,0.1-2.3,0.4s-0.6,0.6-0.6,1s0.2,0.7,0.5,1   C318.3,377.7,319.1,377.8,320.3,377.8z"></path>
	<path d="M320.3,373.1c-0.8,0-1.5-0.1-2-0.3c-0.5-0.2-0.9-0.4-1.2-0.8c-0.3-0.3-0.4-0.8-0.4-1.3c0-0.4,0.1-0.7,0.2-1   c0.2-0.3,0.4-0.5,0.7-0.7c0.3-0.2,0.6-0.3,1.1-0.4c0.4-0.1,1-0.2,1.7-0.2c0.8,0,1.5,0.1,2,0.3c0.5,0.2,0.9,0.4,1.2,0.8   c0.3,0.3,0.4,0.8,0.4,1.3c0,0.7-0.2,1.2-0.7,1.6C322.6,372.9,321.7,373.1,320.3,373.1z M320.3,372.2c1.2,0,1.9-0.1,2.3-0.4   s0.6-0.6,0.6-1s-0.2-0.7-0.6-1s-1.2-0.4-2.3-0.4c-1.2,0-2,0.1-2.3,0.4s-0.6,0.6-0.6,1s0.2,0.7,0.5,1   C318.3,372.1,319.1,372.2,320.3,372.2z"></path>
	<path d="M323.8,364.8h-1.7v3.1h-0.8l-4.6-3.3v-0.7h4.6v-1h0.8v1h1.7V364.8z M321.3,364.8h-3.2l3.2,2.2V364.8z"></path>
</g>
<g>
	<path d="M345.2,379.7h0.8v4.7c-0.2,0-0.4,0-0.6-0.1c-0.3-0.1-0.6-0.3-0.9-0.6c-0.3-0.3-0.7-0.6-1.1-1.1c-0.6-0.8-1.1-1.3-1.5-1.6   s-0.7-0.4-1.1-0.4c-0.3,0-0.6,0.1-0.9,0.4s-0.4,0.6-0.4,1s0.1,0.8,0.4,1s0.6,0.4,1.1,0.4l-0.1,0.9c-0.7-0.1-1.2-0.3-1.5-0.7   c-0.4-0.4-0.5-0.9-0.5-1.6s0.2-1.2,0.6-1.6s0.8-0.6,1.4-0.6c0.3,0,0.6,0.1,0.8,0.2c0.3,0.1,0.6,0.3,0.9,0.6   c0.3,0.3,0.7,0.7,1.3,1.3c0.4,0.5,0.7,0.9,0.9,1s0.3,0.3,0.5,0.4L345.2,379.7L345.2,379.7z"></path>
	<path d="M342.5,378.7c-0.8,0-1.5-0.1-2-0.3c-0.5-0.2-0.9-0.4-1.2-0.8c-0.3-0.3-0.4-0.8-0.4-1.3c0-0.4,0.1-0.7,0.2-1   c0.2-0.3,0.4-0.5,0.7-0.7c0.3-0.2,0.6-0.3,1.1-0.4c0.4-0.1,1-0.2,1.7-0.2c0.8,0,1.5,0.1,2,0.3c0.5,0.2,0.9,0.4,1.2,0.8   c0.3,0.3,0.4,0.8,0.4,1.3c0,0.7-0.2,1.2-0.7,1.6C344.8,378.5,343.8,378.7,342.5,378.7z M342.5,377.8c1.2,0,1.9-0.1,2.3-0.4   s0.6-0.6,0.6-1s-0.2-0.7-0.6-1s-1.2-0.4-2.3-0.4c-1.2,0-2,0.1-2.3,0.4s-0.6,0.6-0.6,1s0.2,0.7,0.5,1   C340.5,377.7,341.3,377.8,342.5,377.8z"></path>
	<path d="M342.5,373.1c-0.8,0-1.5-0.1-2-0.3c-0.5-0.2-0.9-0.4-1.2-0.8c-0.3-0.3-0.4-0.8-0.4-1.3c0-0.4,0.1-0.7,0.2-1   c0.2-0.3,0.4-0.5,0.7-0.7c0.3-0.2,0.6-0.3,1.1-0.4c0.4-0.1,1-0.2,1.7-0.2c0.8,0,1.5,0.1,2,0.3c0.5,0.2,0.9,0.4,1.2,0.8   c0.3,0.3,0.4,0.8,0.4,1.3c0,0.7-0.2,1.2-0.7,1.6C344.8,372.9,343.8,373.1,342.5,373.1z M342.5,372.2c1.2,0,1.9-0.1,2.3-0.4   s0.6-0.6,0.6-1s-0.2-0.7-0.6-1s-1.2-0.4-2.3-0.4c-1.2,0-2,0.1-2.3,0.4s-0.6,0.6-0.6,1s0.2,0.7,0.5,1   C340.5,372.1,341.3,372.2,342.5,372.2z"></path>
	<path d="M344.1,367.6l-0.1-0.9c0.4-0.1,0.8-0.2,1-0.5c0.2-0.2,0.3-0.5,0.3-0.9s-0.2-0.8-0.5-1.1c-0.3-0.3-0.7-0.4-1.3-0.4   c-0.5,0-0.9,0.1-1.2,0.4s-0.4,0.6-0.4,1.1c0,0.3,0.1,0.5,0.2,0.8s0.3,0.4,0.5,0.5l-0.1,0.8l-3.7-0.7v-3.5h0.8v2.8l1.9,0.4   c-0.3-0.4-0.4-0.9-0.4-1.3c0-0.6,0.2-1.1,0.6-1.6c0.4-0.4,1-0.6,1.7-0.6c0.6,0,1.2,0.2,1.7,0.6c0.6,0.5,0.9,1.1,0.9,1.9   c0,0.6-0.2,1.2-0.5,1.6C345.2,367.3,344.7,367.5,344.1,367.6z"></path>
</g>
<g>
	<path d="M367.3,379.7h0.8v4.7c-0.2,0-0.4,0-0.6-0.1c-0.3-0.1-0.6-0.3-0.9-0.6c-0.3-0.3-0.7-0.6-1.1-1.1c-0.6-0.8-1.1-1.3-1.5-1.6   c-0.4-0.3-0.7-0.4-1.1-0.4c-0.3,0-0.6,0.1-0.9,0.4c-0.2,0.2-0.4,0.6-0.4,1s0.1,0.8,0.4,1s0.6,0.4,1.1,0.4l-0.1,0.9   c-0.7-0.1-1.2-0.3-1.5-0.7c-0.4-0.4-0.5-0.9-0.5-1.6s0.2-1.2,0.6-1.6s0.8-0.6,1.4-0.6c0.3,0,0.6,0.1,0.8,0.2   c0.3,0.1,0.6,0.3,0.9,0.6s0.7,0.7,1.3,1.3c0.4,0.5,0.7,0.9,0.9,1s0.3,0.3,0.5,0.4L367.3,379.7L367.3,379.7z"></path>
	<path d="M364.6,378.7c-0.8,0-1.5-0.1-2-0.3c-0.5-0.2-0.9-0.4-1.2-0.8c-0.3-0.3-0.4-0.8-0.4-1.3c0-0.4,0.1-0.7,0.2-1   c0.2-0.3,0.4-0.5,0.7-0.7c0.3-0.2,0.6-0.3,1.1-0.4c0.4-0.1,1-0.2,1.7-0.2c0.8,0,1.5,0.1,2,0.3c0.5,0.2,0.9,0.4,1.2,0.8   s0.4,0.8,0.4,1.3c0,0.7-0.2,1.2-0.7,1.6C366.9,378.5,366,378.7,364.6,378.7z M364.6,377.8c1.2,0,2-0.1,2.3-0.4   c0.4-0.3,0.6-0.6,0.6-1s-0.2-0.7-0.6-1s-1.2-0.4-2.3-0.4c-1.2,0-2,0.1-2.3,0.4s-0.6,0.6-0.6,1s0.2,0.7,0.5,1   C362.7,377.7,363.5,377.8,364.6,377.8z"></path>
	<path d="M364.6,373.1c-0.8,0-1.5-0.1-2-0.3c-0.5-0.2-0.9-0.4-1.2-0.8c-0.3-0.3-0.4-0.8-0.4-1.3c0-0.4,0.1-0.7,0.2-1   c0.2-0.3,0.4-0.5,0.7-0.7c0.3-0.2,0.6-0.3,1.1-0.4c0.4-0.1,1-0.2,1.7-0.2c0.8,0,1.5,0.1,2,0.3c0.5,0.2,0.9,0.4,1.2,0.8   s0.4,0.8,0.4,1.3c0,0.7-0.2,1.2-0.7,1.6C366.9,372.9,366,373.1,364.6,373.1z M364.6,372.2c1.2,0,2-0.1,2.3-0.4   c0.4-0.3,0.6-0.6,0.6-1s-0.2-0.7-0.6-1s-1.2-0.4-2.3-0.4c-1.2,0-2,0.1-2.3,0.4s-0.6,0.6-0.6,1s0.2,0.7,0.5,1   C362.7,372.1,363.5,372.2,364.6,372.2z"></path>
	<path d="M362.8,363l0.1,0.9c-0.3,0.1-0.6,0.2-0.7,0.3c-0.3,0.2-0.4,0.5-0.4,0.9c0,0.3,0.1,0.5,0.2,0.7c0.2,0.3,0.5,0.5,0.9,0.7   s0.9,0.2,1.6,0.2c-0.3-0.2-0.6-0.5-0.7-0.8s-0.2-0.6-0.2-1c0-0.6,0.2-1.1,0.6-1.5s1-0.6,1.7-0.6c0.4,0,0.9,0.1,1.2,0.3   c0.4,0.2,0.7,0.5,0.9,0.8c0.2,0.3,0.3,0.7,0.3,1.1c0,0.7-0.3,1.3-0.8,1.8s-1.4,0.7-2.7,0.7c-1.4,0-2.4-0.3-3-0.8   c-0.5-0.4-0.8-1-0.8-1.8c0-0.6,0.2-1,0.5-1.4C361.8,363.3,362.2,363.1,362.8,363z M365.8,366.6c0.3,0,0.6-0.1,0.9-0.2   s0.5-0.3,0.6-0.5s0.2-0.5,0.2-0.7c0-0.4-0.1-0.7-0.4-1s-0.7-0.4-1.2-0.4s-0.9,0.1-1.2,0.4c-0.3,0.3-0.4,0.6-0.4,1s0.1,0.7,0.4,1   C365,366.5,365.4,366.6,365.8,366.6z"></path>
</g>
<g>
	<path d="M389.5,379.7h0.8v4.7c-0.2,0-0.4,0-0.6-0.1c-0.3-0.1-0.6-0.3-0.9-0.6c-0.3-0.3-0.7-0.6-1.1-1.1c-0.6-0.8-1.1-1.3-1.5-1.6   c-0.4-0.3-0.7-0.4-1.1-0.4c-0.3,0-0.6,0.1-0.9,0.4c-0.2,0.2-0.4,0.6-0.4,1s0.1,0.8,0.4,1s0.6,0.4,1.1,0.4l-0.1,0.9   c-0.7-0.1-1.2-0.3-1.5-0.7c-0.4-0.4-0.5-0.9-0.5-1.6s0.2-1.2,0.6-1.6s0.8-0.6,1.4-0.6c0.3,0,0.6,0.1,0.8,0.2   c0.3,0.1,0.6,0.3,0.9,0.6s0.7,0.7,1.3,1.3c0.4,0.5,0.7,0.9,0.9,1s0.3,0.3,0.5,0.4L389.5,379.7L389.5,379.7z"></path>
	<path d="M386.8,378.7c-0.8,0-1.5-0.1-2-0.3c-0.5-0.2-0.9-0.4-1.2-0.8c-0.3-0.3-0.4-0.8-0.4-1.3c0-0.4,0.1-0.7,0.2-1   c0.2-0.3,0.4-0.5,0.7-0.7c0.3-0.2,0.6-0.3,1.1-0.4c0.4-0.1,1-0.2,1.7-0.2c0.8,0,1.5,0.1,2,0.3c0.5,0.2,0.9,0.4,1.2,0.8   s0.4,0.8,0.4,1.3c0,0.7-0.2,1.2-0.7,1.6C389.1,378.5,388.1,378.7,386.8,378.7z M386.8,377.8c1.2,0,2-0.1,2.3-0.4   c0.4-0.3,0.6-0.6,0.6-1s-0.2-0.7-0.6-1s-1.2-0.4-2.3-0.4c-1.2,0-2,0.1-2.3,0.4s-0.6,0.6-0.6,1s0.2,0.7,0.5,1   C384.8,377.7,385.6,377.8,386.8,377.8z"></path>
	<path d="M386.8,373.1c-0.8,0-1.5-0.1-2-0.3c-0.5-0.2-0.9-0.4-1.2-0.8c-0.3-0.3-0.4-0.8-0.4-1.3c0-0.4,0.1-0.7,0.2-1   c0.2-0.3,0.4-0.5,0.7-0.7c0.3-0.2,0.6-0.3,1.1-0.4c0.4-0.1,1-0.2,1.7-0.2c0.8,0,1.5,0.1,2,0.3c0.5,0.2,0.9,0.4,1.2,0.8   s0.4,0.8,0.4,1.3c0,0.7-0.2,1.2-0.7,1.6C389.1,372.9,388.1,373.1,386.8,373.1z M386.8,372.2c1.2,0,2-0.1,2.3-0.4   c0.4-0.3,0.6-0.6,0.6-1s-0.2-0.7-0.6-1s-1.2-0.4-2.3-0.4c-1.2,0-2,0.1-2.3,0.4s-0.6,0.6-0.6,1s0.2,0.7,0.5,1   C384.8,372.1,385.6,372.2,386.8,372.2z"></path>
	<path d="M384.1,367.5h-0.8v-4.6h0.7c0.5,0.5,1.1,0.9,1.9,1.3s1.6,0.8,2.5,1c0.6,0.2,1.3,0.3,2,0.3v0.9c-0.6,0-1.2-0.1-2-0.3   c-0.8-0.2-1.6-0.5-2.3-0.9c-0.7-0.4-1.4-0.8-1.9-1.3v3.6H384.1z"></path>
</g>
<g>
	<path d="M411.6,379.7h0.8v4.7c-0.2,0-0.4,0-0.6-0.1c-0.3-0.1-0.6-0.3-0.9-0.6c-0.3-0.3-0.7-0.6-1.1-1.1c-0.6-0.8-1.1-1.3-1.5-1.6   c-0.4-0.3-0.7-0.4-1.1-0.4c-0.3,0-0.6,0.1-0.9,0.4c-0.2,0.2-0.4,0.6-0.4,1s0.1,0.8,0.4,1s0.6,0.4,1.1,0.4l-0.1,0.9   c-0.7-0.1-1.2-0.3-1.5-0.7c-0.4-0.4-0.5-0.9-0.5-1.6s0.2-1.2,0.6-1.6s0.8-0.6,1.4-0.6c0.3,0,0.6,0.1,0.8,0.2   c0.3,0.1,0.6,0.3,0.9,0.6s0.7,0.7,1.3,1.3c0.4,0.5,0.7,0.9,0.9,1s0.3,0.3,0.5,0.4L411.6,379.7L411.6,379.7z"></path>
	<path d="M408.9,378.7c-0.8,0-1.5-0.1-2-0.3c-0.5-0.2-0.9-0.4-1.2-0.8c-0.3-0.3-0.4-0.8-0.4-1.3c0-0.4,0.1-0.7,0.2-1   c0.2-0.3,0.4-0.5,0.7-0.7c0.3-0.2,0.6-0.3,1.1-0.4c0.4-0.1,1-0.2,1.7-0.2c0.8,0,1.5,0.1,2,0.3c0.5,0.2,0.9,0.4,1.2,0.8   s0.4,0.8,0.4,1.3c0,0.7-0.2,1.2-0.7,1.6C411.3,378.5,410.3,378.7,408.9,378.7z M408.9,377.8c1.2,0,2-0.1,2.3-0.4   c0.4-0.3,0.6-0.6,0.6-1s-0.2-0.7-0.6-1s-1.2-0.4-2.3-0.4c-1.2,0-2,0.1-2.3,0.4s-0.6,0.6-0.6,1s0.2,0.7,0.5,1   C407,377.7,407.8,377.8,408.9,377.8z"></path>
	<path d="M408.9,373.1c-0.8,0-1.5-0.1-2-0.3c-0.5-0.2-0.9-0.4-1.2-0.8c-0.3-0.3-0.4-0.8-0.4-1.3c0-0.4,0.1-0.7,0.2-1   c0.2-0.3,0.4-0.5,0.7-0.7c0.3-0.2,0.6-0.3,1.1-0.4c0.4-0.1,1-0.2,1.7-0.2c0.8,0,1.5,0.1,2,0.3c0.5,0.2,0.9,0.4,1.2,0.8   s0.4,0.8,0.4,1.3c0,0.7-0.2,1.2-0.7,1.6C411.3,372.9,410.3,373.1,408.9,373.1z M408.9,372.2c1.2,0,2-0.1,2.3-0.4   c0.4-0.3,0.6-0.6,0.6-1s-0.2-0.7-0.6-1s-1.2-0.4-2.3-0.4c-1.2,0-2,0.1-2.3,0.4s-0.6,0.6-0.6,1s0.2,0.7,0.5,1   C407,372.1,407.8,372.2,408.9,372.2z"></path>
	<path d="M408.6,366.2c-0.1,0.4-0.3,0.6-0.6,0.8c-0.2,0.2-0.5,0.3-0.9,0.3c-0.5,0-1-0.2-1.3-0.6s-0.5-0.9-0.5-1.5s0.2-1.1,0.5-1.5   c0.4-0.4,0.8-0.6,1.3-0.6c0.3,0,0.6,0.1,0.9,0.3c0.2,0.2,0.4,0.4,0.6,0.8c0.1-0.4,0.4-0.8,0.7-1s0.7-0.3,1.1-0.3   c0.6,0,1.1,0.2,1.5,0.6s0.6,1,0.6,1.7s-0.2,1.3-0.6,1.7c-0.4,0.4-0.9,0.6-1.6,0.6c-0.5,0-0.9-0.1-1.2-0.4   C408.9,367,408.7,366.7,408.6,366.2z M407.1,366.4c0.3,0,0.6-0.1,0.8-0.3c0.2-0.2,0.3-0.5,0.3-0.8s-0.1-0.6-0.3-0.8   c-0.2-0.2-0.5-0.3-0.8-0.3s-0.6,0.1-0.8,0.3c-0.2,0.2-0.3,0.5-0.3,0.8s0.1,0.6,0.3,0.8S406.8,366.4,407.1,366.4z M410.4,366.7   c0.3,0,0.5-0.1,0.7-0.2s0.4-0.3,0.5-0.5s0.2-0.5,0.2-0.8c0-0.4-0.1-0.8-0.4-1c-0.3-0.3-0.6-0.4-1-0.4s-0.8,0.1-1,0.4   c-0.3,0.3-0.4,0.6-0.4,1.1c0,0.4,0.1,0.8,0.4,1C409.7,366.5,410,366.7,410.4,366.7z"></path>
</g>
<g>
	<path d="M433.8,379.7h0.8v4.7c-0.2,0-0.4,0-0.6-0.1c-0.3-0.1-0.6-0.3-0.9-0.6c-0.3-0.3-0.7-0.6-1.1-1.1c-0.6-0.8-1.1-1.3-1.5-1.6   c-0.4-0.3-0.7-0.4-1.1-0.4c-0.3,0-0.6,0.1-0.9,0.4c-0.2,0.2-0.4,0.6-0.4,1s0.1,0.8,0.4,1s0.6,0.4,1.1,0.4l-0.1,0.9   c-0.7-0.1-1.2-0.3-1.5-0.7c-0.4-0.4-0.5-0.9-0.5-1.6s0.2-1.2,0.6-1.6s0.8-0.6,1.4-0.6c0.3,0,0.6,0.1,0.8,0.2   c0.3,0.1,0.6,0.3,0.9,0.6s0.7,0.7,1.3,1.3c0.4,0.5,0.7,0.9,0.9,1s0.3,0.3,0.5,0.4L433.8,379.7L433.8,379.7z"></path>
	<path d="M431.1,378.7c-0.8,0-1.5-0.1-2-0.3c-0.5-0.2-0.9-0.4-1.2-0.8c-0.3-0.3-0.4-0.8-0.4-1.3c0-0.4,0.1-0.7,0.2-1   c0.2-0.3,0.4-0.5,0.7-0.7c0.3-0.2,0.6-0.3,1.1-0.4c0.4-0.1,1-0.2,1.7-0.2c0.8,0,1.5,0.1,2,0.3c0.5,0.2,0.9,0.4,1.2,0.8   s0.4,0.8,0.4,1.3c0,0.7-0.2,1.2-0.7,1.6C433.4,378.5,432.4,378.7,431.1,378.7z M431.1,377.8c1.2,0,2-0.1,2.3-0.4   c0.4-0.3,0.6-0.6,0.6-1s-0.2-0.7-0.6-1s-1.2-0.4-2.3-0.4c-1.2,0-2,0.1-2.3,0.4s-0.6,0.6-0.6,1s0.2,0.7,0.5,1   C429.1,377.7,429.9,377.8,431.1,377.8z"></path>
	<path d="M431.1,373.1c-0.8,0-1.5-0.1-2-0.3c-0.5-0.2-0.9-0.4-1.2-0.8c-0.3-0.3-0.4-0.8-0.4-1.3c0-0.4,0.1-0.7,0.2-1   c0.2-0.3,0.4-0.5,0.7-0.7c0.3-0.2,0.6-0.3,1.1-0.4c0.4-0.1,1-0.2,1.7-0.2c0.8,0,1.5,0.1,2,0.3c0.5,0.2,0.9,0.4,1.2,0.8   s0.4,0.8,0.4,1.3c0,0.7-0.2,1.2-0.7,1.6C433.4,372.9,432.4,373.1,431.1,373.1z M431.1,372.2c1.2,0,2-0.1,2.3-0.4   c0.4-0.3,0.6-0.6,0.6-1s-0.2-0.7-0.6-1s-1.2-0.4-2.3-0.4c-1.2,0-2,0.1-2.3,0.4s-0.6,0.6-0.6,1s0.2,0.7,0.5,1   C429.1,372.1,429.9,372.2,431.1,372.2z"></path>
	<path d="M433,367.4l-0.1-0.8c0.4-0.1,0.7-0.2,0.9-0.4c0.2-0.2,0.3-0.5,0.3-0.8s-0.1-0.5-0.2-0.7s-0.3-0.4-0.5-0.5s-0.5-0.2-0.8-0.3   c-0.4-0.1-0.7-0.1-1.1-0.1c0,0-0.1,0-0.2,0c0.3,0.2,0.5,0.4,0.7,0.7c0.2,0.3,0.3,0.6,0.3,1c0,0.6-0.2,1.1-0.6,1.5s-1,0.6-1.7,0.6   s-1.3-0.2-1.7-0.6c-0.4-0.4-0.7-1-0.7-1.6c0-0.5,0.1-0.9,0.4-1.3s0.6-0.7,1.1-0.9s1.1-0.3,2-0.3s1.6,0.1,2.2,0.3   c0.5,0.2,1,0.5,1.2,0.9s0.4,0.8,0.4,1.4s-0.2,1-0.5,1.4S433.5,367.4,433,367.4z M429.8,363.9c-0.5,0-0.9,0.1-1.2,0.4   s-0.4,0.6-0.4,1s0.2,0.7,0.5,1s0.7,0.4,1.2,0.4s0.8-0.1,1.1-0.4c0.3-0.3,0.4-0.6,0.4-1s-0.1-0.7-0.4-1S430.3,363.9,429.8,363.9z"></path>
</g>
<g>
	<path d="M455.9,379.7h0.8v4.7c-0.2,0-0.4,0-0.6-0.1c-0.3-0.1-0.6-0.3-0.9-0.6c-0.3-0.3-0.7-0.6-1.1-1.1c-0.6-0.8-1.1-1.3-1.5-1.6   c-0.4-0.3-0.7-0.4-1.1-0.4c-0.3,0-0.6,0.1-0.9,0.4c-0.2,0.2-0.4,0.6-0.4,1s0.1,0.8,0.4,1s0.6,0.4,1.1,0.4l-0.1,0.9   c-0.7-0.1-1.2-0.3-1.5-0.7c-0.4-0.4-0.5-0.9-0.5-1.6s0.2-1.2,0.6-1.6s0.8-0.6,1.4-0.6c0.3,0,0.6,0.1,0.8,0.2   c0.3,0.1,0.6,0.3,0.9,0.6s0.7,0.7,1.3,1.3c0.4,0.5,0.7,0.9,0.9,1s0.3,0.3,0.5,0.4L455.9,379.7L455.9,379.7z"></path>
	<path d="M453.3,378.7c-0.8,0-1.5-0.1-2-0.3c-0.5-0.2-0.9-0.4-1.2-0.8c-0.3-0.3-0.4-0.8-0.4-1.3c0-0.4,0.1-0.7,0.2-1   c0.2-0.3,0.4-0.5,0.7-0.7c0.3-0.2,0.6-0.3,1.1-0.4c0.4-0.1,1-0.2,1.7-0.2c0.8,0,1.5,0.1,2,0.3c0.5,0.2,0.9,0.4,1.2,0.8   s0.4,0.8,0.4,1.3c0,0.7-0.2,1.2-0.7,1.6C455.6,378.5,454.6,378.7,453.3,378.7z M453.3,377.8c1.2,0,2-0.1,2.3-0.4   c0.4-0.3,0.6-0.6,0.6-1s-0.2-0.7-0.6-1s-1.2-0.4-2.3-0.4c-1.2,0-2,0.1-2.3,0.4s-0.6,0.6-0.6,1s0.2,0.7,0.5,1   C451.3,377.7,452.1,377.8,453.3,377.8z"></path>
	<path d="M456.8,369.8v0.9h-5.6c0.2,0.2,0.4,0.5,0.6,0.8s0.4,0.6,0.5,0.9h-0.8c-0.2-0.5-0.5-0.9-0.8-1.3s-0.6-0.6-1-0.8v-0.6h7.1   V369.8z"></path>
	<path d="M453.3,367.6c-0.8,0-1.5-0.1-2-0.3c-0.5-0.2-0.9-0.4-1.2-0.8c-0.3-0.3-0.4-0.8-0.4-1.3c0-0.4,0.1-0.7,0.2-1   c0.2-0.3,0.4-0.5,0.7-0.7c0.3-0.2,0.6-0.3,1.1-0.4c0.4-0.1,1-0.2,1.7-0.2c0.8,0,1.5,0.1,2,0.3c0.5,0.2,0.9,0.4,1.2,0.8   s0.4,0.8,0.4,1.3c0,0.7-0.2,1.2-0.7,1.6C455.6,367.3,454.6,367.6,453.3,367.6z M453.3,366.7c1.2,0,2-0.1,2.3-0.4   c0.4-0.3,0.6-0.6,0.6-1s-0.2-0.7-0.6-1s-1.2-0.4-2.3-0.4c-1.2,0-2,0.1-2.3,0.4s-0.6,0.6-0.6,1s0.2,0.7,0.5,1   C451.3,366.5,452.1,366.7,453.3,366.7z"></path>
</g>
<g>
	<path d="M478.1,379.7h0.8v4.7c-0.2,0-0.4,0-0.6-0.1c-0.3-0.1-0.6-0.3-0.9-0.6c-0.3-0.3-0.7-0.6-1.1-1.1c-0.6-0.8-1.1-1.3-1.5-1.6   c-0.4-0.3-0.7-0.4-1.1-0.4c-0.3,0-0.6,0.1-0.9,0.4c-0.2,0.2-0.4,0.6-0.4,1s0.1,0.8,0.4,1s0.6,0.4,1.1,0.4l-0.1,0.9   c-0.7-0.1-1.2-0.3-1.5-0.7c-0.4-0.4-0.5-0.9-0.5-1.6s0.2-1.2,0.6-1.6s0.8-0.6,1.4-0.6c0.3,0,0.6,0.1,0.8,0.2   c0.3,0.1,0.6,0.3,0.9,0.6s0.7,0.7,1.3,1.3c0.4,0.5,0.7,0.9,0.9,1s0.3,0.3,0.5,0.4L478.1,379.7L478.1,379.7z"></path>
	<path d="M475.4,378.7c-0.8,0-1.5-0.1-2-0.3c-0.5-0.2-0.9-0.4-1.2-0.8c-0.3-0.3-0.4-0.8-0.4-1.3c0-0.4,0.1-0.7,0.2-1   c0.2-0.3,0.4-0.5,0.7-0.7c0.3-0.2,0.6-0.3,1.1-0.4c0.4-0.1,1-0.2,1.7-0.2c0.8,0,1.5,0.1,2,0.3c0.5,0.2,0.9,0.4,1.2,0.8   s0.4,0.8,0.4,1.3c0,0.7-0.2,1.2-0.7,1.6C477.7,378.5,476.8,378.7,475.4,378.7z M475.4,377.8c1.2,0,2-0.1,2.3-0.4   c0.4-0.3,0.6-0.6,0.6-1s-0.2-0.7-0.6-1s-1.2-0.4-2.3-0.4c-1.2,0-2,0.1-2.3,0.4s-0.6,0.6-0.6,1s0.2,0.7,0.5,1   C473.4,377.7,474.3,377.8,475.4,377.8z"></path>
	<path d="M478.9,369.8v0.9h-5.6c0.2,0.2,0.4,0.5,0.6,0.8s0.4,0.6,0.5,0.9h-0.8c-0.2-0.5-0.5-0.9-0.8-1.3s-0.6-0.6-1-0.8v-0.6h7.1   V369.8z"></path>
	<path d="M478.9,364.3v0.9h-5.6c0.2,0.2,0.4,0.5,0.6,0.8s0.4,0.6,0.5,0.9h-0.8c-0.2-0.5-0.5-0.9-0.8-1.3s-0.6-0.6-1-0.8v-0.6h7.1   V364.3z"></path>
</g>
<g>
	<path d="M500.3,379.7h0.8v4.7c-0.2,0-0.4,0-0.6-0.1c-0.3-0.1-0.6-0.3-0.9-0.6c-0.3-0.3-0.7-0.6-1.1-1.1c-0.6-0.8-1.1-1.3-1.5-1.6   c-0.4-0.3-0.7-0.4-1.1-0.4c-0.3,0-0.6,0.1-0.9,0.4c-0.2,0.2-0.4,0.6-0.4,1s0.1,0.8,0.4,1s0.6,0.4,1.1,0.4l-0.1,0.9   c-0.7-0.1-1.2-0.3-1.5-0.7c-0.4-0.4-0.5-0.9-0.5-1.6s0.2-1.2,0.6-1.6s0.8-0.6,1.4-0.6c0.3,0,0.6,0.1,0.8,0.2   c0.3,0.1,0.6,0.3,0.9,0.6s0.7,0.7,1.3,1.3c0.4,0.5,0.7,0.9,0.9,1s0.3,0.3,0.5,0.4L500.3,379.7L500.3,379.7z"></path>
	<path d="M497.6,378.7c-0.8,0-1.5-0.1-2-0.3c-0.5-0.2-0.9-0.4-1.2-0.8c-0.3-0.3-0.4-0.8-0.4-1.3c0-0.4,0.1-0.7,0.2-1   c0.2-0.3,0.4-0.5,0.7-0.7c0.3-0.2,0.6-0.3,1.1-0.4c0.4-0.1,1-0.2,1.7-0.2c0.8,0,1.5,0.1,2,0.3c0.5,0.2,0.9,0.4,1.2,0.8   s0.4,0.8,0.4,1.3c0,0.7-0.2,1.2-0.7,1.6C499.9,378.5,498.9,378.7,497.6,378.7z M497.6,377.8c1.2,0,2-0.1,2.3-0.4   c0.4-0.3,0.6-0.6,0.6-1s-0.2-0.7-0.6-1s-1.2-0.4-2.3-0.4c-1.2,0-2,0.1-2.3,0.4s-0.6,0.6-0.6,1s0.2,0.7,0.5,1   C495.6,377.7,496.4,377.8,497.6,377.8z"></path>
	<path d="M501.1,369.8v0.9h-5.6c0.2,0.2,0.4,0.5,0.6,0.8s0.4,0.6,0.5,0.9h-0.8c-0.2-0.5-0.5-0.9-0.8-1.3s-0.6-0.6-1-0.8v-0.6h7.1   V369.8z"></path>
	<path d="M500.3,363h0.8v4.7c-0.2,0-0.4,0-0.6-0.1c-0.3-0.1-0.6-0.3-0.9-0.6c-0.3-0.3-0.7-0.6-1.1-1.1c-0.6-0.8-1.1-1.3-1.5-1.6   c-0.4-0.3-0.7-0.4-1.1-0.4c-0.3,0-0.6,0.1-0.9,0.4c-0.2,0.2-0.4,0.6-0.4,1s0.1,0.8,0.4,1s0.6,0.4,1.1,0.4l-0.1,0.9   c-0.7-0.1-1.2-0.3-1.5-0.7c-0.4-0.4-0.5-0.9-0.5-1.6s0.2-1.2,0.6-1.6s0.8-0.6,1.4-0.6c0.3,0,0.6,0.1,0.8,0.2   c0.3,0.1,0.6,0.3,0.9,0.6s0.7,0.7,1.3,1.3c0.4,0.5,0.7,0.9,0.9,1s0.3,0.3,0.5,0.4L500.3,363L500.3,363z"></path>
</g>
<g>
	<path d="M522.4,379.7h0.8v4.7c-0.2,0-0.4,0-0.6-0.1c-0.3-0.1-0.6-0.3-0.9-0.6c-0.3-0.3-0.7-0.6-1.1-1.1c-0.6-0.8-1.1-1.3-1.5-1.6   c-0.4-0.3-0.7-0.4-1.1-0.4c-0.3,0-0.6,0.1-0.9,0.4c-0.2,0.2-0.4,0.6-0.4,1s0.1,0.8,0.4,1s0.6,0.4,1.1,0.4l-0.1,0.9   c-0.7-0.1-1.2-0.3-1.5-0.7c-0.4-0.4-0.5-0.9-0.5-1.6s0.2-1.2,0.6-1.6c0.4-0.4,0.8-0.6,1.4-0.6c0.3,0,0.6,0.1,0.8,0.2   c0.3,0.1,0.6,0.3,0.9,0.6s0.7,0.7,1.3,1.3c0.4,0.5,0.7,0.9,0.9,1s0.3,0.3,0.5,0.4v-3.6H522.4z"></path>
	<path d="M519.7,378.7c-0.8,0-1.5-0.1-2-0.3c-0.5-0.2-0.9-0.4-1.2-0.8c-0.3-0.3-0.4-0.8-0.4-1.3c0-0.4,0.1-0.7,0.2-1   c0.2-0.3,0.4-0.5,0.7-0.7s0.6-0.3,1.1-0.4c0.4-0.1,1-0.2,1.7-0.2c0.8,0,1.5,0.1,2,0.3c0.5,0.2,0.9,0.4,1.2,0.8s0.4,0.8,0.4,1.3   c0,0.7-0.2,1.2-0.7,1.6C522,378.5,521.1,378.7,519.7,378.7z M519.7,377.8c1.2,0,2-0.1,2.3-0.4c0.4-0.3,0.6-0.6,0.6-1   s-0.2-0.7-0.6-1c-0.4-0.3-1.2-0.4-2.3-0.4c-1.2,0-2,0.1-2.3,0.4s-0.6,0.6-0.6,1s0.2,0.7,0.5,1C517.8,377.7,518.6,377.8,519.7,377.8   z"></path>
	<path d="M523.3,369.8v0.9h-5.6c0.2,0.2,0.4,0.5,0.6,0.8c0.2,0.3,0.4,0.6,0.5,0.9H518c-0.2-0.5-0.5-0.9-0.8-1.3s-0.6-0.6-1-0.8v-0.6   h7.1V369.8z"></path>
	<path d="M521.4,367.6l-0.1-0.9c0.5-0.1,0.9-0.3,1.1-0.5s0.3-0.5,0.3-0.9s-0.1-0.8-0.4-1c-0.3-0.3-0.6-0.4-1.1-0.4   c-0.4,0-0.7,0.1-1,0.4s-0.4,0.6-0.4,1c0,0.2,0,0.4,0.1,0.6l-0.8-0.1c0-0.1,0-0.1,0-0.1c0-0.4-0.1-0.7-0.3-1s-0.5-0.4-0.9-0.4   c-0.3,0-0.6,0.1-0.8,0.3c-0.2,0.2-0.3,0.5-0.3,0.8s0.1,0.6,0.3,0.9c0.2,0.2,0.5,0.4,1,0.4l-0.2,0.9c-0.6-0.1-1-0.3-1.4-0.7   c-0.3-0.4-0.5-0.9-0.5-1.4c0-0.4,0.1-0.7,0.3-1.1c0.2-0.3,0.4-0.6,0.7-0.8c0.3-0.2,0.6-0.3,0.9-0.3c0.3,0,0.6,0.1,0.8,0.2   c0.3,0.2,0.5,0.4,0.6,0.7c0.1-0.4,0.3-0.7,0.6-1c0.3-0.2,0.7-0.3,1.2-0.3c0.6,0,1.1,0.2,1.6,0.7c0.4,0.5,0.6,1,0.6,1.7   c0,0.6-0.2,1.1-0.6,1.6S522,367.5,521.4,367.6z"></path>
</g>
<g>
	<path d="M544.6,379.7h0.8v4.7c-0.2,0-0.4,0-0.6-0.1c-0.3-0.1-0.6-0.3-0.9-0.6c-0.3-0.3-0.7-0.6-1.1-1.1c-0.6-0.8-1.1-1.3-1.5-1.6   c-0.4-0.3-0.7-0.4-1.1-0.4c-0.3,0-0.6,0.1-0.9,0.4c-0.2,0.2-0.4,0.6-0.4,1s0.1,0.8,0.4,1s0.6,0.4,1.1,0.4l-0.1,0.9   c-0.7-0.1-1.2-0.3-1.5-0.7c-0.4-0.4-0.5-0.9-0.5-1.6s0.2-1.2,0.6-1.6c0.4-0.4,0.8-0.6,1.4-0.6c0.3,0,0.6,0.1,0.8,0.2   c0.3,0.1,0.6,0.3,0.9,0.6s0.7,0.7,1.3,1.3c0.4,0.5,0.7,0.9,0.9,1s0.3,0.3,0.5,0.4v-3.6H544.6z"></path>
	<path d="M541.9,378.7c-0.8,0-1.5-0.1-2-0.3c-0.5-0.2-0.9-0.4-1.2-0.8c-0.3-0.3-0.4-0.8-0.4-1.3c0-0.4,0.1-0.7,0.2-1   c0.2-0.3,0.4-0.5,0.7-0.7s0.6-0.3,1.1-0.4c0.4-0.1,1-0.2,1.7-0.2c0.8,0,1.5,0.1,2,0.3c0.5,0.2,0.9,0.4,1.2,0.8s0.4,0.8,0.4,1.3   c0,0.7-0.2,1.2-0.7,1.6C544.2,378.5,543.2,378.7,541.9,378.7z M541.9,377.8c1.2,0,2-0.1,2.3-0.4c0.4-0.3,0.6-0.6,0.6-1   s-0.2-0.7-0.6-1c-0.4-0.3-1.2-0.4-2.3-0.4c-1.2,0-2,0.1-2.3,0.4s-0.6,0.6-0.6,1s0.2,0.7,0.5,1C539.9,377.7,540.7,377.8,541.9,377.8   z"></path>
	<path d="M545.4,369.8v0.9h-5.6c0.2,0.2,0.4,0.5,0.6,0.8c0.2,0.3,0.4,0.6,0.5,0.9H540c-0.2-0.5-0.5-0.9-0.8-1.3s-0.6-0.6-1-0.8v-0.6   h7.2V369.8z"></path>
	<path d="M545.4,364.8h-1.7v3.1h-0.8l-4.6-3.3v-0.7h4.6v-1h0.8v1h1.7V364.8z M542.9,364.8h-3.2l3.2,2.2V364.8z"></path>
</g>
<g>
	<path d="M566.7,379.7h0.8v4.7c-0.2,0-0.4,0-0.6-0.1c-0.3-0.1-0.6-0.3-0.9-0.6c-0.3-0.3-0.7-0.6-1.1-1.1c-0.6-0.8-1.1-1.3-1.5-1.6   c-0.4-0.3-0.7-0.4-1.1-0.4c-0.3,0-0.6,0.1-0.9,0.4c-0.2,0.2-0.4,0.6-0.4,1s0.1,0.8,0.4,1s0.6,0.4,1.1,0.4l-0.1,0.9   c-0.7-0.1-1.2-0.3-1.5-0.7c-0.4-0.4-0.5-0.9-0.5-1.6s0.2-1.2,0.6-1.6c0.4-0.4,0.8-0.6,1.4-0.6c0.3,0,0.6,0.1,0.8,0.2   c0.3,0.1,0.6,0.3,0.9,0.6s0.7,0.7,1.3,1.3c0.4,0.5,0.7,0.9,0.9,1s0.3,0.3,0.5,0.4v-3.6H566.7z"></path>
	<path d="M564.1,378.7c-0.8,0-1.5-0.1-2-0.3c-0.5-0.2-0.9-0.4-1.2-0.8c-0.3-0.3-0.4-0.8-0.4-1.3c0-0.4,0.1-0.7,0.2-1   c0.2-0.3,0.4-0.5,0.7-0.7s0.6-0.3,1.1-0.4c0.4-0.1,1-0.2,1.7-0.2c0.8,0,1.5,0.1,2,0.3c0.5,0.2,0.9,0.4,1.2,0.8s0.4,0.8,0.4,1.3   c0,0.7-0.2,1.2-0.7,1.6C566.4,378.5,565.4,378.7,564.1,378.7z M564.1,377.8c1.2,0,2-0.1,2.3-0.4c0.4-0.3,0.6-0.6,0.6-1   s-0.2-0.7-0.6-1c-0.4-0.3-1.2-0.4-2.3-0.4c-1.2,0-2,0.1-2.3,0.4s-0.6,0.6-0.6,1s0.2,0.7,0.5,1C562.1,377.7,562.9,377.8,564.1,377.8   z"></path>
	<path d="M567.6,369.8v0.9H562c0.2,0.2,0.4,0.5,0.6,0.8c0.2,0.3,0.4,0.6,0.5,0.9h-0.8c-0.2-0.5-0.5-0.9-0.8-1.3s-0.6-0.6-1-0.8v-0.6   h7.1V369.8z"></path>
	<path d="M565.7,367.6l-0.1-0.9c0.4-0.1,0.8-0.2,1-0.5c0.2-0.2,0.3-0.5,0.3-0.9s-0.2-0.8-0.5-1.1c-0.3-0.3-0.7-0.4-1.3-0.4   c-0.5,0-0.9,0.1-1.2,0.4s-0.4,0.6-0.4,1.1c0,0.3,0.1,0.5,0.2,0.8s0.3,0.4,0.5,0.5l-0.1,0.8l-3.7-0.7v-3.5h0.8v2.8l1.9,0.4   c-0.3-0.4-0.4-0.9-0.4-1.3c0-0.6,0.2-1.1,0.6-1.6c0.4-0.4,1-0.6,1.7-0.6c0.6,0,1.2,0.2,1.7,0.6c0.6,0.5,0.9,1.1,0.9,1.9   c0,0.6-0.2,1.2-0.5,1.6S566.3,367.5,565.7,367.6z"></path>
</g>
<g>
	<path d="M588.9,379.7h0.8v4.7c-0.2,0-0.4,0-0.6-0.1c-0.3-0.1-0.6-0.3-0.9-0.6c-0.3-0.3-0.7-0.6-1.1-1.1c-0.6-0.8-1.1-1.3-1.5-1.6   c-0.4-0.3-0.7-0.4-1.1-0.4c-0.3,0-0.6,0.1-0.9,0.4c-0.2,0.2-0.4,0.6-0.4,1s0.1,0.8,0.4,1s0.6,0.4,1.1,0.4l-0.1,0.9   c-0.7-0.1-1.2-0.3-1.5-0.7c-0.4-0.4-0.5-0.9-0.5-1.6s0.2-1.2,0.6-1.6c0.4-0.4,0.8-0.6,1.4-0.6c0.3,0,0.6,0.1,0.8,0.2   c0.3,0.1,0.6,0.3,0.9,0.6s0.7,0.7,1.3,1.3c0.4,0.5,0.7,0.9,0.9,1s0.3,0.3,0.5,0.4v-3.6H588.9z"></path>
	<path d="M586.2,378.7c-0.8,0-1.5-0.1-2-0.3c-0.5-0.2-0.9-0.4-1.2-0.8c-0.3-0.3-0.4-0.8-0.4-1.3c0-0.4,0.1-0.7,0.2-1   c0.2-0.3,0.4-0.5,0.7-0.7s0.6-0.3,1.1-0.4c0.4-0.1,1-0.2,1.7-0.2c0.8,0,1.5,0.1,2,0.3c0.5,0.2,0.9,0.4,1.2,0.8s0.4,0.8,0.4,1.3   c0,0.7-0.2,1.2-0.7,1.6C588.5,378.5,587.6,378.7,586.2,378.7z M586.2,377.8c1.2,0,2-0.1,2.3-0.4c0.4-0.3,0.6-0.6,0.6-1   s-0.2-0.7-0.6-1c-0.4-0.3-1.2-0.4-2.3-0.4c-1.2,0-2,0.1-2.3,0.4s-0.6,0.6-0.6,1s0.2,0.7,0.5,1C584.2,377.7,585,377.8,586.2,377.8z"></path>
	<path d="M589.7,369.8v0.9h-5.6c0.2,0.2,0.4,0.5,0.6,0.8c0.2,0.3,0.4,0.6,0.5,0.9h-0.8c-0.2-0.5-0.5-0.9-0.8-1.3s-0.6-0.6-1-0.8   v-0.6h7.1V369.8z"></path>
	<path d="M584.3,363l0.1,0.9c-0.3,0.1-0.6,0.2-0.7,0.3c-0.3,0.2-0.4,0.5-0.4,0.9c0,0.3,0.1,0.5,0.2,0.7c0.2,0.3,0.5,0.5,0.9,0.7   s0.9,0.2,1.6,0.2c-0.3-0.2-0.6-0.5-0.7-0.8s-0.2-0.6-0.2-1c0-0.6,0.2-1.1,0.6-1.5s1-0.6,1.7-0.6c0.4,0,0.9,0.1,1.2,0.3   c0.4,0.2,0.7,0.5,0.9,0.8s0.3,0.7,0.3,1.1c0,0.7-0.3,1.3-0.8,1.8s-1.4,0.7-2.7,0.7c-1.4,0-2.4-0.3-3-0.8c-0.5-0.4-0.8-1-0.8-1.8   c0-0.6,0.2-1,0.5-1.4C583.4,363.3,583.8,363.1,584.3,363z M587.4,366.6c0.3,0,0.6-0.1,0.9-0.2s0.5-0.3,0.6-0.5s0.2-0.5,0.2-0.7   c0-0.4-0.1-0.7-0.4-1c-0.3-0.3-0.7-0.4-1.2-0.4s-0.9,0.1-1.2,0.4s-0.4,0.6-0.4,1s0.1,0.7,0.4,1C586.6,366.5,587,366.6,587.4,366.6z   "></path>
</g>
<g>
	<path d="M611,379.7h0.8v4.7c-0.2,0-0.4,0-0.6-0.1c-0.3-0.1-0.6-0.3-0.9-0.6c-0.3-0.3-0.7-0.6-1.1-1.1c-0.6-0.8-1.1-1.3-1.5-1.6   c-0.4-0.3-0.7-0.4-1.1-0.4c-0.3,0-0.6,0.1-0.9,0.4c-0.2,0.2-0.4,0.6-0.4,1s0.1,0.8,0.4,1s0.6,0.4,1.1,0.4l-0.1,0.9   c-0.7-0.1-1.2-0.3-1.5-0.7c-0.4-0.4-0.5-0.9-0.5-1.6s0.2-1.2,0.6-1.6c0.4-0.4,0.8-0.6,1.4-0.6c0.3,0,0.6,0.1,0.8,0.2   c0.3,0.1,0.6,0.3,0.9,0.6s0.7,0.7,1.3,1.3c0.4,0.5,0.7,0.9,0.9,1s0.3,0.3,0.5,0.4v-3.6H611z"></path>
	<path d="M608.4,378.7c-0.8,0-1.5-0.1-2-0.3c-0.5-0.2-0.9-0.4-1.2-0.8c-0.3-0.3-0.4-0.8-0.4-1.3c0-0.4,0.1-0.7,0.2-1   c0.2-0.3,0.4-0.5,0.7-0.7s0.6-0.3,1.1-0.4c0.4-0.1,1-0.2,1.7-0.2c0.8,0,1.5,0.1,2,0.3c0.5,0.2,0.9,0.4,1.2,0.8s0.4,0.8,0.4,1.3   c0,0.7-0.2,1.2-0.7,1.6C610.7,378.5,609.7,378.7,608.4,378.7z M608.4,377.8c1.2,0,2-0.1,2.3-0.4c0.4-0.3,0.6-0.6,0.6-1   s-0.2-0.7-0.6-1c-0.4-0.3-1.2-0.4-2.3-0.4c-1.2,0-2,0.1-2.3,0.4s-0.6,0.6-0.6,1s0.2,0.7,0.5,1C606.4,377.7,607.2,377.8,608.4,377.8   z"></path>
	<path d="M611.9,369.8v0.9h-5.6c0.2,0.2,0.4,0.5,0.6,0.8c0.2,0.3,0.4,0.6,0.5,0.9h-0.8c-0.2-0.5-0.5-0.9-0.8-1.3s-0.6-0.6-1-0.8   v-0.6h7.1V369.8z"></path>
	<path d="M605.7,367.5h-0.8v-4.6h0.7c0.5,0.5,1.1,0.9,1.9,1.3c0.8,0.4,1.6,0.8,2.5,1c0.6,0.2,1.3,0.3,2,0.3v0.9   c-0.6,0-1.2-0.1-2-0.3c-0.8-0.2-1.6-0.5-2.3-0.9s-1.4-0.8-1.9-1.3v3.6H605.7z"></path>
</g>
<g>
	<path d="M633.2,379.7h0.8v4.7c-0.2,0-0.4,0-0.6-0.1c-0.3-0.1-0.6-0.3-0.9-0.6c-0.3-0.3-0.7-0.6-1.1-1.1c-0.6-0.8-1.1-1.3-1.5-1.6   c-0.4-0.3-0.7-0.4-1.1-0.4c-0.3,0-0.6,0.1-0.9,0.4c-0.2,0.2-0.4,0.6-0.4,1s0.1,0.8,0.4,1s0.6,0.4,1.1,0.4l-0.1,0.9   c-0.7-0.1-1.2-0.3-1.5-0.7c-0.4-0.4-0.5-0.9-0.5-1.6s0.2-1.2,0.6-1.6c0.4-0.4,0.8-0.6,1.4-0.6c0.3,0,0.6,0.1,0.8,0.2   c0.3,0.1,0.6,0.3,0.9,0.6s0.7,0.7,1.3,1.3c0.4,0.5,0.7,0.9,0.9,1s0.3,0.3,0.5,0.4v-3.6H633.2z"></path>
	<path d="M630.5,378.7c-0.8,0-1.5-0.1-2-0.3c-0.5-0.2-0.9-0.4-1.2-0.8c-0.3-0.3-0.4-0.8-0.4-1.3c0-0.4,0.1-0.7,0.2-1   c0.2-0.3,0.4-0.5,0.7-0.7s0.6-0.3,1.1-0.4c0.4-0.1,1-0.2,1.7-0.2c0.8,0,1.5,0.1,2,0.3c0.5,0.2,0.9,0.4,1.2,0.8s0.4,0.8,0.4,1.3   c0,0.7-0.2,1.2-0.7,1.6C632.8,378.5,631.9,378.7,630.5,378.7z M630.5,377.8c1.2,0,2-0.1,2.3-0.4c0.4-0.3,0.6-0.6,0.6-1   s-0.2-0.7-0.6-1c-0.4-0.3-1.2-0.4-2.3-0.4c-1.2,0-2,0.1-2.3,0.4s-0.6,0.6-0.6,1s0.2,0.7,0.5,1C628.6,377.7,629.4,377.8,630.5,377.8   z"></path>
	<path d="M634,369.8v0.9h-5.6c0.2,0.2,0.4,0.5,0.6,0.8c0.2,0.3,0.4,0.6,0.5,0.9h-0.8c-0.2-0.5-0.5-0.9-0.8-1.3s-0.6-0.6-1-0.8v-0.6   h7.1V369.8z"></path>
	<path d="M630.2,366.2c-0.1,0.4-0.3,0.6-0.6,0.8c-0.2,0.2-0.5,0.3-0.9,0.3c-0.5,0-1-0.2-1.3-0.6s-0.5-0.9-0.5-1.5s0.2-1.1,0.5-1.5   c0.4-0.4,0.8-0.6,1.3-0.6c0.3,0,0.6,0.1,0.9,0.3c0.2,0.2,0.4,0.4,0.6,0.8c0.1-0.4,0.4-0.8,0.7-1s0.7-0.3,1.1-0.3   c0.6,0,1.1,0.2,1.5,0.6s0.6,1,0.6,1.7s-0.2,1.3-0.6,1.7c-0.4,0.4-0.9,0.6-1.6,0.6c-0.5,0-0.9-0.1-1.2-0.4   C630.5,367,630.3,366.7,630.2,366.2z M628.7,366.4c0.3,0,0.6-0.1,0.8-0.3c0.2-0.2,0.3-0.5,0.3-0.8s-0.1-0.6-0.3-0.8   c-0.2-0.2-0.5-0.3-0.8-0.3s-0.6,0.1-0.8,0.3c-0.2,0.2-0.3,0.5-0.3,0.8s0.1,0.6,0.3,0.8S628.4,366.4,628.7,366.4z M632,366.7   c0.3,0,0.5-0.1,0.7-0.2s0.4-0.3,0.5-0.5s0.2-0.5,0.2-0.8c0-0.4-0.1-0.8-0.4-1c-0.3-0.3-0.6-0.4-1-0.4s-0.8,0.1-1,0.4   c-0.3,0.3-0.4,0.6-0.4,1.1c0,0.4,0.1,0.8,0.4,1C631.2,366.5,631.6,366.7,632,366.7z"></path>
</g>
<g>
	<path d="M655.4,379.7h0.8v4.7c-0.2,0-0.4,0-0.6-0.1c-0.3-0.1-0.6-0.3-0.9-0.6c-0.3-0.3-0.7-0.6-1.1-1.1c-0.6-0.8-1.1-1.3-1.5-1.6   c-0.4-0.3-0.7-0.4-1.1-0.4c-0.3,0-0.6,0.1-0.9,0.4c-0.2,0.2-0.4,0.6-0.4,1s0.1,0.8,0.4,1s0.6,0.4,1.1,0.4l-0.1,0.9   c-0.7-0.1-1.2-0.3-1.5-0.7c-0.4-0.4-0.5-0.9-0.5-1.6s0.2-1.2,0.6-1.6c0.4-0.4,0.8-0.6,1.4-0.6c0.3,0,0.6,0.1,0.8,0.2   c0.3,0.1,0.6,0.3,0.9,0.6s0.7,0.7,1.3,1.3c0.4,0.5,0.7,0.9,0.9,1s0.3,0.3,0.5,0.4v-3.6H655.4z"></path>
	<path d="M652.7,378.7c-0.8,0-1.5-0.1-2-0.3c-0.5-0.2-0.9-0.4-1.2-0.8c-0.3-0.3-0.4-0.8-0.4-1.3c0-0.4,0.1-0.7,0.2-1   c0.2-0.3,0.4-0.5,0.7-0.7s0.6-0.3,1.1-0.4c0.4-0.1,1-0.2,1.7-0.2c0.8,0,1.5,0.1,2,0.3c0.5,0.2,0.9,0.4,1.2,0.8s0.4,0.8,0.4,1.3   c0,0.7-0.2,1.2-0.7,1.6C655,378.5,654,378.7,652.7,378.7z M652.7,377.8c1.2,0,2-0.1,2.3-0.4c0.4-0.3,0.6-0.6,0.6-1s-0.2-0.7-0.6-1   c-0.4-0.3-1.2-0.4-2.3-0.4c-1.2,0-2,0.1-2.3,0.4s-0.6,0.6-0.6,1s0.2,0.7,0.5,1C650.7,377.7,651.5,377.8,652.7,377.8z"></path>
	<path d="M656.2,369.8v0.9h-5.6c0.2,0.2,0.4,0.5,0.6,0.8c0.2,0.3,0.4,0.6,0.5,0.9h-0.8c-0.2-0.5-0.5-0.9-0.8-1.3s-0.6-0.6-1-0.8   v-0.6h7.1V369.8z"></path>
	<path d="M654.6,367.4l-0.1-0.8c0.4-0.1,0.7-0.2,0.9-0.4c0.2-0.2,0.3-0.5,0.3-0.8s-0.1-0.5-0.2-0.7s-0.3-0.4-0.5-0.5   s-0.5-0.2-0.8-0.3c-0.4-0.1-0.7-0.1-1.1-0.1c0,0-0.1,0-0.2,0c0.3,0.2,0.5,0.4,0.7,0.7c0.2,0.3,0.3,0.6,0.3,1c0,0.6-0.2,1.1-0.6,1.5   c-0.4,0.4-1,0.6-1.7,0.6s-1.3-0.2-1.7-0.6s-0.7-1-0.7-1.6c0-0.5,0.1-0.9,0.4-1.3c0.3-0.4,0.6-0.7,1.1-0.9s1.1-0.3,2-0.3   s1.6,0.1,2.2,0.3c0.5,0.2,1,0.5,1.2,0.9s0.4,0.8,0.4,1.4s-0.2,1-0.5,1.4S655.1,367.4,654.6,367.4z M651.4,363.9   c-0.5,0-0.9,0.1-1.2,0.4s-0.4,0.6-0.4,1s0.2,0.7,0.5,1s0.7,0.4,1.2,0.4s0.8-0.1,1.1-0.4s0.4-0.6,0.4-1s-0.1-0.7-0.4-1   C652.3,364,651.9,363.9,651.4,363.9z"></path>
</g>
<g>
	<path d="M677.5,379.7h0.8v4.7c-0.2,0-0.4,0-0.6-0.1c-0.3-0.1-0.6-0.3-0.9-0.6c-0.3-0.3-0.7-0.6-1.1-1.1c-0.6-0.8-1.1-1.3-1.5-1.6   c-0.4-0.3-0.7-0.4-1.1-0.4c-0.3,0-0.6,0.1-0.9,0.4c-0.2,0.2-0.4,0.6-0.4,1s0.1,0.8,0.4,1s0.6,0.4,1.1,0.4l-0.1,0.9   c-0.7-0.1-1.2-0.3-1.5-0.7c-0.4-0.4-0.5-0.9-0.5-1.6s0.2-1.2,0.6-1.6c0.4-0.4,0.8-0.6,1.4-0.6c0.3,0,0.6,0.1,0.8,0.2   c0.3,0.1,0.6,0.3,0.9,0.6s0.7,0.7,1.3,1.3c0.4,0.5,0.7,0.9,0.9,1s0.3,0.3,0.5,0.4v-3.6H677.5z"></path>
	<path d="M674.8,378.7c-0.8,0-1.5-0.1-2-0.3c-0.5-0.2-0.9-0.4-1.2-0.8c-0.3-0.3-0.4-0.8-0.4-1.3c0-0.4,0.1-0.7,0.2-1   c0.2-0.3,0.4-0.5,0.7-0.7s0.6-0.3,1.1-0.4c0.4-0.1,1-0.2,1.7-0.2c0.8,0,1.5,0.1,2,0.3c0.5,0.2,0.9,0.4,1.2,0.8s0.4,0.8,0.4,1.3   c0,0.7-0.2,1.2-0.7,1.6C677.1,378.5,676.2,378.7,674.8,378.7z M674.8,377.8c1.2,0,2-0.1,2.3-0.4c0.4-0.3,0.6-0.6,0.6-1   s-0.2-0.7-0.6-1c-0.4-0.3-1.2-0.4-2.3-0.4c-1.2,0-2,0.1-2.3,0.4s-0.6,0.6-0.6,1s0.2,0.7,0.5,1C672.9,377.7,673.7,377.8,674.8,377.8   z"></path>
	<path d="M677.5,368.5h0.8v4.7c-0.2,0-0.4,0-0.6-0.1c-0.3-0.1-0.6-0.3-0.9-0.6c-0.3-0.3-0.7-0.6-1.1-1.1c-0.6-0.8-1.1-1.3-1.5-1.6   c-0.4-0.3-0.7-0.4-1.1-0.4c-0.3,0-0.6,0.1-0.9,0.4c-0.2,0.2-0.4,0.6-0.4,1s0.1,0.8,0.4,1s0.6,0.4,1.1,0.4l-0.1,0.9   c-0.7-0.1-1.2-0.3-1.5-0.7c-0.4-0.4-0.5-0.9-0.5-1.6s0.2-1.2,0.6-1.6c0.4-0.4,0.8-0.6,1.4-0.6c0.3,0,0.6,0.1,0.8,0.2   c0.3,0.1,0.6,0.3,0.9,0.6s0.7,0.7,1.3,1.3c0.4,0.5,0.7,0.9,0.9,1s0.3,0.3,0.5,0.4v-3.6H677.5z"></path>
	<path d="M674.8,367.6c-0.8,0-1.5-0.1-2-0.3c-0.5-0.2-0.9-0.4-1.2-0.8c-0.3-0.3-0.4-0.8-0.4-1.3c0-0.4,0.1-0.7,0.2-1   c0.2-0.3,0.4-0.5,0.7-0.7s0.6-0.3,1.1-0.4c0.4-0.1,1-0.2,1.7-0.2c0.8,0,1.5,0.1,2,0.3c0.5,0.2,0.9,0.4,1.2,0.8s0.4,0.8,0.4,1.3   c0,0.7-0.2,1.2-0.7,1.6C677.1,367.3,676.2,367.6,674.8,367.6z M674.8,366.7c1.2,0,2-0.1,2.3-0.4c0.4-0.3,0.6-0.6,0.6-1   s-0.2-0.7-0.6-1c-0.4-0.3-1.2-0.4-2.3-0.4c-1.2,0-2,0.1-2.3,0.4s-0.6,0.6-0.6,1s0.2,0.7,0.5,1C672.9,366.5,673.7,366.7,674.8,366.7   z"></path>
</g>
<g>
	<path d="M699.7,379.7h0.8v4.7c-0.2,0-0.4,0-0.6-0.1c-0.3-0.1-0.6-0.3-0.9-0.6c-0.3-0.3-0.7-0.6-1.1-1.1c-0.6-0.8-1.1-1.3-1.5-1.6   c-0.4-0.3-0.7-0.4-1.1-0.4c-0.3,0-0.6,0.1-0.9,0.4c-0.2,0.2-0.4,0.6-0.4,1s0.1,0.8,0.4,1s0.6,0.4,1.1,0.4l-0.1,0.9   c-0.7-0.1-1.2-0.3-1.5-0.7c-0.4-0.4-0.5-0.9-0.5-1.6s0.2-1.2,0.6-1.6c0.4-0.4,0.8-0.6,1.4-0.6c0.3,0,0.6,0.1,0.8,0.2   c0.3,0.1,0.6,0.3,0.9,0.6s0.7,0.7,1.3,1.3c0.4,0.5,0.7,0.9,0.9,1s0.3,0.3,0.5,0.4v-3.6H699.7z"></path>
	<path d="M697,378.7c-0.8,0-1.5-0.1-2-0.3c-0.5-0.2-0.9-0.4-1.2-0.8c-0.3-0.3-0.4-0.8-0.4-1.3c0-0.4,0.1-0.7,0.2-1   c0.2-0.3,0.4-0.5,0.7-0.7s0.6-0.3,1.1-0.4c0.4-0.1,1-0.2,1.7-0.2c0.8,0,1.5,0.1,2,0.3c0.5,0.2,0.9,0.4,1.2,0.8s0.4,0.8,0.4,1.3   c0,0.7-0.2,1.2-0.7,1.6C699.3,378.5,698.3,378.7,697,378.7z M697,377.8c1.2,0,2-0.1,2.3-0.4c0.4-0.3,0.6-0.6,0.6-1s-0.2-0.7-0.6-1   c-0.4-0.3-1.2-0.4-2.3-0.4c-1.2,0-2,0.1-2.3,0.4s-0.6,0.6-0.6,1s0.2,0.7,0.5,1C695,377.7,695.8,377.8,697,377.8z"></path>
	<path d="M699.7,368.5h0.8v4.7c-0.2,0-0.4,0-0.6-0.1c-0.3-0.1-0.6-0.3-0.9-0.6c-0.3-0.3-0.7-0.6-1.1-1.1c-0.6-0.8-1.1-1.3-1.5-1.6   c-0.4-0.3-0.7-0.4-1.1-0.4c-0.3,0-0.6,0.1-0.9,0.4c-0.2,0.2-0.4,0.6-0.4,1s0.1,0.8,0.4,1s0.6,0.4,1.1,0.4l-0.1,0.9   c-0.7-0.1-1.2-0.3-1.5-0.7c-0.4-0.4-0.5-0.9-0.5-1.6s0.2-1.2,0.6-1.6c0.4-0.4,0.8-0.6,1.4-0.6c0.3,0,0.6,0.1,0.8,0.2   c0.3,0.1,0.6,0.3,0.9,0.6s0.7,0.7,1.3,1.3c0.4,0.5,0.7,0.9,0.9,1s0.3,0.3,0.5,0.4v-3.6H699.7z"></path>
	<path d="M700.5,364.3v0.9h-5.6c0.2,0.2,0.4,0.5,0.6,0.8c0.2,0.3,0.4,0.6,0.5,0.9h-0.8c-0.2-0.5-0.5-0.9-0.8-1.3s-0.6-0.6-1-0.8   v-0.6h7.1V364.3z"></path>
</g>
<g>
	<g>
		<text transform="matrix(1.748456e-07 -1 1 1.748456e-07 13.5317 258.771)" class="st8 st9">I</text>
		<text transform="matrix(1.748456e-07 -1 1 1.748456e-07 13.5317 255.9712)" class="st8 st9">nd</text>
		<text transform="matrix(1.748456e-07 -1 1 1.748456e-07 13.5317 243.771)" class="st8 st9">ex</text>
		<text transform="matrix(1.748456e-07 -1 1 1.748456e-07 13.5317 232.6714)" class="st8 st9"> </text>
		<text transform="matrix(1.748456e-07 -1 1 1.748456e-07 13.5317 229.8706)" class="st8 st9">L</text>
		<text transform="matrix(1.748456e-07 -1 1 1.748456e-07 13.5317 223.771)" class="st8 st9">e</text>
		<text transform="matrix(1.748456e-07 -1 1 1.748456e-07 13.5317 218.1714)" class="st8 st9">v</text>
		<text transform="matrix(1.748456e-07 -1 1 1.748456e-07 13.5317 212.5708)" class="st8 st9">e</text>
		<text transform="matrix(1.748456e-07 -1 1 1.748456e-07 13.5317 207.0708)" class="st8 st9">l</text>
		<text transform="matrix(1.748456e-07 -1 1 1.748456e-07 13.5317 204.271)" class="st8 st9">s</text>
		<text transform="matrix(1.748456e-07 -1 1 1.748456e-07 13.5317 198.771)" class="st8 st9">,</text>
		<text transform="matrix(1.748456e-07 -1 1 1.748456e-07 13.5317 195.9712)" class="st8 st9"> </text>
		<text transform="matrix(1.748456e-07 -1 1 1.748456e-07 13.5317 193.0708)" class="st8 st9">1992</text>
		<text transform="matrix(1.748456e-07 -1 1 1.748456e-07 13.5317 170.9712)" class="st8 st9"> </text>
		<text transform="matrix(1.748456e-07 -1 1 1.748456e-07 13.5317 168.0708)" class="st8 st9">=</text>
		<text transform="matrix(1.748456e-07 -1 1 1.748456e-07 13.5317 162.3706)" class="st8 st9"> </text>
		<text transform="matrix(1.748456e-07 -1 1 1.748456e-07 13.5317 159.4712)" class="st8 st9">10</text>
		<text transform="matrix(1.748456e-07 -1 1 1.748456e-07 13.5317 148.3706)" class="st8 st9">0</text>
	</g>
</g>
</svg>
