<?xml version="1.0" encoding="UTF-8"?>
<!-- Generator: Adobe Illustrator 26.0.0, SVG Export Plug-In . SVG Version: 6.00 Build 0)  -->
<svg xmlns="http://www.w3.org/2000/svg" xmlns:xlink="http://www.w3.org/1999/xlink" version="1.1" id="Layer_1" x="0px" y="0px" viewBox="0 0 500.1 388.1" style="enable-background:new 0 0 500.1 388.1;" xml:space="preserve">
<style type="text/css">
	.st0{fill:none;stroke:#D9D9D9;stroke-width:0.58;stroke-linejoin:round;}
	.st1{font-family:'Georgia';}
	.st2{font-size:10.96px;}
	.st3{fill-rule:evenodd;clip-rule:evenodd;fill:#B2ADA8;}
	.st4{fill-rule:evenodd;clip-rule:evenodd;fill:#79726B;}
	.st5{fill-rule:evenodd;clip-rule:evenodd;}
	.st6{fill-rule:evenodd;clip-rule:evenodd;fill:#F6AF25;}
	.st7{fill-rule:evenodd;clip-rule:evenodd;fill:#E3E0DC;}
</style>
<path class="st0" d="M22.5,357.9h470 M22.5,298.9h470 M22.5,240h470 M22.5,181.1h470 M22.5,122.2h470 M22.5,62.6h470"></path>
<g>
	<path d="M10.3,356.7c0.2,0.3,0.4,0.6,0.5,1c0.3,0.8,0.3,1.7,0,2.5c-0.1,0.4-0.3,0.7-0.6,1c-0.2,0.3-0.5,0.5-0.9,0.6   S8.6,362,8.2,362c-0.4,0-0.8-0.1-1.2-0.2c-0.3-0.1-0.6-0.3-0.9-0.6c-0.2-0.3-0.4-0.6-0.5-1c-0.3-0.8-0.3-1.6,0-2.4   c0.1-0.4,0.3-0.7,0.5-1s0.5-0.6,0.9-0.7c0.4-0.2,0.8-0.2,1.2-0.2s0.9,0.1,1.3,0.2C9.9,356.2,10,356.4,10.3,356.7z M9.7,358.8   c0-0.7-0.1-1.4-0.4-2c-0.4-0.7-1.2-0.9-1.9-0.5c-0.2,0.1-0.4,0.3-0.5,0.5c-0.3,0.6-0.5,1.3-0.4,2c-0.1,0.7,0.1,1.3,0.4,1.9   c0.4,0.7,1.2,0.9,1.9,0.5c0.2-0.1,0.4-0.3,0.5-0.5C9.6,360.1,9.7,359.4,9.7,358.8L9.7,358.8z"></path>
</g>
<g>
	<path d="M15.8,355.9c0,0.5-0.2,1.1-0.5,1.5s-0.8,0.6-1.3,0.5c-0.5,0-0.9-0.2-1.3-0.5c-0.4-0.4-0.5-1-0.5-1.5s0.2-1,0.5-1.4   c0.7-0.7,1.9-0.7,2.6,0C15.6,354.9,15.8,355.4,15.8,355.9z M19.6,354.1l-6.3,7.6h-0.7l6.3-7.6H19.6z M14.9,355.9   c0-0.4-0.1-0.7-0.2-1.1c-0.2-0.4-0.7-0.5-1.1-0.3c-0.1,0.1-0.2,0.2-0.3,0.3c-0.2,0.3-0.2,0.7-0.2,1.1s0.1,0.8,0.2,1.2   c0.2,0.4,0.7,0.5,1.1,0.3c0.1-0.1,0.2-0.2,0.3-0.3C14.8,356.7,14.9,356.3,14.9,355.9z M19.9,359.9c0,0.5-0.2,1.1-0.5,1.5   c-0.7,0.7-1.9,0.7-2.6,0c-0.4-0.4-0.5-1-0.5-1.5s0.2-1,0.5-1.4c0.7-0.7,1.9-0.7,2.6,0C19.8,358.8,19.9,359.4,19.9,359.9z M19,359.9   c0-0.4-0.1-0.7-0.2-1.1c-0.2-0.4-0.7-0.5-1.1-0.3c-0.1,0.1-0.2,0.2-0.3,0.3c-0.2,0.3-0.2,0.7-0.2,1.1s0.1,0.8,0.2,1.2   c0.1,0.3,0.4,0.4,0.7,0.4c0.3,0,0.6-0.1,0.7-0.4C18.9,360.7,19,360.3,19,359.9z"></path>
</g>
<g>
	<path d="M11,302.7H6V302l0.4-0.4c0.2-0.2,0.4-0.3,0.6-0.4s0.3-0.2,0.5-0.3c0.2-0.1,0.5-0.3,0.7-0.4s0.5-0.2,0.7-0.4   c0.2-0.1,0.3-0.3,0.4-0.4c0.1-0.1,0.1-0.2,0.2-0.4c0.1-0.2,0.1-0.4,0.1-0.7c0-0.4-0.1-0.8-0.4-1c-0.2-0.2-0.6-0.3-0.9-0.3   c-0.2,0-0.5,0-0.7,0.1s-0.4,0.2-0.5,0.4c0,0.1,0.1,0.2,0.1,0.4s0.1,0.3,0.1,0.5c0,0.3-0.3,0.6-0.7,0.6c-0.2,0-0.3-0.1-0.4-0.2   s-0.1-0.3-0.1-0.5s0.1-0.4,0.2-0.6s0.3-0.4,0.5-0.5c0.2-0.2,0.4-0.3,0.7-0.4c0.3-0.1,0.6-0.2,0.9-0.2c0.6,0,1.2,0.2,1.7,0.5   c0.4,0.3,0.6,0.8,0.6,1.3c0,0.2,0,0.5-0.1,0.7s-0.2,0.4-0.4,0.6s-0.5,0.4-0.7,0.5c-0.3,0.1-0.6,0.3-1.2,0.5   c-0.3,0.1-0.6,0.3-0.9,0.4c-0.2,0.1-0.5,0.2-0.7,0.4h4.1v0.9H11z"></path>
</g>
<g>
	<path d="M15.8,296.9c0,0.5-0.2,1.1-0.5,1.5s-0.8,0.6-1.3,0.5c-0.5,0-0.9-0.2-1.3-0.5c-0.4-0.4-0.5-1-0.5-1.5s0.2-1,0.5-1.4   c0.7-0.7,1.9-0.7,2.6,0C15.6,295.9,15.8,296.4,15.8,296.9z M19.6,295.1l-6.3,7.6h-0.7l6.3-7.6H19.6z M14.9,296.9   c0-0.4-0.1-0.7-0.2-1.1c-0.2-0.4-0.7-0.5-1.1-0.3c-0.1,0.1-0.2,0.2-0.3,0.3c-0.2,0.3-0.2,0.7-0.2,1.1s0.1,0.8,0.2,1.2   c0.2,0.4,0.7,0.5,1.1,0.3c0.1-0.1,0.2-0.2,0.3-0.3C14.8,297.7,14.9,297.3,14.9,296.9z M19.9,300.9c0,0.5-0.2,1.1-0.5,1.5   c-0.7,0.7-1.9,0.7-2.6,0c-0.4-0.4-0.5-1-0.5-1.5s0.2-1,0.5-1.4c0.7-0.7,1.9-0.7,2.6,0C19.8,299.8,19.9,300.4,19.9,300.9z M19,300.9   c0-0.4-0.1-0.7-0.2-1.1c-0.2-0.4-0.7-0.5-1.1-0.3c-0.1,0.1-0.2,0.2-0.3,0.3c-0.2,0.3-0.2,0.7-0.2,1.1s0.1,0.8,0.2,1.2   c0.1,0.3,0.4,0.4,0.7,0.4c0.3,0,0.6-0.1,0.7-0.4C18.9,301.7,19,301.3,19,300.9z"></path>
</g>
<g>
	<path d="M11.1,243.1H10v2.4H9v-2.4H5.6v-0.8l3.8-4.6h0.7v4.7h1.1L11.1,243.1L11.1,243.1z M9,242.4v-3.5l-2.9,3.5H9z"></path>
</g>
<g>
	<path d="M15.7,237.8c0,0.5-0.2,1.1-0.5,1.5s-0.8,0.6-1.3,0.5c-0.5,0-0.9-0.2-1.3-0.5c-0.4-0.4-0.5-1-0.5-1.5s0.2-1,0.5-1.4   c0.7-0.7,1.9-0.7,2.6,0C15.5,236.8,15.7,237.3,15.7,237.8z M19.5,236l-6.3,7.6h-0.7l6.3-7.6H19.5z M14.8,237.8   c0-0.4-0.1-0.7-0.2-1.1c-0.2-0.4-0.7-0.5-1.1-0.3c-0.1,0.1-0.2,0.2-0.3,0.3c-0.2,0.3-0.2,0.7-0.2,1.1s0.1,0.8,0.2,1.2   c0.2,0.4,0.7,0.5,1.1,0.3c0.1-0.1,0.2-0.2,0.3-0.3C14.7,238.6,14.8,238.2,14.8,237.8z M19.9,241.8c0,0.5-0.2,1.1-0.5,1.5   c-0.7,0.7-1.9,0.7-2.6,0c-0.4-0.4-0.5-1-0.5-1.5s0.2-1,0.5-1.4s0.8-0.6,1.3-0.5c0.5,0,0.9,0.2,1.3,0.5   C19.7,240.8,19.9,241.3,19.9,241.8z M19,241.8c0-0.4-0.1-0.7-0.2-1.1c-0.2-0.4-0.7-0.5-1.1-0.3c-0.1,0.1-0.2,0.2-0.3,0.3   c-0.2,0.3-0.2,0.7-0.2,1.1s0.1,0.8,0.2,1.2c0.2,0.4,0.7,0.5,1.1,0.3c0.1-0.1,0.2-0.2,0.3-0.3C18.9,242.6,19,242.2,19,241.8z"></path>
</g>
<g>
	<path d="M11,182.1c0,0.3-0.1,0.7-0.2,1c-0.1,0.3-0.3,0.6-0.5,0.8c-0.2,0.3-0.5,0.5-0.9,0.6c-0.3,0.1-0.7,0.2-1,0.2   c-0.4,0-0.7-0.1-1.1-0.2c-0.3-0.1-0.6-0.3-0.8-0.6c-0.2-0.3-0.4-0.6-0.5-1s-0.2-0.9-0.2-1.3c0-1.2,0.4-2.3,1.1-3.2   c0.8-0.9,1.9-1.5,3.1-1.6l0.1,0.5l-0.5,0.1c-0.7,0.2-1.4,0.6-1.8,1.2c-0.4,0.6-0.7,1.2-0.8,1.9c0.2-0.3,0.6-0.5,0.9-0.6   c0.3-0.1,0.6-0.2,0.9-0.2c0.6,0,1.1,0.2,1.5,0.7C10.7,180.8,11,181.4,11,182.1z M9.9,182.3c0-0.5-0.1-1-0.4-1.4   c-0.3-0.3-0.7-0.5-1.1-0.5c-0.2,0-0.5,0-0.7,0.1c-0.3,0.1-0.5,0.3-0.7,0.5v0.7c0,0.7,0.1,1.4,0.4,2c0.2,0.4,0.6,0.7,1.1,0.7   c0.4,0,0.8-0.2,1-0.6C9.7,183.3,9.9,182.8,9.9,182.3z"></path>
</g>
<g>
	<path d="M15.7,178.8c0,0.5-0.2,1.1-0.5,1.5s-0.8,0.6-1.3,0.5c-0.5,0-0.9-0.2-1.3-0.5c-0.4-0.4-0.5-1-0.5-1.5s0.2-1,0.5-1.4   c0.7-0.7,1.9-0.7,2.6,0C15.5,177.8,15.7,178.3,15.7,178.8z M19.5,177l-6.3,7.6h-0.7l6.3-7.6H19.5z M14.8,178.8   c0-0.4-0.1-0.7-0.2-1.1c-0.2-0.4-0.7-0.5-1.1-0.3c-0.1,0.1-0.2,0.2-0.3,0.3c-0.2,0.3-0.2,0.7-0.2,1.1c0,0.4,0.1,0.8,0.2,1.2   c0.2,0.4,0.7,0.5,1.1,0.3c0.1-0.1,0.2-0.2,0.3-0.3C14.7,179.6,14.8,179.2,14.8,178.8z M19.9,182.8c0,0.5-0.2,1.1-0.5,1.5   c-0.7,0.7-1.9,0.7-2.6,0c-0.4-0.4-0.5-1-0.5-1.5s0.2-1,0.5-1.4s0.8-0.6,1.3-0.5c0.5,0,0.9,0.2,1.3,0.5   C19.7,181.8,19.9,182.3,19.9,182.8z M19,182.8c0-0.4-0.1-0.7-0.2-1.1c-0.2-0.4-0.7-0.5-1.1-0.3c-0.1,0.1-0.2,0.2-0.3,0.3   c-0.2,0.3-0.2,0.7-0.2,1.1c0,0.4,0.1,0.8,0.2,1.2c0.2,0.4,0.7,0.5,1.1,0.3c0.1-0.1,0.2-0.2,0.3-0.3C18.9,183.6,19,183.2,19,182.8z"></path>
</g>
<g>
	<path d="M10.9,123.5c0,0.6-0.3,1.2-0.8,1.5c-0.6,0.4-1.3,0.6-2,0.6s-1.4-0.2-1.9-0.6s-0.7-0.9-0.7-1.5c0-0.4,0.1-0.9,0.4-1.2   s0.8-0.6,1.2-0.8c-0.4-0.2-0.7-0.5-1-0.8c-0.2-0.3-0.3-0.6-0.3-1c0-0.6,0.2-1.1,0.7-1.5s1.1-0.6,1.8-0.6c0.6,0,1.2,0.2,1.7,0.6   c0.4,0.4,0.6,0.9,0.6,1.4c0,0.4-0.1,0.7-0.4,1c-0.3,0.3-0.6,0.6-1,0.8c0.5,0.2,0.9,0.5,1.3,0.8C10.7,122.6,10.9,123,10.9,123.5z    M9.9,123.8c0-0.2,0-0.4-0.1-0.6s-0.2-0.4-0.4-0.5c-0.2-0.2-0.5-0.3-0.7-0.4c-0.4-0.1-0.7-0.3-1-0.5c-0.3,0.2-0.6,0.4-0.8,0.7   c-0.2,0.3-0.2,0.7-0.2,1c0,0.5,0.2,0.9,0.5,1.3s0.7,0.5,1.2,0.5c0.4,0,0.9-0.1,1.2-0.4C9.8,124.6,9.9,124.2,9.9,123.8z M9.6,119.7   c0-0.4-0.1-0.8-0.4-1.1c-0.6-0.5-1.4-0.5-2,0c-0.5,0.6-0.5,1.4,0,2c0.5,0.4,1,0.6,1.6,0.8c0.3-0.2,0.5-0.4,0.6-0.7   C9.5,120.4,9.6,120,9.6,119.7z"></path>
</g>
<g>
	<path d="M16,119.8c0,0.5-0.2,1.1-0.5,1.5s-0.8,0.6-1.3,0.5c-0.5,0-0.9-0.2-1.3-0.5c-0.4-0.4-0.5-1-0.5-1.5s0.2-1,0.5-1.4   c0.7-0.7,1.9-0.7,2.6,0C15.8,118.8,16,119.3,16,119.8z M19.8,117.9l-6.3,7.6h-0.7l6.3-7.6H19.8z M15.1,119.8c0-0.4-0.1-0.7-0.2-1.1   c-0.2-0.4-0.7-0.5-1.1-0.3c-0.1,0.1-0.2,0.2-0.3,0.3c-0.2,0.3-0.2,0.7-0.2,1.1s0.1,0.8,0.2,1.2c0.2,0.4,0.7,0.5,1.1,0.3   c0.1-0.1,0.2-0.2,0.3-0.3C15,120.6,15.1,120.2,15.1,119.8z M20.1,123.7c0,0.5-0.2,1.1-0.5,1.5c-0.7,0.7-1.9,0.7-2.6,0   c-0.4-0.4-0.5-1-0.5-1.5s0.2-1,0.5-1.4s0.8-0.6,1.3-0.5c0.5,0,0.9,0.2,1.3,0.5C19.9,122.7,20.1,123.2,20.1,123.7z M19.2,123.7   c0-0.4-0.1-0.7-0.2-1.1c-0.2-0.4-0.7-0.5-1.1-0.3c-0.1,0.1-0.2,0.2-0.3,0.3c-0.2,0.3-0.2,0.7-0.2,1.1s0.1,0.8,0.2,1.2   c0.2,0.4,0.7,0.5,1.1,0.3c0.1-0.1,0.2-0.2,0.3-0.3C19.1,124.5,19.2,124.1,19.2,123.7z"></path>
</g>
<text transform="matrix(1 0 0 1 0 66.4973)" class="st1 st2">1</text>
<g>
	<path d="M10.3,61.5c0.2,0.3,0.4,0.6,0.5,1c0.3,0.8,0.3,1.7,0,2.5c-0.1,0.4-0.3,0.7-0.6,1c-0.2,0.3-0.5,0.5-0.9,0.6   s-0.7,0.2-1.1,0.2c-0.4,0-0.8-0.1-1.2-0.2c-0.3-0.2-0.6-0.4-0.9-0.6c-0.2-0.3-0.4-0.6-0.5-1c-0.3-0.8-0.3-1.6,0-2.4   c0.1-0.4,0.3-0.7,0.5-1C6.3,61.3,6.6,61,7,60.9c0.4-0.2,0.8-0.2,1.2-0.2s0.9,0.1,1.3,0.2C9.8,61,10.1,61.2,10.3,61.5z M9.8,63.6   c0-0.7-0.1-1.4-0.4-2c-0.4-0.7-1.2-0.9-1.9-0.5c-0.2,0.1-0.4,0.3-0.5,0.5c-0.3,0.6-0.5,1.3-0.4,2c-0.1,0.7,0.1,1.3,0.4,1.9   c0.4,0.7,1.2,0.9,1.9,0.5c0.2-0.1,0.4-0.3,0.5-0.5C9.7,64.9,9.8,64.2,9.8,63.6z"></path>
</g>
<g>
	<path d="M15.9,60.7c0,0.5-0.2,1.1-0.5,1.5s-0.8,0.6-1.3,0.5c-0.5,0-0.9-0.2-1.3-0.5c-0.4-0.4-0.5-1-0.5-1.5s0.2-1,0.5-1.4   c0.7-0.7,1.9-0.7,2.6,0C15.7,59.7,15.9,60.2,15.9,60.7z M19.7,58.9l-6.3,7.6h-0.8l6.3-7.6H19.7z M15,60.7c0-0.4-0.1-0.7-0.2-1.1   c-0.2-0.4-0.7-0.5-1.1-0.3c-0.1,0.1-0.2,0.2-0.3,0.3c-0.2,0.3-0.2,0.7-0.2,1.1s0.1,0.8,0.2,1.2c0.2,0.4,0.7,0.5,1.1,0.3   c0.1-0.1,0.2-0.2,0.3-0.3C14.9,61.5,15,61.1,15,60.7z M20,64.7c0,0.5-0.2,1.1-0.5,1.5c-0.7,0.7-1.9,0.7-2.6,0   c-0.4-0.4-0.5-1-0.5-1.5s0.2-1,0.5-1.4c0.3-0.4,0.8-0.6,1.3-0.5c0.5,0,0.9,0.2,1.3,0.5C19.9,63.6,20,64.2,20,64.7z M19.1,64.7   c0-0.4-0.1-0.7-0.2-1.1c-0.2-0.4-0.7-0.5-1.1-0.3c-0.1,0.1-0.2,0.2-0.3,0.3c-0.2,0.3-0.2,0.7-0.2,1.1c0,0.4,0.1,0.8,0.2,1.2   c0.2,0.4,0.7,0.5,1.1,0.3c0.1-0.1,0.2-0.2,0.3-0.3C19,65.5,19.1,65.1,19.1,64.7z"></path>
</g>
<polygon class="st3" points="244,188.3 299.4,188.3 299.4,358.2 244,358.2 "></polygon>
<polygon class="st3" points="227.6,379.4 233.1,379.4 233.1,384.9 227.6,384.9 "></polygon>
<g>
	<path d="M239.5,385.8c-0.5,0-0.9-0.1-1.3-0.3c-0.4-0.2-0.8-0.4-1.1-0.8c-0.3-0.3-0.6-0.8-0.8-1.2c-0.2-0.5-0.3-1.1-0.3-1.6   c0-0.6,0.1-1.2,0.3-1.7s0.4-0.9,0.8-1.3c0.3-0.4,0.7-0.7,1.2-0.8c0.4-0.2,0.9-0.3,1.4-0.3c0.3,0,0.7,0,1,0.1s0.6,0.2,0.9,0.4   l0.2-0.4h0.4v2.7h-0.4c-0.1-0.3-0.2-0.6-0.3-0.9c-0.2-0.4-0.2-0.6-0.4-0.8l-0.6-0.6c-0.2-0.1-0.5-0.2-0.8-0.2s-0.7,0.1-1,0.2   c-0.3,0.2-0.6,0.4-0.8,0.7c-0.2,0.3-0.4,0.7-0.5,1.1c-0.1,0.5-0.2,1-0.2,1.5c0,0.4,0.1,0.9,0.2,1.3c0.1,0.4,0.3,0.8,0.5,1.1   c0.2,0.3,0.5,0.5,0.8,0.7s0.6,0.3,1,0.3c0.3,0,0.5,0,0.8-0.1c0.2-0.1,0.5-0.2,0.6-0.4l0.5-0.5c0.1-0.2,0.2-0.5,0.3-0.7l0.4,0.2   c-0.2,0.7-0.6,1.2-1.2,1.6C240.8,385.7,240.2,385.8,239.5,385.8z"></path>
</g>
<g>
	<path d="M248,382.9c0,0.4-0.1,0.7-0.2,1.1c-0.1,0.3-0.3,0.7-0.5,0.9c-0.2,0.3-0.5,0.5-0.9,0.6s-0.7,0.2-1.1,0.2   c-0.3,0-0.7-0.1-1-0.2s-0.6-0.3-0.8-0.6c-0.2-0.3-0.4-0.6-0.6-0.9c-0.1-0.4-0.2-0.8-0.2-1.2c0-0.7,0.2-1.5,0.7-2s1.2-0.8,1.9-0.8   s1.3,0.2,1.8,0.7C247.7,381.3,248,382.1,248,382.9z M246.9,383c0-0.3,0-0.5-0.1-0.8s-0.1-0.6-0.2-0.8c-0.1-0.2-0.3-0.4-0.5-0.5   c-0.4-0.3-1-0.3-1.4,0c-0.2,0.1-0.4,0.3-0.5,0.6c-0.1,0.2-0.2,0.5-0.2,0.7c0,0.3-0.1,0.5-0.1,0.8s0,0.7,0.1,1s0.2,0.6,0.3,0.8   c0.1,0.2,0.3,0.4,0.5,0.5s0.5,0.2,0.7,0.2c0.4,0,0.9-0.2,1.1-0.6C246.9,384.3,247,383.6,246.9,383L246.9,383z"></path>
</g>
<g>
	<path d="M253,381c0,0.2,0,0.3-0.1,0.5c-0.1,0.1-0.2,0.2-0.4,0.2s-0.4-0.1-0.5-0.2s-0.2-0.2-0.2-0.3v-0.4c-0.2,0-0.4,0.1-0.6,0.2   c-0.2,0.1-0.5,0.4-0.6,0.6v3.1c0,0.1,0,0.2,0.1,0.3l0.2,0.2c0.1,0,0.2,0.1,0.3,0.1h0.4v0.4h-2.8v-0.4h0.5c0.1,0,0.2-0.1,0.2-0.2   s0.1-0.2,0.1-0.3v-3.3c0-0.1,0-0.2-0.1-0.3c-0.1-0.1-0.1-0.2-0.2-0.3s-0.1-0.1-0.2-0.1h-0.3v-0.4l1.8-0.1l0.1,0.1v0.7l0,0   c0.2-0.3,0.4-0.5,0.7-0.7c0.2-0.1,0.5-0.2,0.7-0.2s0.4,0.1,0.5,0.2C253,380.6,253,380.8,253,381z"></path>
</g>
<g>
	<path d="M257.9,381c0.2,0.2,0.4,0.6,0.5,0.9c0.1,0.4,0.2,0.7,0.2,1.1s-0.1,0.7-0.2,1.1c-0.1,0.3-0.3,0.7-0.6,0.9   c-0.2,0.2-0.5,0.4-0.8,0.6s-0.6,0.2-0.9,0.2c-0.3,0-0.5,0-0.8-0.1c-0.2-0.1-0.3-0.2-0.5-0.3l0,0v1.6c0,0.1,0,0.2,0.1,0.3   c0,0.1,0.1,0.1,0.2,0.2s0.2,0.1,0.4,0.1s0.3,0,0.4,0.1v0.4h-3v-0.4h0.3c0.1,0,0.2,0,0.3-0.1c0.1,0,0.2-0.1,0.2-0.2s0.1-0.2,0.1-0.3   v-5.6c0-0.1,0-0.2-0.1-0.3c-0.1-0.1-0.1-0.2-0.2-0.2s-0.2-0.1-0.3-0.1h-0.3v-0.4l1.8-0.1l0.1,0.1v0.6l0,0c0.2-0.2,0.4-0.4,0.7-0.5   s0.5-0.2,0.8-0.2s0.6,0.1,0.9,0.2C257.5,380.6,257.7,380.8,257.9,381z M257.1,384.8c0.1-0.3,0.2-0.5,0.3-0.8c0.1-0.3,0.1-0.7,0.1-1   s0-0.5-0.1-0.8s-0.1-0.5-0.3-0.7c-0.1-0.2-0.3-0.4-0.5-0.5c-0.4-0.3-1-0.3-1.4,0c-0.2,0.1-0.3,0.3-0.5,0.4v3.1   c0,0.1,0.1,0.2,0.2,0.3s0.2,0.2,0.2,0.3c0.1,0.1,0.2,0.2,0.4,0.2c0.1,0.1,0.3,0.1,0.5,0.1c0.2,0,0.4-0.1,0.6-0.2   C256.8,385.1,257,385,257.1,384.8z"></path>
</g>
<g>
	<path d="M265.2,382.9c0,0.4-0.1,0.7-0.2,1.1c-0.1,0.3-0.3,0.7-0.5,0.9c-0.2,0.3-0.5,0.5-0.9,0.6s-0.7,0.2-1.1,0.2   c-0.3,0-0.7-0.1-1-0.2s-0.6-0.3-0.8-0.6c-0.2-0.3-0.4-0.6-0.6-0.9c-0.1-0.4-0.2-0.8-0.2-1.2c0-0.7,0.2-1.5,0.7-2s1.2-0.8,1.9-0.8   c0.7,0,1.3,0.2,1.8,0.7C264.9,381.3,265.2,382.1,265.2,382.9z M264.1,383c0-0.3,0-0.5-0.1-0.8s-0.1-0.6-0.2-0.8   c-0.1-0.2-0.3-0.4-0.5-0.5c-0.4-0.3-1-0.3-1.4,0c-0.2,0.1-0.4,0.3-0.5,0.6c-0.1,0.2-0.2,0.5-0.2,0.7c0,0.3-0.1,0.5-0.1,0.8   s0,0.7,0.1,1s0.2,0.6,0.3,0.8c0.1,0.2,0.3,0.4,0.5,0.5s0.5,0.2,0.7,0.2c0.4,0,0.9-0.2,1.1-0.6C264.1,384.3,264.2,383.6,264.1,383z"></path>
</g>
<g>
	<path d="M269.6,381c0,0.2,0,0.3-0.1,0.5c-0.1,0.1-0.2,0.2-0.4,0.2c-0.2,0-0.4-0.1-0.5-0.2s-0.2-0.2-0.2-0.3v-0.4   c-0.2,0-0.4,0.1-0.6,0.2s-0.5,0.4-0.6,0.6v3.1c0,0.1,0,0.2,0.1,0.3l0.2,0.2c0.1,0,0.2,0.1,0.3,0.1h0.4v0.4h-2.8v-0.4h0.5   c0.1,0,0.2-0.1,0.2-0.2s0.1-0.2,0.1-0.3v-3.3c0-0.1,0-0.2-0.1-0.3c-0.1-0.1-0.1-0.2-0.2-0.3s-0.1-0.1-0.2-0.1h-0.3v-0.4l1.8-0.1   l0.1,0.1v0.7l0,0c0.2-0.3,0.4-0.5,0.7-0.7c0.2-0.1,0.5-0.2,0.7-0.2s0.4,0.1,0.5,0.2C269.4,380.5,269.6,380.7,269.6,381z"></path>
</g>
<g>
	<path d="M275.2,385.5c-0.1,0.1-0.3,0.1-0.4,0.1s-0.3,0.1-0.4,0.1c-0.2,0-0.5-0.1-0.7-0.2s-0.3-0.4-0.3-0.6l0,0   c-0.2,0.3-0.4,0.5-0.7,0.6c-0.3,0.1-0.7,0.2-1,0.2c-0.4,0-0.7-0.1-1-0.4c-0.3-0.2-0.4-0.6-0.4-1c0-0.2,0-0.4,0.1-0.5   c0.1-0.2,0.1-0.3,0.3-0.4c0.1-0.1,0.2-0.2,0.4-0.3c0.2-0.1,0.3-0.2,0.4-0.2c0.3-0.1,0.7-0.2,1-0.3c0.5-0.2,0.8-0.3,1-0.4v-0.8   c0-0.2-0.1-0.3-0.1-0.4l-0.3-0.3c-0.1-0.1-0.3-0.1-0.6-0.1c-0.2,0-0.3,0-0.5,0.1c-0.1,0-0.2,0.1-0.3,0.2c0,0.1,0,0.2,0.1,0.3   c0,0.1,0.1,0.3,0.1,0.4s-0.1,0.2-0.2,0.3c-0.1,0.1-0.3,0.2-0.5,0.2s-0.3-0.1-0.4-0.2s-0.1-0.3-0.1-0.4c0-0.2,0.1-0.3,0.2-0.5   s0.3-0.3,0.5-0.4l0.6-0.3c0.2-0.1,0.5-0.1,0.7-0.1c0.3,0,0.5,0,0.8,0.1c0.2,0,0.4,0.1,0.6,0.3c0.2,0.1,0.3,0.3,0.4,0.5   c0.1,0.3,0.1,0.6,0.1,0.9v2.7c0,0.1,0,0.3,0.1,0.3c0,0.1,0.1,0.2,0.2,0.2s0.1,0.1,0.3,0.1h0.4v0.2L275.2,385.5z M273.4,382.7   c-0.3,0.1-0.5,0.2-0.8,0.3l-0.6,0.3c-0.2,0.1-0.3,0.3-0.4,0.4c-0.1,0.2-0.2,0.4-0.2,0.6s0.1,0.5,0.2,0.7c0.2,0.1,0.4,0.2,0.6,0.2   s0.5-0.1,0.7-0.2s0.4-0.2,0.5-0.4L273.4,382.7z"></path>
</g>
<g>
	<path d="M279,385.4c-0.2,0.1-0.5,0.2-0.7,0.2c-0.3,0.1-0.5,0.1-0.8,0.1c-0.4,0-0.8-0.1-0.9-0.3c-0.2-0.2-0.3-0.6-0.3-0.9v-3.6h-1   v-0.5h1v-1.6h1v1.6h1.5v0.5h-1.5v3.5c0,0.1,0.1,0.3,0.1,0.4s0.1,0.2,0.3,0.2c0.1,0.1,0.3,0.1,0.5,0.1h0.4c0.2,0,0.3,0,0.4-0.1   V385.4z"></path>
</g>
<g>
	<path d="M283.9,384.4c-0.2,0.4-0.5,0.8-0.9,1s-0.8,0.4-1.3,0.4c-0.4,0-0.7-0.1-1.1-0.2c-0.3-0.1-0.6-0.3-0.8-0.6   c-0.2-0.3-0.4-0.6-0.5-0.9c-0.1-0.4-0.2-0.7-0.2-1.1c0-0.3,0.1-0.7,0.2-1s0.3-0.6,0.5-0.9s0.5-0.5,0.8-0.6c0.3-0.2,0.7-0.2,1-0.2   s0.7,0.1,1,0.2s0.5,0.3,0.7,0.5s0.3,0.4,0.4,0.7c0.1,0.3,0.1,0.6,0.1,0.9v0.4h-3.5c0,0.3,0,0.6,0.1,0.9c0.1,0.2,0.2,0.5,0.3,0.7   c0.1,0.2,0.3,0.4,0.5,0.5c0.8,0.4,1.8,0.2,2.2-0.6c0-0.1,0.1-0.1,0.1-0.2L283.9,384.4z M282.8,382.4c0-0.2,0-0.4-0.1-0.6   c0-0.2-0.1-0.4-0.2-0.6s-0.2-0.3-0.3-0.4c-0.2-0.1-0.4-0.2-0.6-0.2c-0.4,0-0.7,0.2-0.9,0.5c-0.3,0.4-0.4,0.8-0.4,1.3L282.8,382.4z"></path>
</g>
<g>
	<path d="M293,382.1c0.2,0.2,0.4,0.4,0.6,0.6c0.3,0.6,0.3,1.2,0,1.8c-0.1,0.2-0.4,0.5-0.6,0.6c-0.2,0.2-0.5,0.3-0.8,0.4   s-0.6,0.1-0.9,0.1h-3.6v-0.4h0.4c0.2,0,0.3-0.1,0.4-0.1s0.2-0.1,0.2-0.2s0.1-0.2,0.1-0.3v-5.5c0-0.1,0-0.2-0.1-0.3   c0-0.1-0.1-0.2-0.2-0.2c-0.1-0.1-0.2-0.1-0.4-0.1c-0.1,0-0.2,0-0.3-0.1V378h3.5c0.3,0,0.5,0,0.8,0.1c0.2,0.1,0.5,0.1,0.7,0.3   c0.2,0.1,0.4,0.3,0.5,0.5s0.2,0.5,0.2,0.8c0,0.2,0,0.5-0.1,0.7s-0.2,0.4-0.4,0.5c-0.2,0.1-0.4,0.3-0.6,0.4s-0.5,0.2-0.7,0.2l0,0   c0.2,0,0.5,0.1,0.7,0.2C292.6,381.8,292.8,382,293,382.1z M291.7,381c0.1-0.2,0.2-0.3,0.3-0.5c0.1-0.2,0.1-0.4,0.1-0.6   c0-0.4-0.1-0.7-0.3-1c-0.3-0.3-0.7-0.5-1.1-0.4h-0.8v2.9h0.7c0.3,0,0.5,0,0.8-0.1C291.4,381.2,291.6,381.1,291.7,381L291.7,381z    M292.4,383.4c0-0.4-0.2-0.8-0.5-1.1c-0.4-0.3-0.8-0.5-1.3-0.4h-1v2.7c0,0.2,0.1,0.4,0.3,0.5c0.2,0.1,0.5,0.2,0.8,0.2   c0.5,0,0.9-0.2,1.2-0.5C292.3,384.4,292.5,383.9,292.4,383.4L292.4,383.4z"></path>
</g>
<g>
	<path d="M299.4,382.9c0,0.4-0.1,0.7-0.2,1.1c-0.1,0.3-0.3,0.7-0.5,0.9c-0.2,0.3-0.5,0.5-0.9,0.6s-0.7,0.2-1.1,0.2   c-0.3,0-0.7-0.1-1-0.2s-0.6-0.3-0.8-0.6c-0.2-0.3-0.4-0.6-0.6-0.9c-0.1-0.4-0.2-0.8-0.2-1.2c0-0.7,0.2-1.5,0.7-2s1.2-0.8,1.9-0.8   c0.7,0,1.3,0.2,1.8,0.7C299.1,381.3,299.4,382.1,299.4,382.9z M298.3,383c0-0.3,0-0.5-0.1-0.8s-0.1-0.6-0.2-0.8   c-0.1-0.2-0.3-0.4-0.5-0.5c-0.4-0.3-1-0.3-1.4,0c-0.2,0.1-0.4,0.3-0.5,0.6c-0.1,0.2-0.2,0.5-0.2,0.7s-0.1,0.5-0.1,0.8s0,0.7,0.1,1   s0.2,0.6,0.3,0.8c0.1,0.2,0.3,0.4,0.5,0.5s0.5,0.2,0.7,0.2c0.4,0,0.9-0.2,1.1-0.6C298.3,384.3,298.4,383.6,298.3,383z"></path>
</g>
<g>
	<path d="M306.3,385.6h-2.6v-0.4h0.5c0.1,0,0.2-0.1,0.2-0.2s0.1-0.2,0.1-0.3V382c0-0.3-0.1-0.7-0.3-0.9c-0.2-0.2-0.4-0.3-0.6-0.3   s-0.4,0-0.5,0.1s-0.3,0.1-0.4,0.2l-0.3,0.3c-0.1,0.1-0.1,0.2-0.2,0.2v3c0,0.1,0,0.2,0.1,0.3c0,0.1,0.1,0.1,0.2,0.2   c0.1,0,0.1,0,0.2,0.1h0.3v0.4h-2.6v-0.4h0.5c0.1,0,0.2-0.1,0.2-0.2s0.1-0.2,0.1-0.3v-3.3c0-0.1,0-0.2-0.1-0.3   c-0.1-0.1-0.1-0.2-0.2-0.2s-0.1-0.1-0.2-0.1h-0.3v-0.4l1.8-0.1l0.1,0.1v0.7l0,0l0.3-0.3c0.1-0.1,0.3-0.2,0.4-0.3   c0.1-0.1,0.3-0.2,0.5-0.2c0.2-0.1,0.4-0.1,0.6-0.1c0.4,0,0.8,0.2,1.1,0.5c0.3,0.4,0.4,0.8,0.4,1.3v2.7c0,0.1,0,0.2,0.1,0.3   c0,0.1,0.1,0.1,0.2,0.2c0.1,0,0.1,0,0.2,0.1h0.3v0.3L306.3,385.6z"></path>
</g>
<g>
	<path d="M312.5,385.5l-1.8,0.1l-0.1-0.1V385l0,0c-0.2,0.2-0.4,0.4-0.7,0.5c-0.3,0.1-0.5,0.2-0.8,0.2s-0.6-0.1-0.9-0.2   s-0.5-0.3-0.7-0.6c-0.2-0.2-0.4-0.6-0.5-0.9c-0.1-0.4-0.2-0.7-0.2-1.1s0.1-0.7,0.2-1.1c0.1-0.3,0.3-0.6,0.5-0.9   c0.2-0.2,0.5-0.4,0.8-0.6c0.3-0.1,0.7-0.2,1-0.2c0.2,0,0.5,0,0.7,0.1s0.4,0.1,0.6,0.2v-1.8c0-0.2,0-0.3-0.1-0.4s-0.1-0.2-0.2-0.3   s-0.2-0.1-0.4-0.1c-0.2,0-0.3-0.1-0.5-0.1v-0.3l2.2-0.1l0.1,0.1v7.1c0,0.1,0,0.2,0.1,0.3c0,0.1,0.1,0.2,0.2,0.2s0.2,0.1,0.3,0.1   h0.4v0.4L312.5,385.5z M310.5,384.6v-3.1c0-0.1-0.1-0.2-0.1-0.3s-0.1-0.2-0.2-0.3c-0.1-0.1-0.2-0.2-0.4-0.2   c-0.1-0.1-0.3-0.1-0.5-0.1s-0.4,0.1-0.6,0.2s-0.3,0.3-0.5,0.5c-0.1,0.3-0.2,0.5-0.3,0.8c-0.1,0.3-0.1,0.7-0.1,1s0,0.5,0.1,0.8   c0.1,0.2,0.2,0.5,0.3,0.7c0.1,0.2,0.3,0.4,0.5,0.5c0.4,0.3,1,0.3,1.4,0C310.3,385,310.4,384.8,310.5,384.6z"></path>
</g>
<g>
	<path d="M317,383.1c0.1,0.1,0.3,0.3,0.3,0.4s0.1,0.4,0.1,0.6c0,0.5-0.2,0.9-0.5,1.2c-0.4,0.3-0.9,0.5-1.4,0.5   c-0.3,0-0.6-0.1-0.8-0.2c-0.2-0.1-0.4-0.2-0.6-0.3l-0.1,0.3h-0.4l-0.1-1.8h0.4c0,0.2,0.1,0.3,0.2,0.5s0.2,0.3,0.3,0.5   c0.1,0.2,0.3,0.3,0.5,0.4s0.5,0.2,0.7,0.2c0.3,0,0.6-0.1,0.8-0.2c0.2-0.2,0.3-0.4,0.3-0.7c0-0.2,0-0.3-0.1-0.4s-0.1-0.2-0.3-0.3   c-0.1-0.1-0.2-0.2-0.4-0.2c-0.2-0.1-0.4-0.1-0.6-0.2c-0.2,0-0.4-0.1-0.6-0.2s-0.3-0.2-0.5-0.3c-0.2-0.1-0.3-0.3-0.4-0.5   s-0.2-0.4-0.2-0.6c0-0.4,0.2-0.8,0.5-1.1c0.4-0.3,0.8-0.4,1.3-0.4c0.2,0,0.4,0,0.6,0.1s0.4,0.1,0.5,0.2l0.1-0.3h0.4l0.1,1.7h-0.3   c0-0.4-0.2-0.7-0.5-0.9c-0.3-0.2-0.6-0.4-0.9-0.4c-0.2,0-0.5,0.1-0.7,0.2s-0.3,0.3-0.3,0.5s0,0.3,0.1,0.4s0.1,0.2,0.2,0.3   s0.2,0.1,0.4,0.2s0.4,0.1,0.6,0.2s0.5,0.2,0.7,0.3C316.6,382.8,316.9,382.9,317,383.1z"></path>
</g>
<polygon class="st4" points="346.6,136.7 402.9,136.7 402.9,358.2 346.6,358.2 "></polygon>
<polygon class="st4" points="327.1,379.4 332.5,379.4 332.5,384.9 327.1,384.9 "></polygon>
<g>
	<path d="M341.3,379.9c0,0.4-0.1,0.7-0.2,1.1c-0.2,0.3-0.4,0.6-0.6,0.8c-0.3,0.2-0.6,0.3-0.9,0.4s-0.7,0.1-1,0.1h-0.9v2.3   c0,0.1,0,0.2,0.1,0.3c0,0.1,0.1,0.2,0.3,0.2c0.1,0,0.2,0,0.3,0.1h0.4v0.4h-3.3v-0.4h0.4c0.2,0,0.3,0,0.3-0.1c0.1,0,0.2-0.1,0.2-0.2   s0.1-0.2,0.1-0.3v-5.5c0-0.1,0-0.2-0.1-0.3c0-0.1-0.1-0.2-0.3-0.2s-0.3-0.1-0.4-0.1h-0.3V378h3.5c0.6,0,1.2,0.2,1.7,0.5   C341,378.8,341.3,379.3,341.3,379.9z M339.6,381.2c0.1-0.2,0.2-0.3,0.2-0.5s0.1-0.3,0.1-0.5s0-0.4-0.1-0.6c0-0.2-0.1-0.4-0.3-0.6   c-0.1-0.2-0.3-0.3-0.5-0.4c-0.3-0.1-0.5-0.1-0.8-0.1h-0.8v3.4h0.5c0.3,0,0.6-0.1,0.9-0.2C339.3,381.5,339.5,381.4,339.6,381.2   L339.6,381.2z"></path>
</g>
<g>
	<path d="M347.8,385.5l-1.7,0.1l-0.1-0.1v-0.7l0,0l-0.3,0.3c-0.1,0.1-0.2,0.2-0.4,0.3c-0.2,0.1-0.3,0.2-0.5,0.2s-0.4,0.1-0.6,0.1   c-0.4,0-0.8-0.2-1.1-0.5c-0.3-0.4-0.4-0.8-0.4-1.3v-2.5c0-0.1,0-0.2-0.1-0.3c0-0.1-0.1-0.2-0.2-0.2s-0.1-0.1-0.2-0.1h-0.3v-0.4   l1.8-0.1l0.1,0.1v3.7c0,0.3,0.1,0.7,0.3,0.9c0.2,0.2,0.4,0.3,0.6,0.3s0.4,0,0.5-0.1c0.2-0.1,0.3-0.1,0.4-0.2s0.2-0.2,0.3-0.2   s0.1-0.2,0.2-0.2v-3c0-0.1,0-0.2-0.1-0.3c0-0.1-0.1-0.2-0.2-0.2s-0.2-0.1-0.3-0.1h-0.4v-0.4l1.9-0.1l0.1,0.1v4.2   c0,0.1,0,0.2,0.1,0.3c0,0.1,0.1,0.2,0.2,0.2s0.1,0.1,0.2,0.1h0.3L347.8,385.5L347.8,385.5z"></path>
</g>
<g>
	<path d="M353.7,383c0,0.7-0.3,1.5-0.8,2c-0.4,0.5-1,0.8-1.7,0.8c-0.3,0-0.6,0-0.9-0.1s-0.6-0.2-0.8-0.4l-0.4,0.6l-0.3-0.1v-7.3   c0-0.1,0-0.3-0.1-0.4s-0.1-0.2-0.2-0.3s-0.2-0.1-0.3-0.1h-0.4v-0.3l1.9-0.1l0.1,0.1v3.5l0,0c0.2-0.2,0.4-0.4,0.7-0.5   c0.3-0.1,0.5-0.2,0.8-0.2c0.6,0,1.2,0.3,1.6,0.8C353.5,381.5,353.8,382.2,353.7,383z M352.6,383c0-0.3,0-0.5-0.1-0.8   s-0.1-0.5-0.3-0.7c-0.1-0.2-0.3-0.4-0.5-0.5s-0.5-0.2-0.7-0.2s-0.5,0-0.7,0.1s-0.4,0.2-0.5,0.4v3.1c0,0.1,0.1,0.2,0.1,0.3   s0.1,0.2,0.3,0.3c0.1,0.1,0.2,0.2,0.4,0.2c0.2,0,0.3,0.1,0.5,0.1c0.4,0,0.9-0.2,1.1-0.6C352.5,384.2,352.6,383.6,352.6,383z"></path>
</g>
<g>
	<path d="M357,385.6h-2.6v-0.4h0.5c0.1,0,0.2-0.1,0.2-0.2c0.1-0.1,0.1-0.2,0.1-0.3v-6.1c0-0.1,0-0.3-0.1-0.4s-0.1-0.2-0.2-0.3   s-0.2-0.1-0.4-0.1s-0.3-0.1-0.4-0.1v-0.3l2-0.1l0.1,0.1v7.2c0,0.1,0,0.2,0.1,0.3c0,0.1,0.1,0.1,0.2,0.2c0.1,0,0.1,0,0.2,0.1h0.3   L357,385.6L357,385.6z"></path>
</g>
<g>
	<path d="M360.5,385.6h-2.6v-0.4h0.5c0.1,0,0.2-0.1,0.2-0.2s0.1-0.2,0.1-0.3v-3.3c0-0.1,0-0.2-0.1-0.3c-0.1-0.1-0.1-0.2-0.2-0.2   s-0.2-0.1-0.3-0.1c-0.1,0-0.3,0-0.4-0.1v-0.4l1.9-0.1l0.1,0.1v4.3c0,0.1,0,0.2,0.1,0.3c0,0.1,0.1,0.1,0.2,0.2c0.1,0,0.1,0,0.2,0.1   h0.3L360.5,385.6L360.5,385.6z M359.8,378.2c0,0.2-0.1,0.4-0.2,0.5c-0.1,0.2-0.3,0.2-0.5,0.2s-0.3-0.1-0.5-0.2   c-0.3-0.3-0.2-0.7,0.1-1c0.3-0.2,0.6-0.2,0.9,0C359.8,377.8,359.8,378,359.8,378.2z"></path>
</g>
<g>
	<path d="M363.2,385.8c-0.7,0-1.4-0.3-1.8-0.8c-0.4-0.6-0.6-1.3-0.6-2c0-0.3,0.1-0.7,0.2-1s0.3-0.6,0.5-0.9s0.5-0.5,0.8-0.6   s0.7-0.2,1-0.2c0.5,0,0.9,0.1,1.3,0.4c0.3,0.2,0.5,0.6,0.5,1c0,0.2,0,0.3-0.1,0.5c-0.1,0.1-0.2,0.2-0.4,0.2c-0.2,0-0.4-0.1-0.5-0.2   s-0.2-0.2-0.2-0.4c0-0.2,0-0.3,0.1-0.5c0.1-0.1,0.1-0.3,0.1-0.4c-0.1-0.1-0.2-0.2-0.3-0.2s-0.3-0.1-0.4-0.1c-0.2,0-0.3,0-0.5,0.1   s-0.4,0.2-0.5,0.4c-0.1,0.2-0.2,0.5-0.3,0.7c-0.1,0.4-0.1,0.7-0.1,1.1c0,0.6,0.1,1.1,0.4,1.6c0.3,0.4,0.7,0.6,1.2,0.6   c0.3,0,0.6-0.1,0.9-0.3c0.3-0.2,0.5-0.5,0.6-0.8l0.3,0.2c-0.2,0.4-0.5,0.8-0.9,1C364.2,385.6,363.7,385.8,363.2,385.8z"></path>
</g>
<g>
	<path d="M375.8,385.6h-2c-0.5-0.7-0.9-1.3-1.2-1.8c-0.4-0.5-0.8-1.1-1.2-1.6h-0.9v2.4c0,0.1,0,0.2,0.1,0.3c0,0.1,0.1,0.2,0.3,0.2   c0.1,0,0.2,0,0.3,0.1h0.4v0.4h-3.2v-0.4h0.4c0.2,0,0.3,0,0.3-0.1c0.1,0,0.2-0.1,0.2-0.2s0.1-0.2,0.1-0.3v-5.5c0-0.1,0-0.2-0.1-0.3   c0-0.1-0.1-0.2-0.3-0.2s-0.2-0.1-0.3-0.1c-0.1,0-0.3,0-0.4-0.1V378h3.5c0.3,0,0.6,0,0.9,0.1s0.5,0.2,0.8,0.3   c0.2,0.1,0.4,0.3,0.5,0.6c0.1,0.2,0.2,0.5,0.2,0.8s0,0.5-0.1,0.8c-0.2,0.5-0.5,0.8-1,1c-0.2,0.1-0.5,0.2-0.7,0.3   c0.3,0.4,0.6,0.8,0.9,1.3c0.2,0.3,0.6,0.8,0.9,1.2c0.2,0.2,0.3,0.4,0.4,0.5s0.2,0.2,0.4,0.2c0.1,0,0.2,0.1,0.3,0.1h0.3v0.4   L375.8,385.6z M373,380c0.1-0.8-0.5-1.4-1.2-1.5c-0.1,0-0.2,0-0.3,0h-1v3.3h0.7c0.5,0,0.9-0.2,1.2-0.5C372.8,381,373,380.5,373,380   z"></path>
</g>
<g>
	<path d="M381.2,384.4c-0.2,0.4-0.5,0.8-0.9,1c-0.4,0.3-0.8,0.4-1.3,0.4c-0.4,0-0.7-0.1-1.1-0.2c-0.3-0.1-0.6-0.3-0.8-0.6   c-0.2-0.3-0.4-0.6-0.5-0.9c-0.1-0.4-0.2-0.7-0.2-1.1c0-0.3,0.1-0.7,0.2-1s0.3-0.6,0.5-0.9s0.5-0.5,0.8-0.6c0.3-0.2,0.7-0.2,1-0.2   s0.7,0.1,1,0.2s0.5,0.3,0.7,0.5s0.3,0.4,0.4,0.7c0.1,0.3,0.1,0.6,0.1,0.9v0.4h-3.6c0,0.3,0,0.6,0.1,0.9c0.1,0.2,0.2,0.5,0.3,0.7   c0.1,0.2,0.3,0.4,0.5,0.5c0.8,0.4,1.8,0.2,2.2-0.6c0-0.1,0.1-0.1,0.1-0.2L381.2,384.4z M380,382.4c0-0.2,0-0.4-0.1-0.6   c0-0.2-0.1-0.4-0.2-0.6s-0.2-0.3-0.3-0.4c-0.2-0.1-0.4-0.2-0.6-0.2c-0.4,0-0.7,0.2-0.9,0.5c-0.3,0.4-0.4,0.8-0.4,1.3L380,382.4z"></path>
</g>
<g>
	<path d="M386.3,385.5c-0.1,0.1-0.3,0.1-0.4,0.1s-0.3,0.1-0.4,0.1c-0.2,0-0.5-0.1-0.7-0.2s-0.3-0.4-0.3-0.6l0,0   c-0.2,0.3-0.4,0.5-0.7,0.6c-0.3,0.1-0.7,0.2-1,0.2c-0.4,0-0.7-0.1-1-0.4c-0.3-0.2-0.4-0.6-0.4-1c0-0.2,0-0.4,0.1-0.5   c0.1-0.2,0.1-0.3,0.3-0.4c0.1-0.1,0.2-0.2,0.4-0.3c0.2-0.1,0.3-0.2,0.4-0.2c0.3-0.1,0.7-0.2,1-0.3c0.4-0.1,0.7-0.2,1-0.4v-0.8   c0-0.1-0.1-0.3-0.1-0.4l-0.3-0.3c-0.1-0.1-0.3-0.1-0.6-0.1c-0.2,0-0.3,0-0.5,0.1c-0.1,0.1-0.2,0.1-0.3,0.2c0,0.1,0,0.2,0.1,0.3   c0,0.1,0.1,0.3,0.1,0.4s-0.1,0.2-0.2,0.3c-0.1,0.1-0.3,0.2-0.5,0.2s-0.3-0.1-0.4-0.2s-0.1-0.3-0.1-0.4c0-0.2,0.1-0.3,0.2-0.5   s0.3-0.3,0.5-0.4l0.6-0.3c0.2-0.1,0.5-0.1,0.7-0.1c0.3,0,0.5,0,0.8,0.1c0.2,0.1,0.4,0.1,0.6,0.3c0.2,0.1,0.3,0.3,0.4,0.5   c0.1,0.3,0.1,0.6,0.1,0.9v2.7c0,0.1,0,0.3,0.1,0.3s0.1,0.2,0.2,0.2s0.1,0.1,0.3,0.1h0.4v0.2L386.3,385.5z M384.4,382.7   c-0.3,0.1-0.5,0.2-0.8,0.3l-0.6,0.3c-0.2,0.1-0.3,0.3-0.4,0.4c-0.1,0.2-0.2,0.4-0.2,0.6s0.1,0.5,0.2,0.7c0.2,0.1,0.4,0.2,0.6,0.2   s0.5-0.1,0.7-0.2s0.4-0.2,0.5-0.4L384.4,382.7z"></path>
</g>
<g>
	<path d="M389.3,385.6h-2.6v-0.4h0.5c0.1,0,0.2-0.1,0.2-0.2c0.1-0.1,0.1-0.2,0.1-0.3v-6.1c0-0.1,0-0.3-0.1-0.4s-0.1-0.2-0.2-0.3   s-0.2-0.1-0.4-0.1s-0.3-0.1-0.4-0.1v-0.3l2-0.1l0.1,0.1v7.2c0,0.1,0,0.2,0.1,0.3c0,0.1,0.1,0.1,0.2,0.2c0.1,0,0.1,0,0.2,0.1h0.3   L389.3,385.6L389.3,385.6z"></path>
</g>
<g>
	<path d="M399.5,383.4l-0.1,2.2h-6.3v-0.4h0.4c0.2,0,0.3,0,0.3-0.1s0.2-0.1,0.2-0.2s0.1-0.2,0.1-0.3v-5.5c0-0.1,0-0.2-0.1-0.3   c0-0.1-0.1-0.2-0.2-0.2s-0.2-0.1-0.4-0.1s-0.3-0.1-0.4-0.1V378h5.9v1.8h-0.4c-0.1-0.3-0.3-0.6-0.5-0.9c-0.1-0.3-0.4-0.4-0.7-0.5   h-2.1v3h0.9c0.3,0,0.5,0,0.6-0.1s0.2-0.1,0.3-0.3s0.1-0.2,0.2-0.4c0.1-0.2,0.1-0.3,0.1-0.5h0.4v3h-0.4c0-0.2-0.1-0.3-0.1-0.5   c-0.1-0.2-0.1-0.3-0.2-0.4s-0.2-0.2-0.4-0.3c-0.2-0.1-0.4-0.1-0.6-0.1h-0.9v2.8c0,0.1,0.1,0.2,0.2,0.3s0.2,0.1,0.4,0.1h1.7   c0.1,0,0.3,0,0.4-0.1c0.1,0,0.2-0.1,0.3-0.2c0.2-0.2,0.4-0.5,0.5-0.8c0.2-0.2,0.3-0.5,0.3-0.8h0.6L399.5,383.4z"></path>
</g>
<g>
	<path d="M403.3,383.1c0.1,0.1,0.3,0.3,0.3,0.4s0.1,0.4,0.1,0.6c0,0.5-0.2,0.9-0.5,1.2c-0.4,0.3-0.9,0.5-1.4,0.5   c-0.3,0-0.6-0.1-0.8-0.2c-0.2-0.1-0.4-0.2-0.6-0.3l-0.1,0.3h-0.4l-0.1-1.8h0.4c0,0.2,0.1,0.3,0.2,0.5s0.2,0.3,0.3,0.5   c0.1,0.2,0.3,0.3,0.5,0.4s0.5,0.2,0.7,0.2c0.3,0,0.6-0.1,0.8-0.2c0.2-0.2,0.3-0.4,0.3-0.7c0-0.2,0-0.3-0.1-0.4s-0.1-0.2-0.3-0.3   c-0.1-0.1-0.2-0.2-0.4-0.2c-0.2-0.1-0.4-0.1-0.6-0.2c-0.2,0-0.4-0.1-0.6-0.2s-0.3-0.2-0.5-0.3c-0.2-0.1-0.3-0.3-0.4-0.5   s-0.2-0.4-0.2-0.6c0-0.4,0.2-0.8,0.5-1.1c0.4-0.3,0.8-0.4,1.3-0.4c0.2,0,0.4,0,0.6,0.1s0.4,0.1,0.5,0.2l0.1-0.3h0.4l0.1,1.7H403   c0-0.4-0.2-0.7-0.5-0.9c-0.2-0.2-0.6-0.4-0.9-0.4c-0.2,0-0.5,0.1-0.7,0.2s-0.3,0.3-0.3,0.5s0,0.3,0.1,0.4s0.1,0.2,0.2,0.3   s0.2,0.1,0.4,0.2s0.4,0.1,0.6,0.2s0.5,0.2,0.7,0.3C402.9,382.8,403.1,382.9,403.3,383.1z"></path>
</g>
<g>
	<path d="M407.9,385.4c-0.2,0.1-0.5,0.2-0.7,0.2c-0.3,0.1-0.5,0.1-0.8,0.1c-0.4,0-0.8-0.1-0.9-0.3c-0.2-0.2-0.3-0.6-0.3-0.9v-3.6h-1   v-0.5h1v-1.6h1v1.6h1.5v0.5h-1.5v3.5c0,0.1,0.1,0.3,0.1,0.4s0.1,0.2,0.3,0.2s0.3,0.1,0.5,0.1h0.4c0.2,0,0.3,0,0.4-0.1V385.4z"></path>
</g>
<g>
	<path d="M413.7,385.5c-0.1,0.1-0.3,0.1-0.4,0.1s-0.3,0.1-0.4,0.1c-0.2,0-0.5-0.1-0.7-0.2s-0.3-0.4-0.3-0.6l0,0   c-0.2,0.3-0.4,0.5-0.7,0.6c-0.3,0.1-0.7,0.2-1,0.2c-0.4,0-0.7-0.1-1-0.4c-0.3-0.2-0.4-0.6-0.4-1c0-0.2,0-0.4,0.1-0.5   c0.1-0.2,0.1-0.3,0.3-0.4c0.1-0.1,0.2-0.2,0.4-0.3c0.2-0.1,0.3-0.2,0.4-0.2c0.3-0.1,0.7-0.2,1-0.3c0.4-0.1,0.7-0.2,1-0.4v-0.8   c0-0.2-0.1-0.3-0.1-0.4l-0.3-0.3c-0.1-0.1-0.3-0.1-0.6-0.1c-0.2,0-0.3,0-0.5,0.1c-0.1,0.1-0.2,0.1-0.3,0.2c0,0.1,0,0.2,0.1,0.3   c0,0.1,0.1,0.3,0.1,0.4s-0.1,0.2-0.2,0.3c-0.1,0.1-0.3,0.2-0.5,0.2s-0.3-0.1-0.4-0.2s-0.1-0.3-0.1-0.4c0-0.2,0.1-0.3,0.2-0.5   s0.3-0.3,0.5-0.4l0.6-0.3c0.2-0.1,0.5-0.1,0.7-0.1c0.3,0,0.5,0,0.8,0.1c0.2,0.1,0.4,0.1,0.6,0.3c0.2,0.1,0.3,0.3,0.4,0.5   c0.1,0.3,0.1,0.6,0.1,0.9v2.7c0,0.1,0,0.3,0.1,0.3s0.1,0.2,0.2,0.2s0.1,0.1,0.3,0.1h0.4v0.2L413.7,385.5z M411.8,382.7   c-0.3,0.1-0.5,0.2-0.8,0.3l-0.6,0.3c-0.2,0.1-0.3,0.3-0.4,0.4c-0.1,0.2-0.2,0.4-0.2,0.6s0.1,0.5,0.2,0.7c0.2,0.1,0.4,0.2,0.6,0.2   s0.5-0.1,0.7-0.2s0.4-0.2,0.5-0.4L411.8,382.7z"></path>
</g>
<g>
	<path d="M417.5,385.4c-0.2,0.1-0.5,0.2-0.7,0.2c-0.3,0.1-0.5,0.1-0.8,0.1c-0.4,0-0.8-0.1-0.9-0.3c-0.2-0.2-0.3-0.6-0.3-0.9v-3.6h-1   v-0.5h1v-1.6h1v1.6h1.5v0.5h-1.5v3.5c0,0.1,0.1,0.3,0.1,0.4s0.1,0.2,0.3,0.2s0.3,0.1,0.5,0.1h0.4c0.2,0,0.3,0,0.4-0.1V385.4z"></path>
</g>
<g>
	<path d="M422.3,384.4c-0.2,0.4-0.5,0.8-0.9,1c-0.4,0.3-0.8,0.4-1.3,0.4c-0.4,0-0.7-0.1-1.1-0.2c-0.3-0.1-0.6-0.3-0.8-0.6   c-0.2-0.3-0.4-0.6-0.5-0.9c-0.1-0.4-0.2-0.7-0.2-1.1c0-0.3,0.1-0.7,0.2-1s0.3-0.6,0.5-0.9s0.5-0.5,0.8-0.6c0.3-0.2,0.7-0.2,1-0.2   s0.7,0.1,1,0.2s0.5,0.3,0.7,0.5s0.3,0.4,0.4,0.7c0.1,0.3,0.1,0.6,0.1,0.9v0.4h-3.5c0,0.3,0,0.6,0.1,0.9c0.1,0.2,0.2,0.5,0.3,0.7   c0.1,0.2,0.3,0.4,0.5,0.5c0.8,0.4,1.8,0.2,2.2-0.6c0-0.1,0.1-0.1,0.1-0.2L422.3,384.4z M421.1,382.4c0-0.2,0-0.4-0.1-0.6   s-0.1-0.4-0.2-0.6s-0.2-0.3-0.3-0.4c-0.2-0.1-0.4-0.2-0.6-0.2c-0.4,0-0.7,0.2-0.9,0.5c-0.3,0.4-0.4,0.8-0.4,1.3L421.1,382.4z"></path>
</g>
<polygon class="st5" points="51.8,41.2 107.4,41.2 107.4,358.2 51.8,358.2 "></polygon>
<g>
	<polygon class="st5" points="60.6,379.4 66.1,379.4 66.1,384.9 60.6,384.9  "></polygon>
	<g>
		<path d="M73.8,382.2c0.2,0.2,0.3,0.4,0.4,0.6s0.1,0.5,0.1,0.7c0,0.6-0.2,1.3-0.7,1.7c-0.5,0.4-1.1,0.7-1.8,0.7    c-0.7-0.1-1.3-0.3-1.9-0.6l-0.2,0.4h-0.5l-0.1-2.6h0.4l0.3,0.9c0.3,0.5,0.7,0.9,1.2,1.2c0.3,0.1,0.6,0.2,0.9,0.2    c0.2,0,0.5,0,0.6-0.1c0.2-0.1,0.3-0.2,0.4-0.3c0.1-0.1,0.2-0.3,0.3-0.4c0.1-0.2,0.1-0.3,0.1-0.5c0-0.3-0.1-0.6-0.3-0.8    c-0.2-0.3-0.5-0.5-0.8-0.6s-0.5-0.2-0.8-0.3c-0.3-0.1-0.5-0.2-0.8-0.3c-0.4-0.1-0.8-0.4-1-0.8c-0.3-0.4-0.4-0.8-0.4-1.2    c0-0.3,0.1-0.6,0.2-0.8c0.1-0.3,0.3-0.5,0.5-0.7s0.4-0.3,0.7-0.4c0.3-0.1,0.6-0.2,0.9-0.2s0.6,0.1,0.9,0.2s0.6,0.2,0.8,0.4    l0.2-0.4h0.4v2.5h-0.4c-0.1-0.3-0.2-0.5-0.3-0.8c-0.1-0.3-0.2-0.5-0.4-0.7c-0.2-0.2-0.3-0.4-0.6-0.5c-0.3-0.1-0.5-0.2-0.8-0.2    s-0.6,0.1-0.9,0.3c-0.3,0.2-0.4,0.5-0.4,0.8s0.1,0.6,0.2,0.8c0.2,0.2,0.4,0.4,0.7,0.5c0.3,0.1,0.5,0.2,0.8,0.3    c0.2,0.1,0.5,0.2,0.7,0.3l0.6,0.3C73.5,381.9,73.7,382,73.8,382.2z"></path>
	</g>
	<g>
		<path d="M78.4,385.4c-0.2,0.1-0.5,0.2-0.7,0.2c-0.3,0.1-0.5,0.1-0.8,0.1c-0.4,0-0.8-0.1-0.9-0.3c-0.2-0.2-0.3-0.6-0.3-0.9v-3.6h-1    v-0.5h1v-1.6h1v1.6h1.5v0.5h-1.5v3.5c0,0.1,0.1,0.3,0.1,0.4s0.1,0.2,0.3,0.2c0.1,0.1,0.3,0.1,0.5,0.1H78c0.2,0,0.3,0,0.4-0.1    V385.4z"></path>
	</g>
	<g>
		<path d="M84.4,382.9c0,0.4-0.1,0.7-0.2,1.1c-0.1,0.3-0.3,0.7-0.5,0.9c-0.2,0.3-0.5,0.5-0.9,0.6s-0.7,0.2-1.1,0.2    c-0.3,0-0.7-0.1-1-0.2s-0.6-0.3-0.8-0.6c-0.2-0.3-0.4-0.6-0.6-0.9c-0.1-0.4-0.2-0.8-0.2-1.2c0-0.7,0.2-1.5,0.7-2s1.2-0.8,1.9-0.8    c0.7,0,1.3,0.2,1.8,0.7C84.1,381.3,84.4,382.1,84.4,382.9z M83.3,383c0-0.3,0-0.5-0.1-0.8s-0.1-0.6-0.2-0.8    c-0.1-0.2-0.3-0.4-0.5-0.5c-0.4-0.3-1-0.3-1.4,0c-0.2,0.1-0.4,0.3-0.5,0.6c-0.1,0.2-0.2,0.5-0.2,0.7c0,0.3-0.1,0.5-0.1,0.8    s0,0.7,0.1,1s0.2,0.6,0.3,0.8c0.1,0.2,0.3,0.4,0.5,0.5s0.5,0.2,0.7,0.2c0.4,0,0.9-0.2,1.1-0.6C83.3,384.3,83.4,383.6,83.3,383z"></path>
	</g>
	<g>
		<path d="M87.1,385.8c-0.7,0-1.4-0.3-1.8-0.8c-0.4-0.6-0.6-1.3-0.6-2c0-0.3,0.1-0.7,0.2-1s0.3-0.6,0.5-0.9s0.5-0.5,0.8-0.6    s0.7-0.2,1-0.2c0.5,0,0.9,0.1,1.3,0.4c0.3,0.2,0.5,0.6,0.5,1c0,0.2,0,0.3-0.1,0.5c-0.1,0.1-0.2,0.2-0.4,0.2    c-0.2,0-0.4-0.1-0.5-0.2s-0.2-0.2-0.2-0.4c0-0.2,0-0.3,0.1-0.5c0.1-0.1,0.1-0.3,0.1-0.4c-0.1-0.1-0.2-0.2-0.3-0.2    s-0.3-0.1-0.4-0.1c-0.2,0-0.3,0-0.5,0.1s-0.4,0.2-0.5,0.4c-0.1,0.2-0.2,0.5-0.3,0.7c-0.1,0.4-0.1,0.7-0.1,1.1    c0,0.6,0.1,1.1,0.4,1.6c0.3,0.4,0.7,0.6,1.2,0.6c0.3,0,0.6-0.1,0.9-0.3c0.3-0.2,0.5-0.5,0.6-0.8l0.3,0.2c-0.2,0.4-0.5,0.8-0.9,1    C88,385.4,87.5,385.8,87.1,385.8z"></path>
	</g>
	<g>
		<path d="M95.1,385.6h-1.6c-0.3-0.4-0.6-0.9-0.9-1.3c-0.3-0.5-0.6-0.9-1-1.3l-0.4,0.4v1.3c0,0.1,0,0.2,0.1,0.3l0.2,0.2    c0.1,0,0.1,0,0.2,0.1H92v0.4h-2.6v-0.4h0.5c0.1,0,0.2-0.1,0.2-0.2s0.1-0.2,0.1-0.3v-6.1c0-0.1,0-0.3-0.1-0.4s-0.1-0.2-0.2-0.3    s-0.2-0.1-0.4-0.1h-0.4v-0.3l2-0.1l0.1,0.1v5.6l0.9-0.9c0.3-0.3,0.6-0.6,0.8-0.9l0.1-0.1c0-0.1,0-0.1,0.1-0.1l0,0    c0-0.1-0.1-0.2-0.2-0.2c-0.2,0-0.3-0.1-0.4-0.1v-0.3h2.3v0.3c-0.3,0.1-0.5,0.2-0.8,0.3c-0.2,0.1-0.4,0.2-0.5,0.4    c-0.1,0.1-0.2,0.2-0.4,0.3c-0.2,0.2-0.4,0.4-0.7,0.6c0.3,0.4,0.6,0.8,1,1.3s0.6,0.9,0.8,1.1l0.4,0.4c0.1,0.1,0.3,0.1,0.5,0.1    C95.1,385.4,95.1,385.6,95.1,385.6z"></path>
	</g>
	<g>
		<path d="M99.2,383.1c0.1,0.1,0.3,0.3,0.3,0.4s0.1,0.4,0.1,0.6c0,0.5-0.2,0.9-0.5,1.2c-0.4,0.3-0.9,0.5-1.4,0.5    c-0.3,0-0.6-0.1-0.8-0.2c-0.2-0.1-0.4-0.2-0.6-0.3l-0.1,0.3h-0.4l-0.1-1.8h0.4c0,0.2,0.1,0.3,0.2,0.5s0.2,0.3,0.3,0.5    c0.1,0.2,0.3,0.3,0.5,0.4s0.5,0.2,0.7,0.2c0.3,0,0.6-0.1,0.8-0.2c0.2-0.2,0.3-0.4,0.3-0.7c0-0.2,0-0.3-0.1-0.4s-0.1-0.2-0.3-0.3    c-0.1-0.1-0.2-0.2-0.4-0.2c-0.2-0.1-0.4-0.1-0.6-0.2c-0.2,0-0.4-0.1-0.6-0.2s-0.3-0.2-0.5-0.3c-0.2-0.1-0.3-0.3-0.4-0.5    s-0.1-0.4-0.1-0.6c0-0.4,0.2-0.8,0.5-1.1c0.4-0.3,0.8-0.4,1.3-0.4c0.2,0,0.4,0,0.6,0.1s0.4,0.1,0.5,0.2l0.1-0.3h0.4l0.1,1.7H99    c0-0.4-0.2-0.7-0.5-0.9c-0.2-0.2-0.6-0.4-0.9-0.4c-0.2,0-0.5,0.1-0.7,0.2s-0.3,0.3-0.3,0.5s0,0.3,0.1,0.4s0.1,0.2,0.2,0.3    s0.2,0.1,0.4,0.2s0.4,0.1,0.6,0.2s0.5,0.2,0.7,0.3C98.8,382.8,99.1,382.9,99.2,383.1z"></path>
	</g>
</g>
<polygon class="st6" points="141.5,168.6 197.1,168.6 197.1,358.2 141.5,358.2 "></polygon>
<g>
	<path d="M219.1,384.4c-0.2,0.4-0.5,0.8-0.9,1s-0.8,0.4-1.3,0.4c-0.4,0-0.7-0.1-1.1-0.2c-0.3-0.1-0.6-0.3-0.8-0.6   c-0.2-0.3-0.4-0.6-0.5-0.9c-0.1-0.4-0.2-0.7-0.2-1.1c0-0.3,0.1-0.7,0.2-1c0.1-0.3,0.3-0.6,0.5-0.9s0.5-0.5,0.8-0.6   c0.3-0.2,0.7-0.2,1-0.2s0.7,0.1,1,0.2s0.5,0.3,0.7,0.5s0.3,0.4,0.4,0.7c0.1,0.3,0.1,0.6,0.1,0.9v0.4h-3.5c0,0.3,0,0.6,0.1,0.9   c0.1,0.2,0.2,0.5,0.3,0.7s0.3,0.4,0.5,0.5c0.8,0.4,1.8,0.2,2.2-0.6c0-0.1,0.1-0.1,0.1-0.2L219.1,384.4z M217.9,382.4   c0-0.2,0-0.4-0.1-0.6c0-0.2-0.1-0.4-0.2-0.6c-0.1-0.2-0.2-0.3-0.3-0.4c-0.2-0.1-0.4-0.2-0.6-0.2c-0.4,0-0.7,0.2-0.9,0.5   c-0.3,0.4-0.4,0.8-0.4,1.3L217.9,382.4z"></path>
</g>
<polygon class="st6" points="119.6,379.4 125.1,379.4 125.1,384.9 119.6,384.9 "></polygon>
<g>
	<path d="M134,379.9c0,0.4-0.1,0.7-0.2,1.1c-0.2,0.3-0.4,0.6-0.6,0.8c-0.3,0.2-0.6,0.3-0.9,0.4c-0.3,0.1-0.7,0.1-1,0.1h-0.9v2.3   c0,0.1,0,0.2,0.1,0.3c0,0.1,0.1,0.2,0.3,0.2c0.1,0,0.2,0,0.3,0.1h0.4v0.4h-3.3v-0.4h0.4c0.2,0,0.3,0,0.3-0.1c0.1,0,0.2-0.1,0.2-0.2   s0.1-0.2,0.1-0.3v-5.5c0-0.1,0-0.2-0.1-0.3c0-0.1-0.1-0.2-0.3-0.2s-0.3-0.1-0.4-0.1h-0.3V378h3.5c0.6,0,1.2,0.2,1.7,0.5   C133.7,378.8,133.9,379.3,134,379.9z M132.3,381.2c0.1-0.2,0.2-0.3,0.2-0.5s0.1-0.3,0.1-0.5s0-0.4-0.1-0.6c0-0.2-0.1-0.4-0.2-0.6   c-0.1-0.2-0.3-0.3-0.5-0.4c-0.3-0.1-0.5-0.1-0.8-0.1h-0.8v3.4h0.5c0.3,0,0.6-0.1,0.9-0.2C132,381.5,132.2,381.4,132.3,381.2   L132.3,381.2z"></path>
</g>
<g>
	<path d="M138.9,381c0,0.2,0,0.3-0.1,0.5c-0.1,0.1-0.2,0.2-0.4,0.2s-0.4-0.1-0.5-0.2s-0.2-0.2-0.2-0.3v-0.4c-0.2,0-0.4,0.1-0.6,0.2   c-0.2,0.1-0.5,0.4-0.6,0.6v3.1c0,0.1,0,0.2,0.1,0.3l0.2,0.2c0.1,0,0.2,0.1,0.3,0.1h0.4v0.4h-2.8v-0.4h0.5c0.1,0,0.2-0.1,0.2-0.2   s0.1-0.2,0.1-0.3v-3.3c0-0.1,0-0.2-0.1-0.3c-0.1-0.1-0.1-0.2-0.2-0.3c-0.1-0.1-0.1-0.1-0.2-0.1h-0.3v-0.4l1.8-0.1l0.1,0.1v0.7l0,0   c0.2-0.3,0.4-0.5,0.7-0.7c0.2-0.1,0.5-0.2,0.7-0.2s0.4,0.1,0.5,0.2C138.7,380.5,138.8,380.7,138.9,381z"></path>
</g>
<g>
	<path d="M141.6,385.6H139v-0.4h0.5c0.1,0,0.2-0.1,0.2-0.2s0.1-0.2,0.1-0.3v-3.3c0-0.1,0-0.2-0.1-0.3c-0.1-0.1-0.1-0.2-0.2-0.2   c-0.1,0-0.2-0.1-0.3-0.1s-0.3,0-0.4-0.1v-0.4l1.9-0.1l0.1,0.1v4.3c0,0.1,0,0.2,0.1,0.3l0.2,0.2c0.1,0,0.1,0,0.2,0.1h0.3V385.6z    M140.9,378.2c0,0.2-0.1,0.4-0.2,0.5c-0.1,0.2-0.3,0.2-0.5,0.2s-0.3-0.1-0.5-0.2c-0.3-0.3-0.2-0.7,0.1-1c0.3-0.2,0.6-0.2,0.9,0   C140.8,377.9,140.9,378,140.9,378.2z"></path>
</g>
<g>
	<path d="M147.6,380.7c-0.2,0-0.3,0.1-0.5,0.2s-0.3,0.3-0.4,0.5c-0.2,0.5-0.4,1-0.7,1.5c-0.2,0.5-0.5,1.1-0.7,1.6   c-0.1,0.2-0.1,0.4-0.2,0.6c-0.1,0.2-0.2,0.4-0.2,0.6h-0.4c-0.3-0.8-0.7-1.6-0.9-2.3l-0.9-2.1c-0.1-0.2-0.2-0.3-0.3-0.4   c-0.2-0.1-0.3-0.1-0.5-0.2v-0.4h2.4v0.4c-0.1,0-0.3,0-0.4,0.1c-0.2,0-0.2,0.1-0.2,0.2v0.1c0,0.1,0,0.1,0.1,0.2   c0.1,0.4,0.4,0.9,0.6,1.5s0.5,1.2,0.7,1.6c0.1-0.4,0.3-0.7,0.5-1.1l0.6-1.5c0-0.1,0.1-0.2,0.1-0.3v-0.3c0-0.1,0-0.1-0.1-0.2   s-0.1-0.1-0.2-0.1c-0.1,0-0.1,0-0.2-0.1h-0.2v-0.3h2L147.6,380.7L147.6,380.7z"></path>
</g>
<g>
	<path d="M152.9,385.5c-0.1,0.1-0.3,0.1-0.4,0.1c-0.1,0-0.3,0.1-0.4,0.1c-0.2,0-0.5-0.1-0.7-0.2s-0.3-0.4-0.3-0.6l0,0   c-0.2,0.3-0.4,0.5-0.7,0.6s-0.7,0.2-1,0.2c-0.4,0-0.7-0.1-1-0.4c-0.3-0.2-0.4-0.6-0.4-1c0-0.2,0-0.4,0.1-0.5   c0.1-0.2,0.1-0.3,0.3-0.4c0.1-0.1,0.2-0.2,0.4-0.3c0.2-0.1,0.3-0.2,0.4-0.2c0.3-0.1,0.7-0.2,1-0.3c0.4-0.1,0.7-0.2,1-0.4v-0.8   c0-0.1-0.1-0.3-0.1-0.4l-0.3-0.3c-0.1-0.1-0.3-0.1-0.6-0.1c-0.2,0-0.3,0-0.5,0.1c-0.1,0-0.2,0.1-0.3,0.2c0,0.1,0,0.2,0.1,0.3   c0,0.1,0.1,0.3,0.1,0.4s-0.1,0.2-0.2,0.3c-0.1,0.1-0.3,0.2-0.5,0.2s-0.3-0.1-0.4-0.2c-0.1-0.1-0.1-0.3-0.1-0.4   c0-0.2,0.1-0.3,0.2-0.5c0.1-0.2,0.3-0.3,0.5-0.4l0.6-0.3c0.2-0.1,0.5-0.1,0.7-0.1c0.3,0,0.5,0,0.8,0.1c0.2,0,0.4,0.1,0.6,0.3   c0.2,0.1,0.3,0.3,0.4,0.5c0.1,0.3,0.1,0.6,0.1,0.9v2.7c0,0.1,0,0.3,0.1,0.3s0.1,0.2,0.2,0.2s0.1,0.1,0.3,0.1h0.4v0.2L152.9,385.5z    M151.1,382.7c-0.3,0.1-0.5,0.2-0.8,0.3l-0.6,0.3c-0.2,0.1-0.3,0.3-0.4,0.4c-0.1,0.2-0.2,0.4-0.2,0.6s0.1,0.5,0.2,0.7   c0.2,0.1,0.4,0.2,0.6,0.2c0.2,0,0.5-0.1,0.7-0.2s0.4-0.2,0.5-0.4V382.7z"></path>
</g>
<g>
	<path d="M156.7,385.4c-0.2,0.1-0.5,0.2-0.7,0.2c-0.3,0.1-0.5,0.1-0.8,0.1c-0.4,0-0.8-0.1-0.9-0.3c-0.2-0.2-0.3-0.6-0.3-0.9v-3.6h-1   v-0.5h1v-1.6h1v1.6h1.5v0.5H155v3.5c0,0.1,0.1,0.3,0.1,0.4s0.1,0.2,0.3,0.2c0.1,0.1,0.3,0.1,0.5,0.1h0.4c0.2,0,0.3,0,0.4-0.1V385.4   z"></path>
</g>
<g>
	<path d="M162.2,384.4c-0.2,0.4-0.5,0.8-0.9,1s-0.8,0.4-1.3,0.4c-0.4,0-0.7-0.1-1.1-0.2c-0.3-0.1-0.6-0.3-0.8-0.6   c-0.2-0.3-0.4-0.6-0.5-0.9c-0.1-0.4-0.2-0.7-0.2-1.1c0-0.3,0.1-0.7,0.2-1c0.1-0.3,0.3-0.6,0.5-0.9s0.5-0.5,0.8-0.6   c0.3-0.2,0.7-0.2,1-0.2s0.7,0.1,1,0.2s0.5,0.3,0.7,0.5s0.3,0.4,0.4,0.7c0.1,0.3,0.1,0.6,0.1,0.9v0.4h-3.5c0,0.3,0,0.6,0.1,0.9   c0.1,0.2,0.2,0.5,0.3,0.7s0.3,0.4,0.5,0.5c0.8,0.4,1.8,0.2,2.2-0.6c0-0.1,0.1-0.1,0.1-0.2L162.2,384.4z M161.1,382.4   c0-0.2,0-0.4-0.1-0.6c0-0.2-0.1-0.4-0.2-0.6c-0.1-0.2-0.2-0.3-0.3-0.4c-0.2-0.1-0.4-0.2-0.6-0.2c-0.4,0-0.7,0.2-0.9,0.5   c-0.3,0.4-0.4,0.8-0.4,1.3L161.1,382.4z"></path>
</g>
<g>
	<path d="M172.6,385.6h-2c-0.5-0.7-0.9-1.3-1.2-1.8c-0.4-0.6-0.8-1.1-1.2-1.6h-0.8v2.4c0,0.1,0,0.2,0.1,0.3c0,0.1,0.1,0.2,0.3,0.2   c0.1,0,0.2,0,0.3,0.1h0.4v0.4h-3.3v-0.4h0.4c0.2,0,0.3,0,0.3-0.1c0.1,0,0.2-0.1,0.2-0.2s0.1-0.2,0.1-0.3v-5.5c0-0.1,0-0.2-0.1-0.3   c0-0.1-0.1-0.2-0.3-0.2s-0.2-0.1-0.3-0.1s-0.3,0-0.4-0.1V378h3.5c0.3,0,0.6,0,0.9,0.1c0.3,0.1,0.5,0.2,0.8,0.3   c0.2,0.1,0.4,0.3,0.5,0.6c0.1,0.2,0.2,0.5,0.2,0.8s0,0.5-0.1,0.8c-0.2,0.5-0.5,0.8-1,1c-0.2,0.1-0.5,0.2-0.7,0.3   c0.3,0.4,0.6,0.8,0.9,1.3c0.3,0.4,0.6,0.8,0.9,1.2c0.2,0.2,0.3,0.4,0.4,0.5c0.1,0.1,0.2,0.2,0.4,0.2c0.1,0,0.2,0.1,0.3,0.1h0.3v0.4   L172.6,385.6z M169.8,380c0.1-0.8-0.5-1.4-1.2-1.5c-0.1,0-0.2,0-0.3,0h-0.9v3.3h0.7c0.5,0,0.9-0.2,1.2-0.5   C169.6,380.9,169.7,380.5,169.8,380L169.8,380z"></path>
</g>
<g>
	<path d="M177.3,384.4c-0.2,0.4-0.5,0.8-0.9,1s-0.8,0.4-1.3,0.4c-0.4,0-0.7-0.1-1.1-0.2c-0.3-0.1-0.6-0.3-0.8-0.6   c-0.2-0.3-0.4-0.6-0.5-0.9c-0.1-0.4-0.2-0.7-0.2-1.1c0-0.3,0.1-0.7,0.2-1c0.1-0.3,0.3-0.6,0.5-0.9s0.5-0.5,0.8-0.6   c0.3-0.2,0.7-0.2,1-0.2s0.7,0.1,1,0.2s0.5,0.3,0.7,0.5s0.3,0.4,0.4,0.7c0.1,0.3,0.1,0.6,0.1,0.9v0.4h-3.5c0,0.3,0,0.6,0.1,0.9   c0.1,0.2,0.2,0.5,0.3,0.7s0.3,0.4,0.5,0.5c0.8,0.4,1.8,0.2,2.2-0.6c0-0.1,0.1-0.1,0.1-0.2L177.3,384.4z M176.1,382.4   c0-0.2,0-0.4-0.1-0.6c0-0.2-0.1-0.4-0.2-0.6c-0.1-0.2-0.2-0.3-0.3-0.4c-0.2-0.1-0.4-0.2-0.6-0.2c-0.4,0-0.7,0.2-0.9,0.5   c-0.3,0.4-0.4,0.8-0.4,1.3L176.1,382.4z"></path>
</g>
<g>
	<path d="M183.1,385.5c-0.1,0.1-0.3,0.1-0.4,0.1c-0.1,0-0.3,0.1-0.4,0.1c-0.2,0-0.5-0.1-0.7-0.2s-0.3-0.4-0.3-0.6l0,0   c-0.2,0.3-0.4,0.5-0.7,0.6s-0.7,0.2-1,0.2c-0.4,0-0.7-0.1-1-0.4c-0.3-0.2-0.4-0.6-0.4-1c0-0.2,0-0.4,0.1-0.5   c0.1-0.2,0.1-0.3,0.3-0.4c0.1-0.1,0.2-0.2,0.4-0.3c0.2-0.1,0.3-0.2,0.4-0.2c0.3-0.1,0.7-0.2,1-0.3c0.4-0.1,0.7-0.2,1-0.4v-0.8   c0-0.1-0.1-0.3-0.1-0.4l-0.3-0.3c-0.1-0.1-0.3-0.1-0.6-0.1c-0.2,0-0.3,0-0.5,0.1c-0.1,0-0.2,0.1-0.3,0.2c0,0.1,0,0.2,0.1,0.3   c0,0.1,0.1,0.3,0.1,0.4s-0.1,0.2-0.2,0.3c-0.1,0.1-0.3,0.2-0.5,0.2s-0.3-0.1-0.4-0.2c-0.1-0.1-0.1-0.3-0.1-0.4   c0-0.2,0.1-0.3,0.2-0.5c0.1-0.2,0.3-0.3,0.5-0.4l0.6-0.3c0.2-0.1,0.5-0.1,0.7-0.1c0.3,0,0.5,0,0.8,0.1c0.2,0,0.4,0.1,0.6,0.3   c0.2,0.1,0.3,0.3,0.4,0.5c0.1,0.3,0.1,0.6,0.1,0.9v2.7c0,0.1,0,0.3,0.1,0.3s0.1,0.2,0.2,0.2s0.1,0.1,0.3,0.1h0.4v0.2L183.1,385.5z    M181.2,382.7c-0.3,0.1-0.5,0.2-0.8,0.3l-0.6,0.3c-0.2,0.1-0.3,0.3-0.4,0.4c-0.1,0.2-0.2,0.4-0.2,0.6s0.1,0.5,0.2,0.7   c0.2,0.1,0.4,0.2,0.6,0.2c0.2,0,0.5-0.1,0.7-0.2s0.4-0.2,0.5-0.4V382.7z"></path>
</g>
<g>
	<path d="M186.1,385.6h-2.6v-0.4h0.5c0.1,0,0.2-0.1,0.2-0.2s0.1-0.2,0.1-0.3v-6.1c0-0.1,0-0.3-0.1-0.4s-0.1-0.2-0.2-0.3   s-0.2-0.1-0.4-0.1s-0.3-0.1-0.4-0.1v-0.3l2-0.1l0.1,0.1v7.2c0,0.1,0,0.2,0.1,0.3c0,0.1,0.1,0.1,0.2,0.2c0.1,0,0.1,0,0.2,0.1h0.3   L186.1,385.6L186.1,385.6z"></path>
</g>
<g>
	<path d="M196.2,383.4l-0.1,2.2h-6.3v-0.4h0.4c0.2,0,0.3,0,0.3-0.1s0.2-0.1,0.2-0.2s0.1-0.2,0.1-0.3v-5.5c0-0.1,0-0.2-0.1-0.3   c0-0.1-0.1-0.2-0.2-0.2c-0.1,0-0.2-0.1-0.4-0.1s-0.3-0.1-0.4-0.1V378h5.9v1.8h-0.4c-0.1-0.3-0.3-0.6-0.5-0.9   c-0.1-0.3-0.4-0.4-0.7-0.5h-2.1v3h0.9c0.3,0,0.5,0,0.6-0.1s0.2-0.1,0.3-0.3s0.1-0.2,0.2-0.4c0.1-0.2,0.1-0.3,0.1-0.5h0.4v3H194   c0-0.2-0.1-0.3-0.1-0.5c-0.1-0.2-0.1-0.3-0.2-0.4c-0.1-0.1-0.2-0.2-0.4-0.3c-0.2-0.1-0.4-0.1-0.6-0.1h-0.9v2.8   c0,0.1,0.1,0.2,0.2,0.3s0.2,0.1,0.4,0.1h1.7c0.1,0,0.3,0,0.4-0.1c0.1,0,0.2-0.1,0.3-0.2c0.2-0.2,0.4-0.5,0.5-0.8   c0.2-0.2,0.3-0.5,0.3-0.8h0.6V383.4z"></path>
</g>
<g>
	<path d="M200.1,383.1c0.1,0.1,0.3,0.3,0.3,0.4s0.1,0.4,0.1,0.6c0,0.5-0.2,0.9-0.5,1.2c-0.4,0.3-0.9,0.5-1.4,0.5   c-0.3,0-0.6-0.1-0.8-0.2s-0.4-0.2-0.6-0.3l-0.1,0.3h-0.4l-0.1-1.8h0.4c0,0.2,0.1,0.3,0.2,0.5c0.1,0.2,0.2,0.3,0.3,0.5   s0.3,0.3,0.5,0.4s0.5,0.2,0.7,0.2c0.3,0,0.6-0.1,0.8-0.2c0.2-0.2,0.3-0.4,0.3-0.7c0-0.2,0-0.3-0.1-0.4s-0.1-0.2-0.3-0.3   c-0.1-0.1-0.2-0.2-0.4-0.2c-0.2-0.1-0.4-0.1-0.6-0.2c-0.2,0-0.4-0.1-0.6-0.2c-0.2-0.1-0.3-0.2-0.5-0.3c-0.2-0.1-0.3-0.3-0.4-0.5   c-0.1-0.2-0.1-0.4-0.1-0.6c0-0.4,0.2-0.8,0.5-1.1c0.4-0.3,0.8-0.4,1.3-0.4c0.2,0,0.4,0,0.6,0.1c0.2,0.1,0.4,0.1,0.5,0.2l0.1-0.3   h0.4l0.1,1.7h-0.4c0-0.4-0.2-0.7-0.5-0.9c-0.2-0.2-0.6-0.4-0.9-0.4c-0.2,0-0.5,0.1-0.7,0.2s-0.3,0.3-0.3,0.5s0,0.3,0.1,0.4   s0.1,0.2,0.2,0.3s0.2,0.1,0.4,0.2s0.4,0.1,0.6,0.2s0.5,0.2,0.7,0.3C199.7,382.8,199.9,382.9,200.1,383.1z"></path>
</g>
<g>
	<path d="M204.7,385.4c-0.2,0.1-0.5,0.2-0.7,0.2c-0.3,0.1-0.5,0.1-0.8,0.1c-0.4,0-0.8-0.1-0.9-0.3c-0.2-0.2-0.3-0.6-0.3-0.9v-3.6h-1   v-0.5h1v-1.6h1v1.6h1.5v0.5H203v3.5c0,0.1,0.1,0.3,0.1,0.4s0.1,0.2,0.3,0.2c0.1,0.1,0.3,0.1,0.5,0.1h0.4c0.2,0,0.3,0,0.4-0.1V385.4   z"></path>
</g>
<g>
	<path d="M209.8,385.5c-0.1,0.1-0.3,0.1-0.4,0.1c-0.1,0-0.3,0.1-0.4,0.1c-0.2,0-0.5-0.1-0.7-0.2s-0.3-0.4-0.3-0.6l0,0   c-0.2,0.3-0.4,0.5-0.7,0.6s-0.7,0.2-1,0.2c-0.4,0-0.7-0.1-1-0.4c-0.3-0.2-0.4-0.6-0.4-1c0-0.2,0-0.4,0.1-0.5   c0.1-0.2,0.1-0.3,0.3-0.4c0.1-0.1,0.2-0.2,0.4-0.3c0.2-0.1,0.3-0.2,0.4-0.2c0.3-0.1,0.7-0.2,1-0.3c0.4-0.1,0.7-0.2,1-0.4v-0.8   c0-0.1-0.1-0.3-0.1-0.4l-0.3-0.3c-0.1-0.1-0.3-0.1-0.6-0.1c-0.2,0-0.3,0-0.5,0.1c-0.1,0-0.2,0.1-0.3,0.2c0,0.1,0,0.2,0.1,0.3   c0,0.1,0.1,0.3,0.1,0.4s-0.1,0.2-0.2,0.3c-0.1,0.1-0.3,0.2-0.5,0.2s-0.3-0.1-0.4-0.2c-0.1-0.1-0.1-0.3-0.1-0.4   c0-0.2,0.1-0.3,0.2-0.5c0.1-0.2,0.3-0.3,0.5-0.4l0.6-0.3c0.2-0.1,0.5-0.1,0.7-0.1c0.3,0,0.5,0,0.8,0.1c0.2,0,0.4,0.1,0.6,0.3   c0.2,0.1,0.3,0.3,0.4,0.5c0.1,0.3,0.1,0.6,0.1,0.9v2.7c0,0.1,0,0.3,0.1,0.3s0.1,0.2,0.2,0.2s0.1,0.1,0.3,0.1h0.4v0.2L209.8,385.5z    M208,382.7c-0.3,0.1-0.5,0.2-0.8,0.3l-0.6,0.3c-0.2,0.1-0.3,0.3-0.4,0.4c-0.1,0.2-0.2,0.4-0.2,0.6s0.1,0.5,0.2,0.7   c0.2,0.1,0.4,0.2,0.6,0.2c0.2,0,0.5-0.1,0.7-0.2s0.4-0.2,0.5-0.4V382.7z"></path>
</g>
<g>
	<path d="M214.3,385.4c-0.2,0.1-0.5,0.2-0.7,0.2c-0.3,0.1-0.5,0.1-0.8,0.1c-0.4,0-0.8-0.1-0.9-0.3c-0.2-0.2-0.3-0.6-0.3-0.9v-3.6h-1   v-0.5h1v-1.6h1v1.6h1.5v0.5h-1.5v3.5c0,0.1,0.1,0.3,0.1,0.4s0.1,0.2,0.3,0.2c0.1,0.1,0.3,0.1,0.5,0.1h0.4c0.2,0,0.3,0,0.4-0.1   V385.4z"></path>
</g>
<polygon class="st7" points="437.2,346 492.7,346 492.7,358.2 437.2,358.2 "></polygon>
<polygon class="st7" points="445.1,379.4 450.6,379.4 450.6,384.9 445.1,384.9 "></polygon>
<g>
	<path d="M459.8,380.1h-0.4c0-0.2-0.1-0.3-0.2-0.5s-0.2-0.3-0.3-0.5c-0.1-0.2-0.2-0.3-0.4-0.4c-0.2-0.1-0.3-0.2-0.4-0.2h-1.2v6.1   c0,0.1,0,0.2,0.1,0.3c0.1,0.1,0.1,0.2,0.3,0.2s0.2,0.1,0.4,0.1c0.2,0,0.3,0.1,0.5,0.1v0.4h-3.6v-0.4h0.5c0.2,0,0.3,0,0.4-0.1   s0.2-0.1,0.3-0.2s0.1-0.2,0.1-0.4v-6.1h-1.2c-0.1,0-0.2,0.1-0.4,0.2s-0.2,0.3-0.4,0.4s-0.2,0.3-0.3,0.5s-0.1,0.3-0.2,0.4H453v-2   h6.6v2.1H459.8z"></path>
</g>
<g>
	<path d="M463.5,383.2h-3.2v-0.8h3.2V383.2z"></path>
</g>
<g>
	<path d="M469.9,382.1c0.2,0.2,0.4,0.4,0.6,0.6c0.3,0.6,0.3,1.2,0,1.8c-0.1,0.2-0.4,0.5-0.6,0.6c-0.2,0.2-0.5,0.3-0.8,0.4   s-0.6,0.1-0.9,0.1h-3.6v-0.4h0.4c0.2,0,0.3-0.1,0.4-0.1s0.2-0.1,0.2-0.2s0.1-0.2,0.1-0.3v-5.5c0-0.1,0-0.2-0.1-0.3   c0-0.1-0.1-0.2-0.2-0.2c-0.1-0.1-0.2-0.1-0.4-0.1c-0.1,0-0.2,0-0.3-0.1V378h3.5c0.3,0,0.5,0,0.8,0.1c0.2,0.1,0.5,0.1,0.7,0.3   c0.2,0.1,0.4,0.3,0.5,0.5s0.2,0.5,0.2,0.8c0,0.2,0,0.5-0.1,0.7s-0.2,0.4-0.4,0.5c-0.2,0.1-0.4,0.3-0.6,0.4s-0.5,0.2-0.7,0.2l0,0   c0.2,0,0.5,0.1,0.7,0.2C469.5,381.8,469.7,382,469.9,382.1z M468.6,381c0.1-0.2,0.2-0.3,0.3-0.5c0.1-0.2,0.1-0.4,0.1-0.6   c0-0.4-0.1-0.7-0.3-1c-0.3-0.3-0.7-0.5-1.1-0.4h-0.8v2.9h0.7c0.3,0,0.5,0,0.8-0.1C468.3,381.2,468.5,381.1,468.6,381L468.6,381z    M469.4,383.4c0-0.4-0.2-0.8-0.5-1.1c-0.4-0.3-0.8-0.5-1.3-0.4h-1v2.7c0,0.2,0.1,0.4,0.3,0.5c0.2,0.1,0.5,0.2,0.8,0.2   c0.5,0,0.9-0.2,1.2-0.5C469.2,384.4,469.4,383.9,469.4,383.4z"></path>
</g>
<g>
	<path d="M473.9,385.6h-2.6v-0.4h0.5c0.1,0,0.2-0.1,0.2-0.2s0.1-0.2,0.1-0.3v-3.3c0-0.1,0-0.2-0.1-0.3c-0.1-0.1-0.1-0.2-0.2-0.2   s-0.2-0.1-0.3-0.1c-0.1,0-0.3,0-0.4-0.1v-0.4l1.9-0.1l0.1,0.1v4.3c0,0.1,0,0.2,0.1,0.3c0,0.1,0.1,0.1,0.2,0.2c0.1,0,0.1,0,0.2,0.1   h0.3L473.9,385.6L473.9,385.6z M473.2,378.2c0,0.4-0.3,0.7-0.7,0.7l0,0c-0.2,0-0.3-0.1-0.5-0.2c-0.3-0.3-0.2-0.7,0.1-1   c0.3-0.2,0.6-0.2,0.9,0C473.1,377.9,473.2,378,473.2,378.2z"></path>
</g>
<g>
	<path d="M477.2,385.6h-2.6v-0.4h0.5c0.1,0,0.2-0.1,0.2-0.2c0.1-0.1,0.1-0.2,0.1-0.3v-6.1c0-0.1,0-0.3-0.1-0.4s-0.1-0.2-0.2-0.3   s-0.2-0.1-0.4-0.1s-0.3-0.1-0.4-0.1v-0.3l2-0.1l0.1,0.1v7.2c0,0.1,0,0.2,0.1,0.3c0,0.1,0.1,0.1,0.2,0.2c0.1,0,0.1,0,0.2,0.1h0.3   L477.2,385.6L477.2,385.6z"></path>
</g>
<g>
	<path d="M480.6,385.6H478v-0.4h0.5c0.1,0,0.2-0.1,0.2-0.2c0.1-0.1,0.1-0.2,0.1-0.3v-6.1c0-0.1,0-0.3-0.1-0.4s-0.1-0.2-0.2-0.3   s-0.2-0.1-0.4-0.1s-0.3-0.1-0.4-0.1v-0.3l2-0.1l0.1,0.1v7.2c0,0.1,0,0.2,0.1,0.3c0,0.1,0.1,0.1,0.2,0.2c0.1,0,0.1,0,0.2,0.1h0.3   L480.6,385.6L480.6,385.6z"></path>
</g>
<g>
	<path d="M484.4,383.1c0.1,0.1,0.3,0.3,0.3,0.4s0.1,0.4,0.1,0.6c0,0.5-0.2,0.9-0.5,1.2c-0.4,0.3-0.9,0.5-1.4,0.5   c-0.3,0-0.6-0.1-0.8-0.2c-0.2-0.1-0.4-0.2-0.6-0.3l-0.1,0.3H481l-0.1-1.8h0.4c0,0.2,0.1,0.3,0.2,0.5s0.2,0.3,0.3,0.5   c0.1,0.2,0.3,0.3,0.5,0.4s0.5,0.2,0.7,0.2c0.3,0,0.6-0.1,0.8-0.2c0.2-0.2,0.3-0.4,0.3-0.7c0-0.2,0-0.3-0.1-0.4s-0.1-0.2-0.3-0.3   c-0.1-0.1-0.2-0.2-0.4-0.2c-0.2-0.1-0.4-0.1-0.6-0.2c-0.2,0-0.4-0.1-0.6-0.2s-0.3-0.2-0.5-0.3c-0.2-0.1-0.3-0.3-0.4-0.5   s-0.2-0.4-0.2-0.6c0-0.4,0.2-0.8,0.5-1.1c0.4-0.3,0.8-0.4,1.3-0.4c0.2,0,0.4,0,0.6,0.1s0.4,0.1,0.5,0.2l0.1-0.3h0.4l0.1,1.7h-0.4   c0-0.4-0.2-0.7-0.5-0.9c-0.2-0.2-0.6-0.4-0.9-0.4c-0.2,0-0.5,0.1-0.7,0.2s-0.3,0.3-0.3,0.5s0,0.3,0.1,0.4s0.1,0.2,0.2,0.3   s0.2,0.1,0.4,0.2s0.4,0.1,0.6,0.2s0.5,0.2,0.7,0.3C484.1,382.8,484.3,382.9,484.4,383.1z"></path>
</g>
<g id="Layer_2_1_">
</g>
<g>
	<path d="M154.5,146.9c-1.1,0-1.7-0.7-1.7-1.6c0-0.4,0-0.6,0.1-0.8c0.1-0.4,0.1-0.6,0.1-0.8c0-0.4-0.5-0.6-1.2-0.6   c-2.5,0-4.1,3-4.3,6.3h0.2c0.5-0.8,1.6-1.3,2.9-1.3c3.1,0,5.4,1.7,5.4,5.2s-2.8,5.7-6.5,5.7c-4.3,0-6.7-3.1-6.7-7.1   c0-6.6,5.2-9.9,8.9-9.9c3.2,0,4.3,1.5,4.3,3.1C156.3,146.1,155.7,146.9,154.5,146.9z M147.6,153.6c0,3.9,1,4.3,2.1,4.3   c1.2,0,2.2-0.5,2.2-4.4s-1-4.2-2.2-4.2C148.6,149.3,147.6,150.1,147.6,153.6z"></path>
	<path d="M158.1,156.6c0-1.2,0.9-2.2,2.3-2.2c1.4,0,2.2,1,2.2,2.2c0,1.2-0.9,2.2-2.2,2.2C158.9,158.9,158.1,157.8,158.1,156.6z"></path>
	<path d="M176.4,145.2c0,2.1-2.4,3.4-5.3,4.5v0.2c3.6-0.4,6.5,0.8,6.5,3.7c0,2.9-3.3,5.3-7.9,5.3c-3.2,0-5.1-1.8-5.1-3.7   c0-1.2,0.7-2.1,1.9-2.1s1.7,0.7,1.7,1.8c0,0.6-0.2,1-0.4,1.4c-0.1,0.3-0.2,0.6-0.1,0.9c0.1,0.4,1.1,0.7,2.1,0.7   c2.4,0,3.6-1.4,3.6-4.7c0-1.9-0.8-2.6-2.4-2.6c-0.7,0-1.3,0.3-1.7,0.5l-0.9,0.5l-0.5-0.8l1.6-1c1.9-1.1,3-2.3,3-4.4   c0-1.8-0.5-2.4-2.1-2.4c-0.9,0-2,0.4-2,1c0,0.2,0.2,0.4,0.4,0.8c0.2,0.3,0.3,0.7,0.3,1.2c0,0.8-0.6,1.6-1.8,1.6s-1.8-0.9-1.8-1.9   c0-2.3,2.4-3.8,5.6-3.8C174.8,141.9,176.4,143.2,176.4,145.2z"></path>
	<path d="M182.7,150.8c-2.2,0-4.1-1.7-4.1-4.4c0-2.7,1.8-4.5,4.1-4.5c2.2,0,4.1,1.7,4.1,4.5C186.8,149.2,184.9,150.8,182.7,150.8z    M181.4,146.4c0,3,0.4,3.7,1.2,3.7s1.2-0.6,1.2-3.7c0-3.1-0.4-3.7-1.2-3.7S181.4,143.4,181.4,146.4z M183.1,158.9l-1-0.6l10-16.4   l1,0.6L183.1,158.9z M192.6,150c2.2,0,4.1,1.7,4.1,4.5c0,2.7-1.8,4.4-4.1,4.4s-4.1-1.7-4.1-4.4C188.5,151.7,190.3,150,192.6,150z    M193.8,154.5c0-3.1-0.4-3.7-1.2-3.7s-1.2,0.6-1.2,3.7c0,3,0.4,3.7,1.2,3.7C193.4,158.1,193.8,157.5,193.8,154.5z"></path>
</g>
<g>
	<path d="M437.9,339.1v-0.9c0.4,0,0.7-0.1,1-0.2c0.4-0.1,0.9-0.4,1.1-1c0.1-0.4,0.2-0.9,0.2-1.5V327c0-0.5,0-1.2-0.1-1.7   c0-0.6-0.3-0.8-0.6-0.9c-0.3-0.1-1.1-0.3-1.6-0.3v-1c0.7,0,2.4-0.1,4-0.2c0.6-0.1,2.1-0.2,2.3-0.2c0.2,0,0.3,0.1,0.3,0.3   c0,0.4,0,1.5,0,2.2v10.3c0,0.6,0,1.2,0.1,1.5c0.2,0.6,0.6,0.9,1,1c0.3,0.1,0.6,0.2,1,0.2v0.9L437.9,339.1L437.9,339.1z"></path>
	<path d="M448.2,337.2c0-1.2,0.9-2.2,2.3-2.2s2.2,1,2.2,2.2s-0.9,2.2-2.2,2.2C449.1,339.5,448.2,338.4,448.2,337.2z"></path>
	<path d="M461.5,322.5c3.9,0,7.3,3.1,7.3,8.5s-3.4,8.5-7.3,8.5s-7.3-3.1-7.3-8.5C454.1,325.7,457.6,322.5,461.5,322.5z M461.5,323.5   c-2,0-2.8,1.8-2.8,7.5c0,5.6,0.7,7.5,2.8,7.5c2,0,2.8-1.8,2.8-7.5C464.2,325.4,463.5,323.5,461.5,323.5z"></path>
	<path d="M474.6,331.4c-2.2,0-4.1-1.7-4.1-4.4s1.8-4.5,4.1-4.5s4.1,1.7,4.1,4.5S476.8,331.4,474.6,331.4z M473.4,327   c0,3,0.4,3.7,1.2,3.7c0.8,0,1.2-0.6,1.2-3.7s-0.4-3.7-1.2-3.7S473.4,324,473.4,327z M475.1,339.5l-1-0.6l10-16.4l1,0.6L475.1,339.5   z M484.5,330.6c2.2,0,4.1,1.7,4.1,4.5c0,2.7-1.8,4.4-4.1,4.4c-2.3,0-4.1-1.7-4.1-4.4C480.4,332.3,482.3,330.6,484.5,330.6z    M485.8,335.1c0-3.1-0.4-3.7-1.2-3.7c-0.8,0-1.2,0.6-1.2,3.7c0,3,0.4,3.7,1.2,3.7C485.3,338.7,485.8,338.1,485.8,335.1z"></path>
</g>
<g>
	<path d="M52.3,34.5V34c0.4-0.1,0.9-0.1,1.1-0.3c0.3-0.2,0.5-0.3,0.6-0.7c0.1-0.4,0.1-1.1,0.1-1.8v-8.7c0-0.6,0-1.1-0.1-1.5   c-0.1-0.5-0.2-0.7-0.5-0.8c-0.3-0.1-1-0.3-1.4-0.3v-0.4l3.8-0.3c0.8-0.1,1.9-0.2,2.1-0.2c0.1,0,0.2,0,0.2,0.2c0,0.3,0,1.6,0,2.2   v9.9c0,0.7,0,1.3,0.1,1.7c0.1,0.4,0.3,0.6,0.6,0.8c0.2,0.1,0.6,0.2,1.1,0.3v0.5H52.3z"></path>
	<path d="M68.4,18.9c3.9,0,7,3.1,7,8s-3.1,8-7,8c-3.9,0-7-3.1-7-8C61.4,22,64.5,18.9,68.4,18.9z M68.4,19.5c-1.7,0-2.6,1.8-2.6,7.3   c0,5.5,0.9,7.3,2.6,7.3s2.6-1.8,2.6-7.3C71,21.3,70.1,19.5,68.4,19.5z"></path>
	<path d="M76.7,32.8c0-1.1,0.8-2,2.1-2c1.3,0,2.1,0.9,2.1,2s-0.8,2-2.1,2C77.5,34.8,76.7,33.9,76.7,32.8z"></path>
	<path d="M88.8,32.3c-0.4,1.7-0.9,2.6-2.3,2.6s-2.1-0.9-2.1-1.9c0-1.7,1.1-3.5,2.4-4.9c1.6-1.8,3.3-3.7,4.6-5.4v-0.1h-5.3   c-1,0-1.4,0.1-2,0.3c-0.6,0.3-1,0.9-1.3,1.7h-0.4l1.3-6.2h0.4c0.2,0.4,0.5,0.8,1.5,0.8h8.2v0.3C90.3,25,89.3,28.9,88.8,32.3z"></path>
	<path d="M98.7,26.9c-2.3,0-4-1.7-4-4.1c0-2.5,1.9-4.1,4-4.1c2.4,0,4.1,1.7,4.1,4.1C102.8,25.3,100.8,26.9,98.7,26.9z M97.4,22.8   c0,2.4,0.3,3.6,1.3,3.6s1.3-1.1,1.3-3.6c0-2.5-0.3-3.5-1.3-3.5S97.4,20.4,97.4,22.8z M99,34.8l-0.6-0.3l8.7-15.8l0.6,0.3L99,34.8z    M107.4,26.6c2.4,0,4,1.7,4,4.1c0,2.4-1.9,4.1-4,4.1c-2.4,0-4-1.7-4-4.1C103.4,28.2,105.3,26.6,107.4,26.6z M108.7,30.7   c0-2.5-0.3-3.5-1.3-3.5s-1.3,1.1-1.3,3.6c0,2.5,0.3,3.5,1.3,3.5C108.4,34.2,108.7,33.1,108.7,30.7z"></path>
</g>
<g>
	<path d="M1.6,10V9.7c0.2,0,0.4-0.1,0.5-0.1c0.1-0.1,0.2-0.1,0.3-0.3c0-0.2,0.1-0.5,0.1-0.8V4.3c0-0.2,0-0.5,0-0.7   c0-0.2-0.1-0.3-0.2-0.3C2,3.2,1.7,3.2,1.6,3.1V2.9c0.2,0,0.8-0.1,1.4-0.1c0.3,0,0.6-0.1,0.7-0.1c0.1,0,0.1,0,0.1,0.1   c0,0.2,0,0.7,0,1v4.7c0,0.3,0,0.6,0.1,0.7c0.1,0.2,0.1,0.2,0.3,0.3c0.1,0.1,0.3,0.1,0.5,0.1V10H1.6z"></path>
	<path d="M6.6,3.3C6.5,3.4,6.5,3.6,6.5,3.8C6.6,4,6.6,4.2,6.6,4.4C6.6,4.8,6.4,5,6,5C5.6,5,5.3,4.8,5.3,4.3c0-0.8,0.8-1.7,2.3-1.7   c1.6,0,2.5,0.7,2.5,2c0,1.5-1.6,2.8-2.4,3.4C7.4,8.2,7,8.6,6.5,8.8v0.1h2.1c0.6,0,0.8-0.1,1.1-0.4c0.2-0.2,0.4-0.5,0.5-0.7h0.2   L9.8,10H5.1l0-0.1c0.2-0.2,0.7-0.6,1-0.9C7,8,8.7,6.5,8.7,4.5C8.7,3.4,8.2,3,7.4,3C7,3,6.7,3.1,6.6,3.3z"></path>
	<path d="M12.6,6.4c-1,0-1.6-0.8-1.6-1.9c0-1.1,0.7-1.9,1.7-1.9c1,0,1.7,0.8,1.7,1.8C14.2,5.5,13.5,6.4,12.6,6.4z M11.9,4.5   c0,1.1,0.2,1.6,0.7,1.6c0.5,0,0.7-0.5,0.7-1.6c0-1.1-0.2-1.6-0.7-1.6C12.1,2.9,11.9,3.4,11.9,4.5z M12.7,10.1L12.4,10l3.9-7.3   l0.3,0.2L12.7,10.1z M16.4,6.4c1,0,1.6,0.8,1.6,1.8c0,1.1-0.7,1.9-1.6,1.9c-1,0-1.6-0.8-1.6-1.8C14.8,7.2,15.5,6.4,16.4,6.4z    M17.1,8.2c0-1.1-0.2-1.6-0.7-1.6c-0.5,0-0.7,0.5-0.7,1.6c0,1.1,0.2,1.6,0.7,1.6C16.9,9.8,17.1,9.3,17.1,8.2z"></path>
</g>
<line class="st0" x1="22.5" y1="4.5" x2="492.5" y2="4.5"></line>
<g>
	<path d="M355.7,129.5c-0.4,1.7-0.9,2.6-2.3,2.6c-1.4,0-2.1-0.9-2.1-1.9c0-1.7,1.1-3.5,2.4-4.9c1.6-1.8,3.3-3.7,4.6-5.4v-0.1H353   c-1,0-1.4,0.1-2,0.3c-0.6,0.3-1,0.9-1.3,1.7h-0.4l1.3-6.2h0.4c0.2,0.4,0.5,0.8,1.5,0.8h8.2v0.3   C357.2,122.2,356.2,126.1,355.7,129.5z"></path>
	<path d="M359.5,130c0-1.1,0.8-2,2.1-2s2.1,0.9,2.1,2s-0.8,2-2.1,2S359.5,131.1,359.5,130z"></path>
	<path d="M371.6,129.5c-0.4,1.7-0.9,2.6-2.3,2.6c-1.4,0-2.1-0.9-2.1-1.9c0-1.7,1.1-3.5,2.4-4.9c1.6-1.8,3.3-3.7,4.6-5.4v-0.1h-5.3   c-1,0-1.4,0.1-2,0.3c-0.6,0.3-1,0.9-1.3,1.7h-0.4l1.3-6.2h0.4c0.2,0.4,0.5,0.8,1.5,0.8h8.2v0.3   C373.1,122.2,372.1,126.1,371.6,129.5z"></path>
	<path d="M381.4,124.1c-2.3,0-4-1.7-4-4.1c0-2.5,1.9-4.1,4-4.1c2.4,0,4.1,1.7,4.1,4.1C385.5,122.5,383.6,124.1,381.4,124.1z    M380.2,120c0,2.4,0.3,3.6,1.3,3.6c0.9,0,1.3-1.1,1.3-3.6c0-2.5-0.3-3.5-1.3-3.5C380.5,116.5,380.2,117.6,380.2,120z M381.7,132   l-0.6-0.3l8.7-15.8l0.6,0.3L381.7,132z M390.2,123.8c2.4,0,4,1.7,4,4.1c0,2.4-1.9,4.1-4,4.1c-2.4,0-4-1.7-4-4.1   C386.1,125.4,388.1,123.8,390.2,123.8z M391.5,127.9c0-2.5-0.3-3.5-1.3-3.5c-0.9,0-1.3,1.1-1.3,3.6c0,2.5,0.3,3.5,1.3,3.5   C391.1,131.4,391.5,130.3,391.5,127.9z"></path>
</g>
<g>
	<path d="M254,172c0-2.6-1.2-3.4-2.8-3.4c-1.2,0-2.1,0.8-2.5,1.7l-0.6-0.2l1.9-8.5h0.5c0.9,0.4,2.2,0.8,3.9,0.8   c2.1,0,3.1-1.2,3.4-1.9l0.4,0.1c-0.6,3-1.9,4.9-5.3,4.9c-1.2,0-2.3-0.2-3-0.5l-0.8,3.8l0.1,0c0.6-0.7,1.9-1.3,3.7-1.3   c3.5,0,5.4,1.8,5.4,4.4c0,3.5-3.1,5.2-6.9,5.2c-3.5,0-5.1-1.7-5.1-3.4c0-1.1,0.7-1.9,1.8-1.9s1.7,0.8,1.7,1.8c0,0.5,0,0.9-0.2,1.5   c0,0.5,0,0.7,0.2,0.9c0.2,0.3,0.6,0.4,1.2,0.4C252.7,176.6,253.9,174.9,254,172z"></path>
	<path d="M259.6,175.2c0-1.1,0.8-2,2.1-2s2.1,0.9,2.1,2s-0.8,2-2.1,2S259.6,176.3,259.6,175.2z"></path>
	<path d="M267.5,172.6c1.2,0,1.8,0.8,1.8,1.6c0,0.5-0.1,0.8-0.2,1.1c-0.2,0.4-0.3,0.6-0.3,0.8c0,0.3,0.4,0.5,1.2,0.5   c2.4,0,3.6-2.6,3.7-6.3h-0.1c-0.5,0.8-1.5,1.3-2.8,1.3c-3,0-5.2-1.6-5.2-5c0-3.2,2.5-5.4,6-5.4c4.3,0,6.5,2.9,6.5,6.9   c0,6.3-3.9,9-7.8,9c-3.3,0-4.4-1.3-4.4-2.8C265.7,173.4,266.4,172.6,267.5,172.6z M273.7,166.3c0-3.6-0.9-4.4-2.2-4.4   c-1.4,0-2.1,0.9-2.1,4.5c0,3.7,0.8,4.3,2.1,4.3C272.6,170.8,273.7,170.1,273.7,166.3z"></path>
	<path d="M283.4,169.4c-2.3,0-4-1.7-4-4.1c0-2.5,1.9-4.1,4-4.1c2.4,0,4.1,1.7,4.1,4.1C287.5,167.7,285.5,169.4,283.4,169.4z    M282.1,165.3c0,2.4,0.3,3.6,1.3,3.6c0.9,0,1.3-1.1,1.3-3.6c0-2.5-0.3-3.5-1.3-3.5C282.4,161.7,282.1,162.8,282.1,165.3z    M283.7,177.3l-0.6-0.3l8.7-15.8l0.6,0.3L283.7,177.3z M292.1,169c2.4,0,4,1.7,4,4.1c0,2.4-1.9,4.1-4,4.1c-2.4,0-4-1.7-4-4.1   C288.1,170.6,290,169,292.1,169z M293.4,173.1c0-2.5-0.3-3.5-1.3-3.5c-0.9,0-1.3,1.1-1.3,3.6c0,2.5,0.3,3.5,1.3,3.5   C293,176.7,293.4,175.6,293.4,173.1z"></path>
</g>
</svg>
