<?xml version="1.0" encoding="UTF-8"?>
<!-- Generator: Adobe Illustrator 26.0.0, SVG Export Plug-In . SVG Version: 6.00 Build 0)  -->
<svg xmlns="http://www.w3.org/2000/svg" xmlns:xlink="http://www.w3.org/1999/xlink" version="1.1" id="Layer_1" x="0px" y="0px" viewBox="0 0 512 431.2" style="enable-background:new 0 0 512 431.2;" xml:space="preserve">
<style type="text/css">
	.st0{fill:none;stroke:#D9D9D9;stroke-width:0.5833;stroke-linejoin:round;stroke-miterlimit:10;}
	.st1{enable-background:new    ;}
	.st2{fill-rule:evenodd;clip-rule:evenodd;fill:#79726B;}
	.st3{fill-rule:evenodd;clip-rule:evenodd;}
	.st4{fill-rule:evenodd;clip-rule:evenodd;fill:#FFC000;}
	.st5{fill-rule:evenodd;clip-rule:evenodd;fill:#B2ADA8;}
	.st6{fill:none;}
</style>
<g>
	<g>
		<g>
			<path class="st0" d="M43.7,333.3h426 M43.7,281.7h426 M43.7,230.8h426 M43.7,179.2h426 M43.7,128.4h426 M43.7,76.8h426      M43.7,25.9h426"></path>
		</g>
	</g>
</g>
<g>
	<g>
		<g>
			<g>
				<g class="st1">
					<path d="M23.4,331.8c0.2,0.3,0.4,0.6,0.5,1s0.2,0.8,0.2,1.2c0,0.5-0.1,0.9-0.2,1.3s-0.3,0.7-0.6,1s-0.6,0.5-0.9,0.6       c-0.4,0.1-0.7,0.2-1.2,0.2s-0.9-0.1-1.3-0.2c-0.4-0.2-0.7-0.4-0.9-0.7c-0.2-0.3-0.4-0.6-0.5-1s-0.2-0.8-0.2-1.2       c0-0.4,0.1-0.8,0.2-1.2s0.3-0.7,0.5-1s0.5-0.5,0.9-0.7s0.8-0.2,1.3-0.2s0.9,0.1,1.3,0.3C22.9,331.3,23.2,331.5,23.4,331.8z        M22.9,334c0-0.9-0.2-1.6-0.5-2c-0.3-0.5-0.7-0.7-1.2-0.7s-0.9,0.2-1.2,0.7s-0.5,1.2-0.5,2s0.1,1.5,0.4,2s0.7,0.8,1.2,0.8       s1-0.3,1.2-0.8S22.9,334.8,22.9,334z"></path>
				</g>
			</g>
		</g>
		<g>
			<g>
				<g class="st1">
					<path d="M29.2,331c0,0.6-0.2,1.1-0.5,1.5s-0.8,0.5-1.4,0.5s-1-0.2-1.4-0.5c-0.3-0.4-0.5-0.9-0.5-1.5s0.2-1.1,0.5-1.5       s0.8-0.6,1.4-0.6s1,0.2,1.4,0.6S29.2,330.4,29.2,331z M33.2,329.1l-6.5,7.9h-0.8l6.5-7.9H33.2z M28.3,331       c0-0.5-0.1-0.9-0.2-1.2c-0.2-0.3-0.4-0.5-0.7-0.5s-0.6,0.2-0.7,0.5c-0.2,0.3-0.2,0.7-0.2,1.2s0.1,0.9,0.2,1.2       c0.2,0.3,0.4,0.5,0.7,0.5s0.5-0.2,0.7-0.5C28.2,331.9,28.3,331.5,28.3,331z M33.5,335.1c0,0.6-0.2,1.2-0.5,1.5       c-0.4,0.4-0.8,0.5-1.4,0.5s-1-0.2-1.4-0.5c-0.3-0.4-0.5-0.9-0.5-1.5s0.2-1.1,0.5-1.5s0.8-0.6,1.4-0.6s1,0.2,1.4,0.6       C33.3,334,33.5,334.5,33.5,335.1z M32.6,335.1c0-0.5-0.1-0.9-0.2-1.2c-0.2-0.3-0.4-0.5-0.7-0.5s-0.6,0.2-0.7,0.5       s-0.2,0.7-0.2,1.2s0.1,0.9,0.2,1.2c0.2,0.3,0.4,0.5,0.7,0.5s0.5-0.2,0.7-0.5C32.5,336,32.6,335.6,32.6,335.1z"></path>
				</g>
			</g>
		</g>
	</g>
</g>
<g class="st1">
	<path d="M24.3,285.7h-3.7v-0.4c0.1,0,0.3,0,0.5,0s0.4,0,0.5-0.1c0.1,0,0.2-0.1,0.3-0.2s0.1-0.2,0.1-0.4v-3.9h-1.4v-0.5h0.3   c0.4,0,0.8-0.1,1.1-0.2s0.5-0.3,0.7-0.5h0.5c0,0.2,0,0.5,0,0.8s0,0.6,0,0.9v3.3c0,0.1,0,0.2,0.1,0.3s0.1,0.2,0.2,0.2   s0.3,0.1,0.5,0.1s0.4,0.1,0.5,0.1v0.5L24.3,285.7L24.3,285.7z"></path>
</g>
<g class="st1">
	<path d="M29.1,279.8c0,0.6-0.2,1.1-0.5,1.5s-0.8,0.5-1.4,0.5s-1-0.2-1.4-0.5c-0.3-0.4-0.5-0.9-0.5-1.5s0.2-1.1,0.5-1.5   s0.8-0.6,1.4-0.6s1,0.2,1.4,0.6C28.9,278.6,29.1,279.1,29.1,279.8z M33,277.9l-6.5,7.9h-0.8l6.5-7.9H33z M28.2,279.8   c0-0.5-0.1-0.9-0.2-1.2c-0.2-0.3-0.4-0.5-0.7-0.5s-0.6,0.2-0.7,0.5c-0.2,0.3-0.2,0.7-0.2,1.2s0.1,0.9,0.2,1.2   c0.2,0.3,0.4,0.5,0.7,0.5s0.5-0.2,0.7-0.5C28.1,280.6,28.2,280.2,28.2,279.8z M33.4,283.9c0,0.6-0.2,1.2-0.5,1.5   c-0.4,0.4-0.8,0.5-1.4,0.5s-1-0.2-1.4-0.5c-0.3-0.4-0.5-0.9-0.5-1.5s0.2-1.1,0.5-1.5s0.8-0.6,1.4-0.6s1,0.2,1.4,0.6   C33.2,282.8,33.4,283.3,33.4,283.9z M32.5,283.9c0-0.5-0.1-0.9-0.2-1.2c-0.2-0.3-0.4-0.5-0.7-0.5s-0.6,0.2-0.7,0.5   s-0.2,0.7-0.2,1.2s0.1,0.9,0.2,1.2c0.2,0.3,0.4,0.5,0.7,0.5s0.5-0.2,0.7-0.5C32.4,284.8,32.5,284.4,32.5,283.9z"></path>
</g>
<g class="st1">
	<path d="M24.2,234.5H19v-0.8c0.1-0.1,0.2-0.2,0.4-0.4c0.2-0.1,0.4-0.3,0.6-0.5c0.1-0.1,0.3-0.2,0.5-0.3s0.4-0.2,0.7-0.4   c0.3-0.2,0.5-0.3,0.7-0.4s0.3-0.3,0.4-0.4s0.2-0.3,0.2-0.4s0.1-0.4,0.1-0.7c0-0.5-0.1-0.8-0.4-1c-0.2-0.2-0.6-0.3-1-0.3   c-0.2,0-0.5,0-0.7,0.1s-0.4,0.2-0.5,0.4c0,0.1,0.1,0.3,0.1,0.4c0,0.2,0.1,0.3,0.1,0.5c0,0.1-0.1,0.3-0.2,0.4s-0.3,0.2-0.5,0.2   s-0.3-0.1-0.4-0.2s-0.1-0.3-0.1-0.5s0.1-0.4,0.2-0.6s0.3-0.4,0.5-0.6s0.5-0.3,0.8-0.4s0.6-0.2,1-0.2c0.8,0,1.4,0.2,1.8,0.5   s0.7,0.8,0.7,1.3c0,0.3,0,0.5-0.1,0.7s-0.2,0.4-0.4,0.6s-0.4,0.3-0.7,0.5c-0.3,0.1-0.7,0.3-1.2,0.6c-0.3,0.1-0.6,0.3-0.9,0.4   c-0.3,0.2-0.5,0.3-0.7,0.5h4.2V234.5z"></path>
</g>
<g class="st1">
	<path d="M29,228.5c0,0.6-0.2,1.2-0.5,1.5s-0.8,0.5-1.4,0.5s-1-0.2-1.4-0.5c-0.3-0.4-0.5-0.9-0.5-1.5s0.2-1.1,0.5-1.5   s0.8-0.6,1.4-0.6s1,0.2,1.4,0.6S29,227.9,29,228.5z M33,226.7l-6.5,7.9h-0.8l6.5-7.9H33z M28.1,228.5c0-0.5-0.1-0.9-0.2-1.2   c-0.2-0.3-0.4-0.5-0.7-0.5s-0.6,0.2-0.7,0.5s-0.3,0.8-0.3,1.2c0,0.5,0.1,0.9,0.2,1.2c0.2,0.3,0.4,0.5,0.7,0.5s0.5-0.2,0.7-0.5   C28,229.4,28.1,229,28.1,228.5z M33.3,232.6c0,0.6-0.2,1.2-0.5,1.5c-0.4,0.4-0.8,0.5-1.4,0.5s-1-0.2-1.4-0.5   c-0.3-0.4-0.5-0.9-0.5-1.5s0.2-1.1,0.5-1.5s0.8-0.6,1.4-0.6s1,0.2,1.4,0.6S33.3,232,33.3,232.6z M32.4,232.6c0-0.5-0.1-0.9-0.2-1.2   c-0.2-0.3-0.4-0.5-0.7-0.5s-0.6,0.2-0.7,0.5s-0.2,0.7-0.2,1.2s0.1,0.9,0.2,1.2c0.2,0.3,0.4,0.5,0.7,0.5s0.5-0.2,0.7-0.5   C32.3,233.5,32.4,233.1,32.4,232.6z"></path>
</g>
<g class="st1">
	<path d="M21.2,185.3c-0.3,0-0.7,0-1-0.1s-0.5-0.2-0.7-0.4c-0.2-0.1-0.4-0.3-0.5-0.5s-0.2-0.4-0.2-0.6s0-0.3,0.1-0.5   c0.1-0.1,0.2-0.2,0.4-0.2s0.4,0.1,0.5,0.2s0.2,0.2,0.2,0.4c0,0.1,0,0.3-0.1,0.4c0,0.2-0.1,0.3-0.1,0.4l0.1,0.1   c0.1,0.1,0.2,0.1,0.3,0.1c0.1,0.1,0.2,0.1,0.4,0.1c0.1,0,0.3,0,0.5,0s0.4,0,0.6-0.1s0.4-0.2,0.5-0.4c0.2-0.2,0.3-0.4,0.4-0.6   s0.1-0.5,0.1-0.9c0-0.2,0-0.4-0.1-0.6s-0.1-0.4-0.2-0.5s-0.3-0.3-0.5-0.3c-0.2-0.1-0.4-0.1-0.8-0.1h-0.7v-0.6h0.8   c0.5,0,0.9-0.1,1.1-0.4s0.3-0.7,0.3-1.3c0-0.5-0.1-0.8-0.3-1s-0.5-0.4-0.9-0.4c-0.2,0-0.4,0-0.5,0.1c-0.1,0-0.2,0.1-0.3,0.1   c-0.1,0.1-0.2,0.1-0.2,0.2s-0.1,0.1-0.1,0.1c0,0.1,0.1,0.3,0.1,0.4c0,0.2,0.1,0.3,0.1,0.5c0,0.1-0.1,0.3-0.2,0.4s-0.3,0.2-0.5,0.2   s-0.3-0.1-0.4-0.2s-0.1-0.3-0.1-0.5s0.1-0.4,0.2-0.6s0.3-0.4,0.5-0.6c0.2-0.2,0.5-0.3,0.8-0.4c0.3-0.1,0.7-0.2,1-0.2   c0.5,0,0.8,0.1,1.1,0.2s0.5,0.3,0.7,0.5s0.3,0.4,0.3,0.6c0.1,0.2,0.1,0.4,0.1,0.5c0,0.2,0,0.4-0.1,0.6s-0.1,0.4-0.3,0.5   c-0.1,0.2-0.3,0.3-0.5,0.5c-0.2,0.1-0.5,0.3-0.8,0.3v0.1c0.2,0,0.4,0.1,0.7,0.1c0.2,0.1,0.4,0.2,0.6,0.3c0.2,0.2,0.4,0.3,0.5,0.6   c0.1,0.2,0.2,0.5,0.2,0.9c0,0.7-0.3,1.3-0.9,1.7C22.7,185.1,22,185.3,21.2,185.3z"></path>
</g>
<g class="st1">
	<path d="M29.2,177.3c0,0.6-0.2,1.1-0.5,1.5s-0.8,0.5-1.4,0.5s-1-0.2-1.4-0.5c-0.3-0.4-0.5-0.9-0.5-1.5s0.2-1.1,0.5-1.5   s0.8-0.6,1.4-0.6s1,0.2,1.4,0.6S29.2,176.7,29.2,177.3z M33.2,175.4l-6.5,7.9h-0.8l6.5-7.9H33.2z M28.3,177.3   c0-0.5-0.1-0.9-0.2-1.2c-0.2-0.3-0.4-0.5-0.7-0.5s-0.6,0.2-0.7,0.5s-0.2,0.7-0.2,1.2s0.1,0.9,0.2,1.2c0.2,0.3,0.4,0.5,0.7,0.5   s0.5-0.2,0.7-0.5C28.2,178.2,28.3,177.8,28.3,177.3z M33.5,181.4c0,0.6-0.2,1.2-0.5,1.5c-0.4,0.4-0.8,0.5-1.4,0.5s-1-0.2-1.4-0.5   c-0.3-0.4-0.5-0.9-0.5-1.5s0.2-1.1,0.5-1.5s0.8-0.6,1.4-0.6s1,0.2,1.4,0.6S33.5,180.8,33.5,181.4z M32.6,181.4   c0-0.5-0.1-0.9-0.2-1.2c-0.2-0.3-0.4-0.5-0.7-0.5s-0.6,0.2-0.7,0.5s-0.2,0.7-0.2,1.2s0.1,0.9,0.2,1.2c0.2,0.3,0.4,0.5,0.7,0.5   s0.5-0.2,0.7-0.5C32.5,182.3,32.6,181.9,32.6,181.4z"></path>
</g>
<g class="st1">
	<path d="M24.3,131.6h-1.1v2.5h-1.1v-2.5h-3.5v-0.9l3.9-4.7h0.7v4.8h1.1V131.6z M22.1,130.9v-3.6l-3,3.6H22.1z"></path>
</g>
<g class="st1">
	<path d="M29.1,126.1c0,0.6-0.2,1.2-0.5,1.5s-0.8,0.5-1.4,0.5s-1-0.2-1.4-0.5c-0.3-0.4-0.5-0.9-0.5-1.5s0.2-1.1,0.5-1.5   s0.8-0.6,1.4-0.6s1,0.2,1.4,0.6S29.1,125.5,29.1,126.1z M33,124.2l-6.5,7.9h-0.8l6.5-7.9C32.2,124.2,33,124.2,33,124.2z    M28.1,126.1c0-0.5-0.1-0.9-0.2-1.2c-0.2-0.3-0.4-0.5-0.7-0.5s-0.6,0.2-0.7,0.5s-0.2,0.7-0.2,1.2s0.1,0.9,0.2,1.2   c0.2,0.3,0.4,0.5,0.7,0.5s0.5-0.2,0.7-0.5S28.1,126.6,28.1,126.1z M33.4,130.2c0,0.6-0.2,1.2-0.5,1.5s-0.8,0.5-1.4,0.5   s-1-0.2-1.4-0.5c-0.3-0.4-0.5-0.9-0.5-1.5s0.2-1.1,0.5-1.5s0.8-0.6,1.4-0.6s1,0.2,1.4,0.6C33.2,129.1,33.4,129.6,33.4,130.2z    M32.4,130.2c0-0.5-0.1-0.9-0.2-1.2c-0.2-0.3-0.4-0.5-0.7-0.5s-0.6,0.2-0.7,0.5s-0.2,0.7-0.2,1.2s0.1,0.9,0.2,1.2   c0.2,0.3,0.4,0.5,0.7,0.5s0.5-0.2,0.7-0.5C32.4,131.1,32.4,130.7,32.4,130.2z"></path>
</g>
<g class="st1">
	<path d="M23.4,78.3c0.2,0.2,0.4,0.4,0.6,0.7s0.2,0.7,0.2,1.1c0,0.8-0.3,1.4-0.8,2c-0.5,0.5-1.2,0.8-2.1,0.8c-0.6,0-1.2-0.2-1.6-0.5   S19,81.7,19,81.3c0-0.2,0-0.4,0.1-0.5s0.2-0.2,0.4-0.2s0.4,0.1,0.5,0.2s0.2,0.2,0.2,0.4c0,0.1,0,0.3-0.1,0.4c0,0.2-0.1,0.3-0.1,0.4   l0.1,0.1c0.1,0,0.1,0.1,0.2,0.1s0.2,0.1,0.4,0.1c0.1,0,0.3,0,0.5,0s0.5,0,0.7-0.1s0.4-0.2,0.5-0.4c0.2-0.2,0.3-0.4,0.4-0.7   s0.1-0.6,0.1-1c0-0.5-0.1-0.9-0.4-1.3c-0.3-0.3-0.7-0.5-1.1-0.5c-0.3,0-0.6,0.1-0.8,0.2c-0.3,0.1-0.5,0.3-0.7,0.6L19.5,79l0.5-4h4   v1h-3.5l-0.3,2.3c0.2-0.1,0.4-0.2,0.7-0.4c0.3-0.1,0.6-0.2,0.9-0.2s0.5,0,0.8,0.1S23.1,78.1,23.4,78.3z"></path>
</g>
<g class="st1">
	<path d="M28.8,74.9c0,0.6-0.2,1.2-0.5,1.5s-0.8,0.5-1.4,0.5s-1-0.2-1.4-0.5C25.2,76,25,75.5,25,74.9s0.2-1.1,0.5-1.5   s0.8-0.6,1.4-0.6s1,0.2,1.4,0.6C28.7,73.8,28.8,74.3,28.8,74.9z M32.7,73l-6.5,7.9h-0.8l6.5-7.9C31.9,73,32.7,73,32.7,73z    M27.9,74.9c0-0.5-0.1-0.9-0.2-1.2c-0.2-0.3-0.4-0.5-0.7-0.5s-0.6,0.2-0.7,0.5s-0.2,0.7-0.2,1.2s0.1,0.9,0.2,1.2   c0.2,0.3,0.4,0.5,0.7,0.5s0.5-0.2,0.7-0.5C27.8,75.8,27.9,75.4,27.9,74.9z M33.1,79c0,0.6-0.2,1.2-0.5,1.5S31.8,81,31.2,81   s-1-0.2-1.4-0.5c-0.3-0.4-0.5-0.9-0.5-1.5s0.2-1.1,0.5-1.5s0.8-0.6,1.4-0.6s1,0.2,1.4,0.6C32.9,77.9,33.1,78.4,33.1,79z M32.2,79   c0-0.5-0.1-0.9-0.2-1.2c-0.2-0.3-0.4-0.5-0.7-0.5s-0.6,0.2-0.7,0.5s-0.2,0.7-0.2,1.2s0.1,0.9,0.2,1.2c0.2,0.3,0.4,0.5,0.7,0.5   s0.5-0.2,0.7-0.5C32.1,79.9,32.2,79.5,32.2,79z"></path>
</g>
<path d="M24.3,27.1c0,0.4-0.1,0.7-0.2,1.1s-0.3,0.6-0.6,0.9s-0.6,0.5-0.9,0.6s-0.7,0.2-1,0.2c-0.4,0-0.8-0.1-1.1-0.2  c-0.3-0.2-0.6-0.4-0.8-0.6c-0.2-0.3-0.4-0.6-0.5-1S19,27.2,19,26.7c0-1.3,0.4-2.4,1.2-3.3s1.8-1.4,3.1-1.6l0.1,0.5l-0.5,0.1  c-0.8,0.3-1.4,0.7-1.9,1.2c-0.4,0.5-0.7,1.2-0.8,2c0.3-0.3,0.6-0.5,0.9-0.6s0.6-0.2,1-0.2c0.6,0,1.1,0.2,1.6,0.7  C24,25.8,24.3,26.4,24.3,27.1z M23.1,27.2c0-0.6-0.1-1.1-0.4-1.4c-0.3-0.4-0.6-0.5-1.1-0.5c-0.3,0-0.5,0.1-0.8,0.2s-0.5,0.3-0.7,0.5  c0,0,0,0.1,0,0.3c0,0.2,0,0.3,0,0.4c0,0.9,0.1,1.5,0.4,2s0.7,0.7,1.1,0.7s0.8-0.2,1.1-0.6C22.9,28.4,23.1,27.9,23.1,27.2z"></path>
<path d="M29.1,23.7c0,0.6-0.2,1.2-0.5,1.5s-0.8,0.5-1.4,0.5s-1-0.2-1.4-0.5c-0.3-0.4-0.5-0.9-0.5-1.5s0.2-1.1,0.5-1.5  s0.8-0.6,1.4-0.6s1,0.2,1.4,0.6S29.1,23,29.1,23.7z M33,21.8l-6.5,7.9h-0.8l6.5-7.9H33z M28.1,23.7c0-0.5-0.1-0.9-0.2-1.2  c-0.2-0.3-0.4-0.5-0.7-0.5s-0.6,0.2-0.7,0.5s-0.2,0.7-0.2,1.2s0.1,0.9,0.2,1.2c0.2,0.3,0.4,0.5,0.7,0.5s0.5-0.2,0.7-0.5  C28.1,24.5,28.1,24.1,28.1,23.7z M33.4,27.8c0,0.6-0.2,1.2-0.5,1.5s-0.8,0.5-1.4,0.5s-1-0.2-1.4-0.5c-0.3-0.4-0.5-0.9-0.5-1.5  s0.2-1.1,0.5-1.5s0.8-0.6,1.4-0.6s1,0.2,1.4,0.6C33.2,26.7,33.4,27.2,33.4,27.8z M32.4,27.8c0-0.5-0.1-0.9-0.2-1.2  c-0.2-0.3-0.4-0.5-0.7-0.5s-0.6,0.2-0.7,0.5s-0.2,0.7-0.2,1.2s0.1,0.9,0.2,1.2c0.2,0.3,0.4,0.5,0.7,0.5s0.5-0.2,0.7-0.5  S32.4,28.3,32.4,27.8z"></path>
<g>
	<g>
		<g>
			<g>
				<polygon class="st2" points="395.3,121.5 457.7,121.5 457.7,332.9 395.3,332.9     "></polygon>
			</g>
		</g>
	</g>
</g>
<g>
	<g>
		<g>
			<g>
				<g>
					<polygon class="st2" points="377.3,353 383,353 383,358.7 377.3,358.7      "></polygon>
				</g>
			</g>
		</g>
	</g>
	<g class="st1">
		<path d="M392.1,353.9c0,0.4-0.1,0.8-0.2,1.1c-0.2,0.3-0.4,0.6-0.7,0.8c-0.3,0.2-0.6,0.4-0.9,0.5s-0.7,0.1-1.1,0.1h-0.9v2.4    c0,0.1,0,0.2,0.1,0.3s0.1,0.2,0.3,0.2c0.1,0,0.2,0,0.4,0.1c0.2,0,0.3,0,0.5,0v0.4h-3.5v-0.4c0.1,0,0.2,0,0.4,0    c0.2,0,0.3,0,0.4-0.1c0.1,0,0.2-0.1,0.2-0.2s0.1-0.2,0.1-0.4V353c0-0.1,0-0.2-0.1-0.3c0-0.1-0.1-0.2-0.3-0.2    c-0.1,0-0.3-0.1-0.4-0.1s-0.3,0-0.4,0V352h3.6c0.7,0,1.3,0.2,1.8,0.5C392,352.9,392.1,353.3,392.1,353.9z M390.5,355.3    c0.1-0.2,0.2-0.4,0.2-0.5c0-0.2,0.1-0.4,0.1-0.5c0-0.2,0-0.4-0.1-0.6c0-0.2-0.1-0.4-0.3-0.6c-0.1-0.2-0.3-0.3-0.5-0.4    s-0.5-0.1-0.8-0.1h-0.8v3.5h0.6c0.4,0,0.7-0.1,1-0.2C390.1,355.6,390.4,355.5,390.5,355.3z"></path>
	</g>
	<g class="st1">
		<path d="M399,359.7l-1.8,0.1l-0.1-0.1V359l0,0c-0.1,0.1-0.2,0.2-0.3,0.3c-0.1,0.1-0.2,0.2-0.4,0.3c-0.2,0.1-0.3,0.2-0.5,0.2    c-0.2,0.1-0.4,0.1-0.7,0.1c-0.5,0-0.8-0.2-1.1-0.5c-0.3-0.3-0.4-0.8-0.4-1.4v-2.6c0-0.1,0-0.2-0.1-0.3c0-0.1-0.1-0.2-0.2-0.2    s-0.1-0.1-0.3-0.1c-0.1,0-0.2,0-0.3,0v-0.4l1.8-0.1l0.1,0.1v3.8c0,0.4,0.1,0.7,0.3,0.9c0.2,0.2,0.4,0.3,0.6,0.3s0.4,0,0.5-0.1    c0.2-0.1,0.3-0.1,0.4-0.2s0.2-0.2,0.3-0.2c0.1-0.1,0.1-0.2,0.2-0.2v-3.1c0-0.1,0-0.2-0.1-0.3c-0.1-0.1-0.1-0.2-0.2-0.2    s-0.2-0.1-0.3-0.1s-0.3,0-0.4,0v-0.4l2-0.1l0.1,0.1v4.3c0,0.1,0,0.2,0.1,0.3c0.1,0.1,0.1,0.2,0.2,0.2s0.1,0.1,0.2,0.1s0.2,0,0.3,0    L399,359.7L399,359.7z"></path>
	</g>
	<g class="st1">
		<path d="M405,357.1c0,0.8-0.3,1.5-0.8,2.1s-1.1,0.8-1.8,0.8c-0.3,0-0.6,0-0.9-0.1s-0.6-0.2-0.8-0.4l-0.4,0.6L400,360    c0-0.3,0-0.6,0-1s0-0.8,0-1.1v-5.4c0-0.1,0-0.3-0.1-0.4s-0.1-0.2-0.2-0.3c-0.1,0-0.2-0.1-0.4-0.1c-0.2,0-0.3,0-0.4,0v-0.3l2-0.1    l0.1,0.1v3.6l0,0c0.2-0.2,0.5-0.4,0.7-0.5s0.5-0.2,0.8-0.2c0.7,0,1.2,0.3,1.7,0.8C404.8,355.6,405,356.3,405,357.1z M403.8,357.1    c0-0.3,0-0.5-0.1-0.8s-0.2-0.5-0.3-0.7s-0.3-0.4-0.5-0.5s-0.4-0.2-0.7-0.2c-0.3,0-0.5,0.1-0.7,0.2s-0.4,0.2-0.5,0.4v3.2    c0,0.1,0.1,0.2,0.1,0.3s0.2,0.2,0.3,0.3c0.1,0.1,0.2,0.2,0.4,0.3c0.2,0.1,0.3,0.1,0.5,0.1c0.4,0,0.8-0.2,1.1-0.7    C403.6,358.5,403.8,357.9,403.8,357.1z"></path>
	</g>
	<g class="st1">
		<path d="M408.4,359.8h-2.7v-0.4c0.1,0,0.2,0,0.3,0s0.2,0,0.2,0c0.1,0,0.2-0.1,0.2-0.2c0.1-0.1,0.1-0.2,0.1-0.3v-6.3    c0-0.1,0-0.3-0.1-0.4s-0.1-0.2-0.2-0.3c-0.1,0-0.2-0.1-0.4-0.1c-0.2,0-0.3-0.1-0.4-0.1v-0.3l2.1-0.1l0.1,0.1v7.5    c0,0.1,0,0.2,0.1,0.3c0,0.1,0.1,0.1,0.2,0.2c0.1,0,0.2,0.1,0.2,0.1c0.1,0,0.2,0,0.3,0L408.4,359.8L408.4,359.8z"></path>
	</g>
	<g class="st1">
		<path d="M412,359.8h-2.6v-0.4c0.1,0,0.2,0,0.3,0s0.2,0,0.2,0c0.1,0,0.2-0.1,0.2-0.2s0.1-0.2,0.1-0.3v-3.4c0-0.1,0-0.2-0.1-0.3    c-0.1-0.1-0.1-0.2-0.2-0.2s-0.2-0.1-0.3-0.1s-0.3-0.1-0.4-0.1v-0.4l1.9-0.1l0.1,0.1v4.4c0,0.1,0,0.2,0.1,0.3    c0,0.1,0.1,0.1,0.2,0.2c0.1,0,0.2,0.1,0.2,0.1c0.1,0,0.2,0,0.3,0L412,359.8L412,359.8z M411.3,352.2c0,0.2-0.1,0.4-0.2,0.5    c-0.1,0.2-0.3,0.2-0.5,0.2s-0.4-0.1-0.5-0.2s-0.2-0.3-0.2-0.5s0.1-0.4,0.2-0.5c0.1-0.2,0.3-0.2,0.5-0.2s0.4,0.1,0.5,0.2    S411.3,352,411.3,352.2z"></path>
	</g>
	<g class="st1">
		<path d="M414.8,360c-0.8,0-1.4-0.3-1.9-0.8c-0.4-0.5-0.7-1.2-0.7-2.1c0-0.4,0.1-0.7,0.2-1.1s0.3-0.6,0.5-0.9s0.5-0.5,0.8-0.6    s0.7-0.2,1.1-0.2c0.5,0,1,0.1,1.3,0.4s0.5,0.6,0.5,1c0,0.2,0,0.3-0.1,0.5s-0.2,0.2-0.4,0.2c-0.2,0-0.4-0.1-0.5-0.2    s-0.2-0.2-0.2-0.4c0-0.2,0-0.3,0.1-0.5c0-0.2,0.1-0.3,0.1-0.4c-0.1-0.1-0.2-0.2-0.3-0.2s-0.3-0.1-0.4-0.1c-0.2,0-0.3,0-0.5,0.1    s-0.3,0.2-0.5,0.4c-0.1,0.2-0.2,0.4-0.3,0.7c-0.1,0.3-0.1,0.7-0.1,1.1c0,0.7,0.2,1.2,0.5,1.7c0.3,0.4,0.7,0.6,1.2,0.6    c0.4,0,0.7-0.1,0.9-0.3c0.2-0.2,0.5-0.4,0.7-0.8l0.4,0.2c-0.2,0.4-0.6,0.8-1,1C415.6,359.9,415.1,360,414.8,360z"></path>
	</g>
	<g class="st1">
		<path d="M427.8,359.8h-2.1c-0.5-0.7-0.9-1.4-1.3-1.9s-0.8-1.1-1.2-1.7h-0.8v2.5c0,0.1,0,0.2,0.1,0.3c0,0.1,0.1,0.2,0.3,0.2    c0.1,0,0.2,0,0.3,0.1s0.3,0,0.4,0v0.4h-3.3v-0.3c0.1,0,0.2,0,0.4,0s0.3,0,0.4-0.1c0.1,0,0.2-0.1,0.2-0.2s0.1-0.2,0.1-0.4V353    c0-0.1,0-0.2-0.1-0.3c0-0.1-0.1-0.2-0.3-0.2c-0.1,0-0.2-0.1-0.4-0.1c-0.1,0-0.3,0-0.4-0.1v-0.4h3.6c0.3,0,0.6,0,0.9,0.1    s0.6,0.2,0.8,0.3c0.2,0.1,0.4,0.3,0.5,0.6s0.2,0.5,0.2,0.9c0,0.3,0,0.6-0.1,0.8c-0.1,0.2-0.2,0.4-0.4,0.6    c-0.2,0.2-0.4,0.3-0.6,0.4s-0.5,0.2-0.8,0.3c0.4,0.5,0.7,0.9,1,1.3c0.3,0.3,0.6,0.8,0.9,1.3c0.2,0.2,0.3,0.4,0.4,0.5    s0.3,0.2,0.4,0.3c0.1,0,0.2,0.1,0.4,0.1c0.1,0,0.3,0,0.4,0v0.4L427.8,359.8L427.8,359.8z M424.9,354c0-0.5-0.1-0.8-0.4-1.1    c-0.3-0.3-0.7-0.4-1.2-0.4h-0.9v3.4h0.7c0.5,0,0.9-0.2,1.3-0.5C424.7,355,424.9,354.6,424.9,354z"></path>
	</g>
	<g class="st1">
		<path d="M433.3,358.6c-0.2,0.4-0.5,0.8-0.9,1c-0.4,0.3-0.8,0.4-1.3,0.4c-0.4,0-0.8-0.1-1.2-0.2c-0.3-0.2-0.6-0.4-0.8-0.6    c-0.2-0.3-0.4-0.6-0.5-0.9c-0.1-0.4-0.2-0.7-0.2-1.1s0.1-0.7,0.2-1s0.3-0.6,0.5-0.9s0.5-0.5,0.8-0.6s0.7-0.2,1-0.2    c0.4,0,0.7,0.1,1,0.2s0.5,0.3,0.7,0.5s0.3,0.4,0.4,0.7s0.1,0.6,0.1,0.9v0.4h-3.6c0,0.4,0,0.7,0.1,1s0.2,0.5,0.3,0.8    c0.1,0.2,0.3,0.4,0.6,0.5c0.2,0.1,0.5,0.2,0.8,0.2s0.6-0.1,0.8-0.2s0.5-0.4,0.7-0.8L433.3,358.6z M432.1,356.5    c0-0.2,0-0.4-0.1-0.7c0-0.2-0.1-0.4-0.2-0.6s-0.2-0.3-0.3-0.4s-0.3-0.2-0.6-0.2c-0.4,0-0.7,0.2-1,0.5s-0.4,0.8-0.4,1.3h2.6V356.5z    "></path>
	</g>
	<g class="st1">
		<path d="M438.7,359.7c-0.2,0.1-0.3,0.1-0.5,0.2c-0.1,0-0.3,0.1-0.4,0.1c-0.3,0-0.5-0.1-0.7-0.2s-0.3-0.3-0.3-0.6l0,0    c-0.2,0.3-0.5,0.5-0.8,0.6s-0.6,0.2-1,0.2s-0.7-0.1-1-0.4s-0.4-0.6-0.4-1c0-0.2,0-0.4,0.1-0.6s0.1-0.3,0.3-0.4    c0.1-0.1,0.2-0.2,0.4-0.3c0.2-0.1,0.3-0.2,0.4-0.2c0.2-0.1,0.5-0.2,1-0.3c0.5-0.2,0.8-0.3,1-0.4v-0.5c0,0,0-0.1,0-0.3    c0-0.1-0.1-0.3-0.1-0.4c-0.1-0.1-0.2-0.3-0.3-0.4c-0.1-0.1-0.3-0.2-0.6-0.2c-0.2,0-0.3,0-0.5,0.1s-0.2,0.1-0.3,0.2    c0,0.1,0,0.2,0.1,0.3c0,0.1,0.1,0.3,0.1,0.4s-0.1,0.2-0.2,0.4c-0.1,0.1-0.3,0.2-0.5,0.2s-0.3-0.1-0.4-0.2s-0.1-0.3-0.1-0.4    c0-0.2,0.1-0.3,0.2-0.5s0.3-0.3,0.5-0.4s0.4-0.2,0.6-0.3c0.2-0.1,0.5-0.1,0.7-0.1c0.3,0,0.6,0,0.8,0.1c0.2,0,0.4,0.1,0.6,0.3    c0.2,0.1,0.3,0.3,0.4,0.6c0.1,0.2,0.1,0.5,0.1,0.9c0,0.5,0,1,0,1.4s0,0.9,0,1.3c0,0.1,0,0.3,0.1,0.3c0,0.1,0.1,0.2,0.2,0.2    s0.1,0.1,0.3,0.1s0.2,0,0.4,0v0.2L438.7,359.7L438.7,359.7z M436.7,356.8c-0.3,0.1-0.6,0.2-0.8,0.3s-0.5,0.2-0.7,0.3    c-0.2,0.1-0.3,0.3-0.4,0.4s-0.2,0.4-0.2,0.6c0,0.3,0.1,0.5,0.2,0.7c0.2,0.1,0.4,0.2,0.6,0.2c0.3,0,0.5-0.1,0.7-0.2    s0.4-0.3,0.5-0.5L436.7,356.8z"></path>
	</g>
	<g class="st1">
		<path d="M441.7,359.8H439v-0.4c0.1,0,0.2,0,0.3,0c0.1,0,0.2,0,0.2,0c0.1,0,0.2-0.1,0.2-0.2c0.1-0.1,0.1-0.2,0.1-0.3v-6.3    c0-0.1,0-0.3-0.1-0.4s-0.1-0.2-0.2-0.3c-0.1,0-0.2-0.1-0.4-0.1c-0.2,0-0.3-0.1-0.4-0.1v-0.3l2.1-0.1l0.1,0.1v7.5    c0,0.1,0,0.2,0.1,0.3c0,0.1,0.1,0.1,0.2,0.2c0.1,0,0.2,0.1,0.2,0.1c0.1,0,0.2,0,0.3,0L441.7,359.8L441.7,359.8z"></path>
	</g>
	<g class="st1">
		<path d="M452.3,357.5l-0.1,2.3h-6.5v-0.4c0.1,0,0.3,0,0.4,0c0.2,0,0.3,0,0.4-0.1s0.2-0.1,0.2-0.2s0.1-0.2,0.1-0.3v-5.6    c0-0.1,0-0.2-0.1-0.3s-0.1-0.2-0.3-0.2c-0.1,0-0.2-0.1-0.4-0.1c-0.2,0-0.3-0.1-0.4-0.1v-0.4h6.1v1.9h-0.4    c-0.1-0.3-0.2-0.6-0.5-0.9c-0.2-0.3-0.5-0.5-0.7-0.5c-0.1,0-0.3,0-0.4,0c-0.2,0-0.3,0-0.5,0H448v3.1h0.9c0.3,0,0.5,0,0.6-0.1    s0.2-0.1,0.3-0.3c0.1-0.1,0.2-0.2,0.2-0.4s0.1-0.3,0.1-0.5h0.4v3.1h-0.4c0-0.2-0.1-0.4-0.1-0.6c-0.1-0.2-0.1-0.3-0.2-0.4    s-0.2-0.2-0.4-0.3c-0.1,0-0.3-0.1-0.6-0.1h-0.9v2.3c0,0.2,0,0.4,0,0.6s0.1,0.2,0.2,0.3c0.1,0.1,0.2,0.1,0.4,0.1c0.2,0,0.4,0,0.7,0    c0.1,0,0.3,0,0.5,0s0.4,0,0.5,0s0.3,0,0.4-0.1c0.1,0,0.3-0.1,0.3-0.2c0.2-0.2,0.3-0.4,0.5-0.8s0.3-0.6,0.4-0.8H452.3z"></path>
	</g>
	<g class="st1">
		<path d="M456.1,357.2c0.2,0.1,0.3,0.3,0.3,0.5s0.1,0.4,0.1,0.6c0,0.5-0.2,0.9-0.6,1.2c-0.4,0.3-0.9,0.5-1.5,0.5    c-0.3,0-0.6-0.1-0.9-0.2s-0.5-0.2-0.6-0.3l-0.1,0.4h-0.4l-0.1-1.9h0.4c0,0.1,0.1,0.3,0.2,0.5s0.2,0.4,0.3,0.5    c0.1,0.2,0.3,0.3,0.5,0.4s0.4,0.2,0.7,0.2c0.4,0,0.6-0.1,0.8-0.2s0.3-0.4,0.3-0.7c0-0.2,0-0.3-0.1-0.4s-0.2-0.2-0.3-0.3    c-0.1-0.1-0.3-0.2-0.4-0.2c-0.2-0.1-0.4-0.1-0.6-0.2s-0.4-0.1-0.6-0.2s-0.4-0.2-0.5-0.3c-0.2-0.1-0.3-0.3-0.4-0.5    s-0.2-0.4-0.2-0.7c0-0.4,0.2-0.8,0.5-1.1c0.3-0.3,0.8-0.5,1.3-0.5c0.2,0,0.4,0,0.7,0.1c0.2,0.1,0.4,0.1,0.5,0.2l0.1-0.3h0.4    l0.1,1.8h-0.4c-0.1-0.4-0.2-0.7-0.5-1c-0.3-0.2-0.6-0.4-0.9-0.4s-0.5,0.1-0.7,0.2c-0.2,0.2-0.3,0.3-0.3,0.5s0,0.3,0.1,0.4    s0.1,0.2,0.3,0.3c0.1,0.1,0.3,0.1,0.4,0.2c0.2,0.1,0.4,0.1,0.6,0.2s0.5,0.2,0.7,0.3C455.8,356.9,456,357,456.1,357.2z"></path>
	</g>
	<g class="st1">
		<path d="M460.9,359.6c-0.2,0.1-0.5,0.2-0.7,0.3s-0.5,0.1-0.8,0.1c-0.5,0-0.8-0.1-1-0.3c-0.2-0.2-0.3-0.6-0.3-1V355h-1v-0.6h1v-1.7    h1v1.7h1.6v0.5h-1.5v3c0,0.2,0,0.4,0,0.6s0.1,0.3,0.1,0.4c0.1,0.1,0.1,0.2,0.3,0.2c0.1,0.1,0.3,0.1,0.5,0.1c0.1,0,0.2,0,0.4,0    c0.2,0,0.3,0,0.4-0.1V359.6L460.9,359.6z"></path>
	</g>
	<g class="st1">
		<path d="M466.9,359.7c-0.2,0.1-0.3,0.1-0.5,0.2c-0.1,0-0.3,0.1-0.4,0.1c-0.3,0-0.5-0.1-0.7-0.2s-0.3-0.3-0.3-0.6l0,0    c-0.2,0.3-0.5,0.5-0.8,0.6s-0.6,0.2-1,0.2s-0.7-0.1-1-0.4s-0.4-0.6-0.4-1c0-0.2,0-0.4,0.1-0.6s0.1-0.3,0.3-0.4    c0.1-0.1,0.2-0.2,0.4-0.3c0.2-0.1,0.3-0.2,0.4-0.2c0.2-0.1,0.5-0.2,1-0.3c0.5-0.2,0.8-0.3,1-0.4v-0.5c0,0,0-0.1,0-0.3    c0-0.1-0.1-0.3-0.1-0.4c-0.1-0.1-0.2-0.3-0.3-0.4c-0.1-0.1-0.3-0.2-0.6-0.2c-0.2,0-0.3,0-0.5,0.1s-0.2,0.1-0.3,0.2    c0,0.1,0,0.2,0.1,0.3c0,0.1,0.1,0.3,0.1,0.4s-0.1,0.2-0.2,0.4c-0.1,0.1-0.3,0.2-0.5,0.2s-0.3-0.1-0.4-0.2s-0.1-0.3-0.1-0.4    c0-0.2,0.1-0.3,0.2-0.5s0.3-0.3,0.5-0.4s0.4-0.2,0.6-0.3c0.2-0.1,0.5-0.1,0.7-0.1c0.3,0,0.6,0,0.8,0.1c0.2,0,0.4,0.1,0.6,0.3    c0.2,0.1,0.3,0.3,0.4,0.6c0.1,0.2,0.1,0.5,0.1,0.9c0,0.5,0,1,0,1.4s0,0.9,0,1.3c0,0.1,0,0.3,0.1,0.3c0,0.1,0.1,0.2,0.2,0.2    s0.1,0.1,0.3,0.1s0.2,0,0.4,0v0.2L466.9,359.7L466.9,359.7z M465,356.8c-0.3,0.1-0.6,0.2-0.8,0.3s-0.5,0.2-0.7,0.3    c-0.2,0.1-0.3,0.3-0.4,0.4s-0.2,0.4-0.2,0.6c0,0.3,0.1,0.5,0.2,0.7c0.2,0.1,0.4,0.2,0.6,0.2c0.3,0,0.5-0.1,0.7-0.2    s0.4-0.3,0.5-0.5L465,356.8z"></path>
	</g>
	<g class="st1">
		<path d="M470.8,359.6c-0.2,0.1-0.5,0.2-0.7,0.3c-0.2,0.1-0.5,0.1-0.8,0.1c-0.5,0-0.8-0.1-1-0.3c-0.2-0.2-0.3-0.6-0.3-1V355h-1    v-0.6h1v-1.7h1v1.7h1.6v0.5h-1.4v3c0,0.2,0,0.4,0,0.6s0.1,0.3,0.1,0.4c0.1,0.1,0.1,0.2,0.3,0.2c0.1,0.1,0.3,0.1,0.5,0.1    c0.1,0,0.2,0,0.4,0c0.2,0,0.3,0,0.4-0.1L470.8,359.6L470.8,359.6z"></path>
	</g>
	<g class="st1">
		<path d="M475.8,358.6c-0.2,0.4-0.5,0.8-0.9,1c-0.4,0.3-0.8,0.4-1.3,0.4c-0.4,0-0.8-0.1-1.2-0.2c-0.3-0.2-0.6-0.4-0.8-0.6    c-0.2-0.3-0.4-0.6-0.5-0.9c-0.1-0.4-0.2-0.7-0.2-1.1s0.1-0.7,0.2-1s0.3-0.6,0.5-0.9s0.5-0.5,0.8-0.6s0.7-0.2,1-0.2    c0.4,0,0.7,0.1,1,0.2s0.5,0.3,0.7,0.5s0.3,0.4,0.4,0.7s0.1,0.6,0.1,0.9v0.4H472c0,0.4,0,0.7,0.1,1s0.2,0.5,0.3,0.8    c0.1,0.2,0.3,0.4,0.6,0.5s0.5,0.2,0.8,0.2s0.6-0.1,0.8-0.2s0.5-0.4,0.7-0.8L475.8,358.6z M474.6,356.5c0-0.2,0-0.4-0.1-0.7    c0-0.2-0.1-0.4-0.2-0.6s-0.2-0.3-0.3-0.4s-0.3-0.2-0.6-0.2c-0.4,0-0.7,0.2-1,0.5s-0.4,0.8-0.4,1.3h2.6V356.5z"></path>
	</g>
</g>
<g>
	<g>
		<g>
			<g>
				<polygon class="st3" points="61.8,227.6 124.7,227.6 124.7,332.9 61.8,332.9     "></polygon>
			</g>
		</g>
	</g>
</g>
<g>
	<g>
		<g>
			<g>
				<g>
					<polygon class="st3" points="72.9,353.1 79.3,353.1 79.3,358.8 72.9,358.8      "></polygon>
				</g>
			</g>
		</g>
	</g>
	<g class="st1">
		<path d="M87,356.3c0.2,0.2,0.3,0.4,0.4,0.6s0.1,0.5,0.1,0.8c0,0.7-0.3,1.3-0.8,1.7c-0.5,0.4-1.1,0.7-1.9,0.7    c-0.4,0-0.7-0.1-1.1-0.2s-0.7-0.2-0.9-0.4l-0.2,0.4h-0.4l-0.1-2.7h0.5c0.1,0.3,0.2,0.6,0.3,0.9s0.3,0.5,0.5,0.7s0.4,0.4,0.7,0.5    c0.3,0.1,0.6,0.2,0.9,0.2s0.5,0,0.7-0.1s0.3-0.2,0.5-0.3c0.1-0.1,0.2-0.3,0.3-0.4s0.1-0.4,0.1-0.6c0-0.3-0.1-0.6-0.3-0.9    c-0.2-0.3-0.4-0.5-0.8-0.6c-0.2-0.1-0.5-0.2-0.8-0.3c-0.3-0.1-0.6-0.2-0.8-0.3c-0.4-0.2-0.8-0.5-1-0.8s-0.4-0.7-0.4-1.3    c0-0.3,0.1-0.6,0.2-0.8s0.3-0.5,0.5-0.7s0.5-0.3,0.8-0.5c0.3-0.1,0.6-0.2,0.9-0.2c0.4,0,0.7,0.1,1,0.2s0.5,0.2,0.8,0.4l0.2-0.4    h0.4v2.6h-0.4c-0.1-0.3-0.2-0.6-0.3-0.9c-0.1-0.3-0.2-0.5-0.4-0.7c-0.2-0.2-0.4-0.4-0.6-0.5s-0.5-0.2-0.8-0.2    c-0.4,0-0.6,0.1-0.9,0.3c-0.2,0.2-0.4,0.5-0.4,0.8s0.1,0.6,0.2,0.8c0.2,0.2,0.4,0.4,0.7,0.5c0.3,0.1,0.5,0.2,0.8,0.3    s0.5,0.2,0.8,0.3c0.2,0.1,0.4,0.2,0.6,0.3C86.7,356,86.9,356.2,87,356.3z"></path>
	</g>
	<g class="st1">
		<path d="M91.8,359.7c-0.2,0.1-0.5,0.2-0.7,0.3s-0.5,0.1-0.8,0.1c-0.5,0-0.8-0.1-1-0.3c-0.2-0.2-0.3-0.6-0.3-1v-3.7h-1v-0.6h1v-1.7    h1v1.7h1.6v0.5H90v3c0,0.2,0,0.4,0,0.6s0.1,0.3,0.1,0.4c0.1,0.1,0.1,0.2,0.3,0.2c0.1,0.1,0.3,0.1,0.5,0.1c0.1,0,0.2,0,0.4,0    c0.2,0,0.3,0,0.4-0.1L91.8,359.7L91.8,359.7z"></path>
	</g>
	<g class="st1">
		<path d="M97.9,357.2c0,0.4-0.1,0.8-0.2,1.1c-0.1,0.4-0.3,0.7-0.5,0.9c-0.3,0.3-0.5,0.5-0.9,0.7s-0.7,0.2-1.1,0.2    c-0.3,0-0.7-0.1-1-0.2s-0.6-0.3-0.8-0.6c-0.2-0.2-0.4-0.5-0.6-0.9c-0.1-0.4-0.2-0.8-0.2-1.2c0-0.9,0.2-1.5,0.7-2.1s1.1-0.8,2-0.8    c0.8,0,1.4,0.3,1.9,0.8S97.9,356.3,97.9,357.2z M96.8,357.2c0-0.3,0-0.6-0.1-0.9s-0.1-0.6-0.2-0.8c-0.1-0.2-0.3-0.4-0.5-0.5    s-0.4-0.2-0.7-0.2c-0.3,0-0.5,0.1-0.7,0.2s-0.4,0.3-0.5,0.6c-0.1,0.2-0.2,0.5-0.2,0.8s-0.1,0.6-0.1,0.8c0,0.4,0,0.7,0.1,1    s0.1,0.6,0.3,0.8c0.1,0.2,0.3,0.4,0.5,0.6c0.2,0.1,0.4,0.2,0.7,0.2c0.5,0,0.8-0.2,1.1-0.7S96.8,358,96.8,357.2z"></path>
	</g>
	<g class="st1">
		<path d="M100.7,360.1c-0.8,0-1.4-0.3-1.9-0.8c-0.4-0.5-0.7-1.2-0.7-2.1c0-0.4,0.1-0.7,0.2-1.1s0.3-0.6,0.5-0.9s0.5-0.5,0.8-0.6    s0.7-0.2,1.1-0.2c0.5,0,1,0.1,1.3,0.4s0.5,0.6,0.5,1c0,0.2,0,0.3-0.1,0.5s-0.2,0.2-0.4,0.2c-0.2,0-0.4-0.1-0.5-0.2    s-0.2-0.2-0.2-0.4c0-0.2,0-0.3,0.1-0.5c0-0.2,0.1-0.3,0.1-0.4c-0.1-0.1-0.2-0.2-0.3-0.2c-0.1,0-0.3-0.1-0.4-0.1    c-0.2,0-0.3,0-0.5,0.1s-0.3,0.2-0.5,0.4c-0.1,0.2-0.2,0.4-0.3,0.7c-0.1,0.3-0.1,0.7-0.1,1.1c0,0.7,0.2,1.2,0.5,1.7    c0.3,0.4,0.7,0.6,1.2,0.6c0.4,0,0.7-0.1,0.9-0.3c0.2-0.2,0.5-0.4,0.7-0.8l0.4,0.2c-0.2,0.4-0.6,0.8-1,1    C101.6,360,101.2,360.1,100.7,360.1z"></path>
	</g>
	<g class="st1">
		<path d="M109,359.9h-1.6c-0.3-0.4-0.6-0.9-0.9-1.3c-0.3-0.5-0.7-0.9-1-1.4l-0.5,0.4v1.3c0,0.1,0,0.2,0.1,0.3    c0,0.1,0.1,0.2,0.2,0.2s0.2,0.1,0.3,0.1c0.1,0,0.2,0,0.3,0v0.4h-2.7v-0.4c0.1,0,0.2,0,0.3,0c0.1,0,0.2,0,0.2,0    c0.1,0,0.2-0.1,0.2-0.2s0.1-0.2,0.1-0.3v-6.3c0-0.1,0-0.3-0.1-0.4s-0.1-0.2-0.2-0.3c-0.1-0.1-0.2-0.1-0.4-0.1c-0.2,0-0.3,0-0.4,0    v-0.4l2-0.1l0.1,0.1v5.8c0.3-0.3,0.6-0.6,0.9-0.9s0.6-0.6,0.8-0.9l0.1-0.1l0.1-0.1c0-0.1-0.1-0.2-0.2-0.2c-0.2,0-0.3-0.1-0.5-0.1    v-0.5h2.4v0.3c-0.3,0.1-0.6,0.2-0.8,0.3c-0.2,0.1-0.4,0.3-0.5,0.4s-0.2,0.2-0.4,0.4c-0.2,0.2-0.4,0.4-0.7,0.7    c0.3,0.4,0.6,0.8,1,1.3s0.7,0.9,0.8,1.1c0.2,0.2,0.3,0.4,0.4,0.4c0.1,0.1,0.3,0.1,0.6,0.1C109,359.5,109,359.9,109,359.9z"></path>
	</g>
	<g class="st1">
		<path d="M113.1,357.3c0.2,0.1,0.3,0.3,0.3,0.5s0.1,0.4,0.1,0.6c0,0.5-0.2,0.9-0.6,1.2c-0.4,0.3-0.9,0.5-1.5,0.5    c-0.3,0-0.6-0.1-0.9-0.2s-0.5-0.2-0.6-0.3l-0.1,0.4h-0.2l-0.1-1.9h0.4c0,0.1,0.1,0.3,0.2,0.5s0.2,0.4,0.3,0.5    c0.1,0.2,0.3,0.3,0.5,0.4s0.4,0.2,0.7,0.2c0.4,0,0.6-0.1,0.8-0.2c0.2-0.2,0.3-0.4,0.3-0.7c0-0.2,0-0.3-0.1-0.4s-0.2-0.2-0.3-0.3    c-0.1-0.1-0.3-0.2-0.4-0.2c-0.2-0.1-0.4-0.1-0.6-0.2s-0.4-0.1-0.6-0.2s-0.4-0.2-0.5-0.3c-0.2-0.1-0.3-0.3-0.4-0.5    s-0.2-0.4-0.2-0.7c0-0.4,0.2-0.8,0.5-1.1c0.3-0.3,0.8-0.5,1.3-0.5c0.2,0,0.4,0,0.7,0.1c0.2,0.1,0.4,0.1,0.5,0.2l0.1-0.3h0.4    l0.1,1.8h-0.4c-0.1-0.4-0.2-0.7-0.5-1c-0.3-0.2-0.6-0.4-0.9-0.4s-0.5,0.1-0.7,0.2c-0.2,0.2-0.3,0.3-0.3,0.5s0,0.3,0.1,0.4    s0.1,0.2,0.3,0.3c0.1,0.1,0.2,0.1,0.4,0.2c0.2,0.1,0.4,0.1,0.6,0.2s0.5,0.2,0.7,0.3C112.8,357,113,357.1,113.1,357.3z"></path>
	</g>
</g>
<g>
	<g>
		<g>
			<polygon class="st4" points="167.1,140.7 229.5,140.7 229.5,332.9 167.1,332.9    "></polygon>
		</g>
	</g>
</g>
<g>
	<g>
		<g>
			<g>
				<polygon class="st4" points="134.2,353 139.9,353 139.9,358.7 134.2,358.7     "></polygon>
			</g>
		</g>
	</g>
	<path d="M146.6,360c-0.5,0-0.9-0.1-1.3-0.3c-0.4-0.2-0.8-0.4-1.1-0.8c-0.3-0.3-0.6-0.8-0.8-1.3s-0.3-1.1-0.3-1.7s0.1-1.2,0.3-1.7   s0.5-0.9,0.8-1.3s0.7-0.6,1.2-0.8c0.5-0.2,0.9-0.3,1.5-0.3c0.4,0,0.7,0,1,0.1s0.6,0.2,0.9,0.4l0.2-0.4h0.4v2.8h-0.5   c-0.1-0.3-0.1-0.6-0.3-0.9c-0.1-0.3-0.3-0.6-0.4-0.8c-0.2-0.3-0.4-0.4-0.6-0.6c-0.2-0.1-0.5-0.2-0.8-0.2c-0.4,0-0.7,0.1-1,0.2   s-0.6,0.4-0.8,0.7c-0.2,0.3-0.4,0.7-0.5,1.1c-0.1,0.5-0.2,1-0.2,1.5s0.1,1,0.2,1.4s0.3,0.8,0.5,1.1c0.2,0.3,0.5,0.6,0.8,0.7   s0.7,0.3,1.1,0.3c0.3,0,0.6,0,0.8-0.1s0.5-0.2,0.7-0.4c0.2-0.2,0.3-0.3,0.5-0.6s0.3-0.4,0.3-0.7l0.4,0.2c-0.3,0.8-0.7,1.3-1.3,1.7   C147.9,359.9,147.3,360,146.6,360z"></path>
	<path d="M155.4,357.1c0,0.4-0.1,0.8-0.2,1.1c-0.1,0.4-0.3,0.7-0.5,0.9c-0.3,0.3-0.5,0.5-0.9,0.7s-0.7,0.2-1.1,0.2   c-0.3,0-0.7-0.1-1-0.2s-0.6-0.3-0.8-0.6c-0.2-0.2-0.4-0.5-0.6-0.9c-0.1-0.4-0.2-0.8-0.2-1.2c0-0.9,0.2-1.5,0.7-2.1s1.1-0.8,2-0.8   c0.8,0,1.4,0.3,1.9,0.8S155.4,356.2,155.4,357.1z M154.3,357.1c0-0.3,0-0.6-0.1-0.9s-0.1-0.6-0.2-0.8c-0.1-0.2-0.3-0.4-0.5-0.5   s-0.4-0.2-0.7-0.2s-0.5,0.1-0.7,0.2s-0.4,0.3-0.5,0.6c-0.1,0.2-0.2,0.5-0.2,0.8s-0.1,0.6-0.1,0.8c0,0.4,0,0.7,0.1,1   s0.1,0.6,0.3,0.8c0.1,0.2,0.3,0.4,0.5,0.6c0.2,0.1,0.4,0.2,0.7,0.2c0.5,0,0.8-0.2,1.1-0.7S154.3,357.9,154.3,357.1z"></path>
	<path d="M160.6,355.1c0,0.2,0,0.4-0.1,0.5s-0.2,0.2-0.4,0.2s-0.4-0.1-0.5-0.2s-0.2-0.2-0.2-0.4c0-0.1,0-0.2,0-0.2   c0-0.1,0-0.1,0-0.2c-0.2,0-0.4,0.1-0.6,0.2s-0.4,0.3-0.6,0.6v3.2c0,0.1,0,0.2,0.1,0.3s0.1,0.1,0.2,0.2c0.1,0,0.2,0.1,0.4,0.1   c0.1,0,0.3,0,0.4,0v0.4h-2.9v-0.4c0.1,0,0.2,0,0.3,0s0.2,0,0.2,0c0.1,0,0.2-0.1,0.2-0.2s0.1-0.2,0.1-0.3v-3.4c0-0.1,0-0.2-0.1-0.3   c-0.1-0.1-0.1-0.2-0.2-0.3c-0.1,0-0.2-0.1-0.2-0.1s-0.2,0-0.3,0v-0.4l1.8-0.1l0.1,0.1v0.8l0,0c0.2-0.3,0.5-0.5,0.8-0.7   s0.5-0.2,0.8-0.2s0.4,0.1,0.6,0.2C160.4,354.6,160.6,354.8,160.6,355.1z"></path>
	<path d="M165.4,358.6c-0.2,0.4-0.5,0.8-0.9,1c-0.4,0.3-0.8,0.4-1.3,0.4c-0.4,0-0.8-0.1-1.2-0.2c-0.3-0.2-0.6-0.4-0.8-0.6   c-0.2-0.3-0.4-0.6-0.5-0.9c-0.1-0.4-0.2-0.7-0.2-1.1s0.1-0.7,0.2-1s0.3-0.6,0.5-0.9s0.5-0.5,0.8-0.6s0.7-0.2,1-0.2   c0.4,0,0.7,0.1,1,0.2s0.5,0.3,0.7,0.5s0.3,0.4,0.4,0.7s0.1,0.6,0.1,0.9v0.4h-3.6c0,0.4,0,0.7,0.1,1s0.2,0.5,0.3,0.8   c0.1,0.2,0.3,0.4,0.6,0.5s0.5,0.2,0.8,0.2s0.6-0.1,0.8-0.2s0.5-0.4,0.7-0.8L165.4,358.6z M164.3,356.5c0-0.2,0-0.4-0.1-0.7   c0-0.2-0.1-0.4-0.2-0.6s-0.2-0.3-0.3-0.4s-0.3-0.2-0.6-0.2c-0.4,0-0.7,0.2-1,0.5s-0.4,0.8-0.4,1.3h2.6V356.5z"></path>
	<path d="M175.3,353.9c0,0.4-0.1,0.8-0.2,1.1c-0.2,0.3-0.4,0.6-0.7,0.8c-0.3,0.2-0.6,0.4-0.9,0.5s-0.7,0.1-1.1,0.1h-0.9v2.4   c0,0.1,0,0.2,0.1,0.3s0.1,0.2,0.3,0.2c0.1,0,0.2,0,0.4,0.1s0.3,0,0.5,0v0.4h-3.4v-0.4c0.1,0,0.2,0,0.4,0s0.3,0,0.4-0.1   c0.1,0,0.2-0.1,0.2-0.2c0.1-0.1,0.1-0.2,0.1-0.4V353c0-0.1,0-0.2-0.1-0.3c0-0.1-0.1-0.2-0.3-0.2c-0.1,0-0.3-0.1-0.4-0.1   s-0.3,0-0.4,0V352h3.6c0.7,0,1.3,0.2,1.8,0.5C174.9,352.9,175.3,353.3,175.3,353.9z M173.6,355.3c0.1-0.2,0.2-0.4,0.3-0.5   c0-0.2,0.1-0.4,0.1-0.5c0-0.2,0-0.4-0.1-0.6s-0.1-0.4-0.3-0.6c-0.1-0.2-0.3-0.3-0.5-0.4s-0.5-0.1-0.8-0.1h-0.8v3.5h0.6   c0.4,0,0.7-0.1,1-0.2C173.3,355.6,173.4,355.5,173.6,355.3z"></path>
	<path d="M180.4,355.1c0,0.2,0,0.4-0.1,0.5s-0.2,0.2-0.4,0.2s-0.4-0.1-0.5-0.2s-0.2-0.2-0.2-0.4c0-0.1,0-0.2,0-0.2   c0-0.1,0-0.1,0-0.2c-0.2,0-0.4,0.1-0.6,0.2s-0.4,0.3-0.6,0.6v3.2c0,0.1,0,0.2,0.1,0.3s0.1,0.1,0.2,0.2c0.1,0,0.2,0.1,0.4,0.1   c0.1,0,0.3,0,0.4,0v0.4h-2.9v-0.4c0.1,0,0.2,0,0.3,0s0.2,0,0.2,0c0.1,0,0.2-0.1,0.2-0.2s0.1-0.2,0.1-0.3v-3.4c0-0.1,0-0.2-0.1-0.3   c-0.1-0.1-0.1-0.2-0.2-0.3c-0.1,0-0.2-0.1-0.2-0.1s-0.2,0-0.3,0v-0.4l1.8-0.1l0.1,0.1v0.8l0,0c0.2-0.3,0.5-0.5,0.8-0.7   s0.5-0.2,0.8-0.2s0.4,0.1,0.6,0.2C180.3,354.6,180.4,354.8,180.4,355.1z"></path>
	<path d="M183.1,359.8h-2.6v-0.4c0.1,0,0.2,0,0.3,0s0.2,0,0.2,0c0.1,0,0.2-0.1,0.2-0.2c0.1-0.1,0.1-0.2,0.1-0.3v-3.4   c0-0.1,0-0.2-0.1-0.3s-0.1-0.2-0.2-0.2s-0.2-0.1-0.3-0.1s-0.3-0.1-0.4-0.1v-0.4l1.9-0.1l0.1,0.1v4.4c0,0.1,0,0.2,0.1,0.3   c0,0.1,0.1,0.1,0.2,0.2c0.1,0,0.2,0.1,0.2,0.1c0.1,0,0.2,0,0.3,0V359.8L183.1,359.8z M182.4,352.2c0,0.2-0.1,0.4-0.2,0.5   c-0.1,0.2-0.3,0.2-0.5,0.2s-0.4-0.1-0.5-0.2s-0.2-0.3-0.2-0.5s0.1-0.4,0.2-0.5c0.1-0.2,0.3-0.2,0.5-0.2s0.4,0.1,0.5,0.2   S182.4,352,182.4,352.2z"></path>
	<path d="M189.4,354.7c-0.2,0-0.3,0.1-0.5,0.2c-0.1,0.1-0.3,0.2-0.4,0.5c-0.2,0.5-0.4,1-0.7,1.5c-0.2,0.5-0.5,1.1-0.7,1.7   c-0.1,0.2-0.2,0.4-0.2,0.6c-0.1,0.2-0.2,0.5-0.2,0.7h-0.4c-0.3-0.9-0.7-1.7-1-2.4c-0.3-0.7-0.6-1.4-0.9-2.2   c-0.1-0.2-0.2-0.3-0.4-0.4s-0.3-0.2-0.5-0.2v-0.3h2.5v0.4c-0.1,0-0.2,0-0.4,0.1c-0.2,0-0.2,0.1-0.2,0.2c0,0,0,0,0,0.1   c0,0,0,0.1,0.1,0.2c0.2,0.4,0.4,0.9,0.6,1.6c0.3,0.7,0.5,1.2,0.7,1.6c0.1-0.3,0.3-0.7,0.5-1.2s0.4-1,0.6-1.6c0-0.1,0.1-0.2,0.1-0.3   c0-0.1,0-0.2,0-0.3c0-0.1,0-0.1-0.1-0.2s-0.1-0.1-0.2-0.1s-0.2-0.1-0.2-0.1c-0.1,0-0.1,0-0.2,0v-0.4h2.1L189.4,354.7L189.4,354.7z"></path>
	<path d="M194.8,359.7c-0.2,0.1-0.3,0.1-0.5,0.2c-0.1,0-0.3,0.1-0.4,0.1c-0.3,0-0.5-0.1-0.7-0.2s-0.3-0.3-0.3-0.6l0,0   c-0.2,0.3-0.5,0.5-0.8,0.6s-0.6,0.2-1,0.2s-0.7-0.1-1-0.4s-0.4-0.6-0.4-1c0-0.2,0-0.4,0.1-0.6s0.1-0.3,0.3-0.4   c0.1-0.1,0.2-0.2,0.4-0.3c0.2-0.1,0.3-0.2,0.4-0.2c0.2-0.1,0.5-0.2,1-0.3c0.5-0.2,0.8-0.3,1-0.4v-0.5c0,0,0-0.1,0-0.3   c0-0.1-0.1-0.3-0.1-0.4c-0.1-0.1-0.2-0.3-0.3-0.4s-0.3-0.2-0.6-0.2c-0.2,0-0.3,0-0.5,0.1s-0.2,0.1-0.3,0.2c0,0.1,0,0.2,0.1,0.3   s0.1,0.3,0.1,0.4s-0.1,0.2-0.2,0.4s-0.3,0.2-0.5,0.2s-0.3-0.1-0.4-0.2s-0.1-0.3-0.1-0.4c0-0.2,0.1-0.3,0.2-0.5s0.3-0.3,0.5-0.4   s0.4-0.2,0.6-0.3c0.2-0.1,0.5-0.1,0.7-0.1c0.3,0,0.6,0,0.8,0.1c0.2,0,0.4,0.1,0.6,0.3c0.2,0.1,0.3,0.3,0.4,0.6   c0.1,0.2,0.1,0.5,0.1,0.9c0,0.5,0,1,0,1.4s0,0.9,0,1.3c0,0.1,0,0.3,0.1,0.3s0.1,0.2,0.2,0.2s0.1,0.1,0.3,0.1s0.2,0,0.4,0v0.2   L194.8,359.7L194.8,359.7z M192.9,356.8c-0.3,0.1-0.6,0.2-0.8,0.3c-0.2,0.1-0.5,0.2-0.7,0.3c-0.2,0.1-0.3,0.3-0.4,0.4   c-0.1,0.2-0.2,0.4-0.2,0.6c0,0.3,0.1,0.5,0.2,0.7c0.2,0.1,0.4,0.2,0.6,0.2c0.3,0,0.5-0.1,0.7-0.2s0.4-0.3,0.5-0.5L192.9,356.8z"></path>
	<path d="M198.7,359.6c-0.2,0.1-0.5,0.2-0.7,0.3s-0.5,0.1-0.8,0.1c-0.5,0-0.8-0.1-1-0.3c-0.2-0.2-0.3-0.6-0.3-1V355h-1v-0.6h1v-1.7   h1v1.7h1.6v0.5h-1.6v3c0,0.2,0,0.4,0,0.6s0.1,0.3,0.1,0.4c0.1,0.1,0.1,0.2,0.3,0.2c0.1,0.1,0.3,0.1,0.5,0.1c0.1,0,0.2,0,0.4,0   s0.3,0,0.4-0.1v0.5H198.7z"></path>
	<path d="M204.4,358.6c-0.2,0.4-0.5,0.8-0.9,1c-0.4,0.3-0.8,0.4-1.3,0.4c-0.4,0-0.8-0.1-1.2-0.2c-0.3-0.2-0.6-0.4-0.8-0.6   s-0.4-0.6-0.5-0.9c-0.1-0.4-0.2-0.7-0.2-1.1s0.1-0.7,0.2-1s0.3-0.6,0.5-0.9s0.5-0.5,0.8-0.6s0.7-0.2,1-0.2c0.4,0,0.7,0.1,1,0.2   s0.5,0.3,0.7,0.5s0.3,0.4,0.4,0.7s0.1,0.6,0.1,0.9v0.4h-3.6c0,0.4,0,0.7,0.1,1s0.2,0.5,0.3,0.8c0.1,0.2,0.3,0.4,0.6,0.5   s0.5,0.2,0.8,0.2s0.6-0.1,0.8-0.2s0.5-0.4,0.7-0.8L204.4,358.6z M203.2,356.5c0-0.2,0-0.4-0.1-0.7c0-0.2-0.1-0.4-0.2-0.6   s-0.2-0.3-0.3-0.4s-0.3-0.2-0.6-0.2c-0.4,0-0.7,0.2-1,0.5s-0.4,0.8-0.4,1.3h2.6V356.5z"></path>
	<path d="M215.2,359.8h-2.1c-0.5-0.7-0.9-1.4-1.3-1.9s-0.8-1.1-1.2-1.7h-0.8v2.5c0,0.1,0,0.2,0.1,0.3c0,0.1,0.1,0.2,0.3,0.2   c0.1,0,0.2,0,0.3,0.1c0.2,0,0.3,0,0.4,0v0.4h-3.3v-0.3c0.1,0,0.2,0,0.4,0s0.3,0,0.4-0.1c0.1,0,0.2-0.1,0.2-0.2s0.1-0.2,0.1-0.4V353   c0-0.1,0-0.2-0.1-0.3c0-0.1-0.1-0.2-0.3-0.2c-0.1,0-0.2-0.1-0.4-0.1c-0.1,0-0.3,0-0.4-0.1v-0.4h3.6c0.3,0,0.6,0,0.9,0.1   s0.6,0.2,0.8,0.3c0.2,0.1,0.4,0.3,0.5,0.6s0.2,0.5,0.2,0.9c0,0.3,0,0.6-0.1,0.8c-0.1,0.2-0.2,0.4-0.4,0.6s-0.4,0.3-0.6,0.4   s-0.5,0.2-0.8,0.3c0.4,0.5,0.7,0.9,1,1.3c0.3,0.3,0.6,0.8,0.9,1.3c0.2,0.2,0.3,0.4,0.4,0.5s0.3,0.2,0.4,0.3c0.1,0,0.2,0.1,0.4,0.1   c0.1,0,0.3,0,0.4,0v0.4L215.2,359.8L215.2,359.8z M212.3,354c0-0.5-0.1-0.8-0.4-1.1c-0.3-0.3-0.7-0.4-1.2-0.4h-0.9v3.4h0.7   c0.5,0,0.9-0.2,1.3-0.5C212.1,355,212.3,354.6,212.3,354z"></path>
	<path d="M219.9,358.6c-0.2,0.4-0.5,0.8-0.9,1c-0.4,0.3-0.8,0.4-1.3,0.4c-0.4,0-0.8-0.1-1.2-0.2c-0.3-0.2-0.6-0.4-0.8-0.6   s-0.4-0.6-0.5-0.9c-0.1-0.4-0.2-0.7-0.2-1.1s0.1-0.7,0.2-1s0.3-0.6,0.5-0.9s0.5-0.5,0.8-0.6s0.7-0.2,1-0.2c0.4,0,0.7,0.1,1,0.2   s0.5,0.3,0.7,0.5s0.3,0.4,0.4,0.7s0.1,0.6,0.1,0.9v0.4h-3.6c0,0.4,0,0.7,0.1,1s0.2,0.5,0.3,0.8c0.1,0.2,0.3,0.4,0.6,0.5   s0.5,0.2,0.8,0.2s0.6-0.1,0.8-0.2s0.5-0.4,0.7-0.8L219.9,358.6z M218.8,356.5c0-0.2,0-0.4-0.1-0.7c0-0.2-0.1-0.4-0.2-0.6   s-0.2-0.3-0.3-0.4s-0.3-0.2-0.6-0.2c-0.4,0-0.7,0.2-1,0.5s-0.4,0.8-0.4,1.3h2.6V356.5z"></path>
	<path d="M225.9,359.7c-0.2,0.1-0.3,0.1-0.5,0.2c-0.1,0-0.3,0.1-0.4,0.1c-0.3,0-0.5-0.1-0.7-0.2s-0.3-0.3-0.3-0.6l0,0   c-0.2,0.3-0.5,0.5-0.8,0.6s-0.6,0.2-1,0.2s-0.7-0.1-1-0.4s-0.4-0.6-0.4-1c0-0.2,0-0.4,0.1-0.6s0.1-0.3,0.3-0.4   c0.1-0.1,0.2-0.2,0.4-0.3c0.2-0.1,0.3-0.2,0.4-0.2c0.2-0.1,0.5-0.2,1-0.3c0.5-0.2,0.8-0.3,1-0.4v-0.5c0,0,0-0.1,0-0.3   c0-0.1-0.1-0.3-0.1-0.4c-0.1-0.1-0.2-0.3-0.3-0.4s-0.3-0.2-0.6-0.2c-0.2,0-0.3,0-0.5,0.1s-0.2,0.1-0.3,0.2c0,0.1,0,0.2,0.1,0.3   s0.1,0.3,0.1,0.4s-0.1,0.2-0.2,0.4s-0.3,0.2-0.5,0.2s-0.3-0.1-0.4-0.2s-0.1-0.3-0.1-0.4c0-0.2,0.1-0.3,0.2-0.5s0.3-0.3,0.5-0.4   s0.4-0.2,0.6-0.3c0.2-0.1,0.5-0.1,0.7-0.1c0.3,0,0.6,0,0.8,0.1c0.2,0,0.4,0.1,0.6,0.3c0.2,0.1,0.3,0.3,0.4,0.6   c0.1,0.2,0.1,0.5,0.1,0.9c0,0.5,0,1,0,1.4s0,0.9,0,1.3c0,0.1,0,0.3,0.1,0.3s0.1,0.2,0.2,0.2s0.1,0.1,0.3,0.1s0.2,0,0.4,0v0.2   L225.9,359.7L225.9,359.7z M223.9,356.8c-0.3,0.1-0.6,0.2-0.8,0.3c-0.2,0.1-0.5,0.2-0.7,0.3c-0.2,0.1-0.3,0.3-0.4,0.4   c-0.1,0.2-0.2,0.4-0.2,0.6c0,0.3,0.1,0.5,0.2,0.7c0.2,0.1,0.4,0.2,0.6,0.2c0.3,0,0.5-0.1,0.7-0.2s0.4-0.3,0.5-0.5L223.9,356.8z"></path>
	<path d="M229.1,359.8h-2.7v-0.4c0.1,0,0.2,0,0.3,0s0.2,0,0.2,0c0.1,0,0.2-0.1,0.2-0.2s0.1-0.2,0.1-0.3v-6.3c0-0.1,0-0.3-0.1-0.4   s-0.1-0.2-0.2-0.3c-0.1,0-0.2-0.1-0.4-0.1s-0.3-0.1-0.4-0.1v-0.3l2.1-0.1l0.1,0.1v7.5c0,0.1,0,0.2,0.1,0.3c0,0.1,0.1,0.1,0.2,0.2   c0.1,0,0.2,0.1,0.2,0.1c0.1,0,0.2,0,0.3,0L229.1,359.8L229.1,359.8z"></path>
	<g class="st1">
		<path d="M238.9,357.7l-0.1,2.3h-6.5v-0.4c0.1,0,0.3,0,0.4,0c0.2,0,0.3,0,0.4-0.1s0.2-0.1,0.2-0.2s0.1-0.2,0.1-0.3v-5.6    c0-0.1,0-0.2-0.1-0.3s-0.1-0.2-0.3-0.2c-0.1,0-0.2-0.1-0.4-0.1s-0.3-0.1-0.4-0.1v-0.4h6.1v1.9H238c-0.1-0.3-0.2-0.6-0.5-0.9    c-0.2-0.3-0.5-0.5-0.7-0.5c-0.1,0-0.3,0-0.4,0c-0.2,0-0.3,0-0.5,0h-1.2v3.1h0.9c0.3,0,0.5,0,0.6-0.1s0.2-0.1,0.3-0.3    c0.1-0.1,0.2-0.2,0.2-0.4s0.1-0.3,0.1-0.5h0.4v3.1h-0.4c0-0.2-0.1-0.4-0.1-0.6c-0.1-0.2-0.1-0.3-0.2-0.4s-0.2-0.2-0.4-0.3    c-0.1,0-0.3-0.1-0.6-0.1h-0.9v2.3c0,0.2,0,0.4,0,0.6s0.1,0.2,0.2,0.3c0.1,0.1,0.2,0.1,0.4,0.1s0.4,0,0.7,0c0.1,0,0.3,0,0.5,0    s0.4,0,0.5,0s0.3,0,0.4-0.1c0.1,0,0.3-0.1,0.3-0.2c0.2-0.2,0.3-0.4,0.5-0.8s0.3-0.6,0.4-0.8H238.9z"></path>
	</g>
	<g class="st1">
		<path d="M242.8,357.4c0.2,0.1,0.3,0.3,0.3,0.5s0.1,0.4,0.1,0.6c0,0.5-0.2,0.9-0.6,1.2c-0.4,0.3-0.9,0.5-1.5,0.5    c-0.3,0-0.6-0.1-0.9-0.2s-0.5-0.2-0.6-0.3l-0.1,0.4h-0.4l-0.1-1.9h0.4c0,0.1,0.1,0.3,0.2,0.5s0.2,0.4,0.3,0.5    c0.1,0.2,0.3,0.3,0.5,0.4s0.4,0.2,0.7,0.2c0.4,0,0.6-0.1,0.8-0.2s0.3-0.4,0.3-0.7c0-0.2,0-0.3-0.1-0.4s-0.2-0.2-0.3-0.3    c-0.1-0.1-0.3-0.2-0.4-0.2c-0.2-0.1-0.4-0.1-0.6-0.2s-0.4-0.1-0.6-0.2s-0.4-0.2-0.5-0.3c-0.2-0.1-0.3-0.3-0.4-0.5    s-0.2-0.4-0.2-0.7c0-0.4,0.2-0.8,0.5-1.1c0.3-0.3,0.8-0.5,1.3-0.5c0.2,0,0.4,0,0.7,0.1c0.2,0.1,0.4,0.1,0.5,0.2l0.1-0.3h0.4    l0.1,1.8h-0.4c-0.1-0.4-0.2-0.7-0.5-1c-0.3-0.2-0.6-0.4-0.9-0.4s-0.5,0.1-0.7,0.2c-0.2,0.2-0.3,0.3-0.3,0.5s0,0.3,0.1,0.4    s0.1,0.2,0.3,0.3c0.1,0.1,0.3,0.1,0.4,0.2c0.2,0.1,0.4,0.1,0.6,0.2s0.5,0.2,0.7,0.3C242.4,357.1,242.7,357.2,242.8,357.4z"></path>
	</g>
	<g class="st1">
		<path d="M247.6,359.8c-0.2,0.1-0.5,0.2-0.7,0.3s-0.5,0.1-0.8,0.1c-0.5,0-0.8-0.1-1-0.3c-0.2-0.2-0.3-0.6-0.3-1v-3.7h-1v-0.6h1    v-1.7h1v1.7h1.6v0.5h-1.5v3c0,0.2,0,0.4,0,0.6s0.1,0.3,0.1,0.4c0.1,0.1,0.1,0.2,0.3,0.2c0.1,0.1,0.3,0.1,0.5,0.1    c0.1,0,0.2,0,0.4,0s0.3,0,0.4-0.1V359.8L247.6,359.8z"></path>
	</g>
	<g class="st1">
		<path d="M253.6,359.9c-0.2,0.1-0.3,0.1-0.5,0.2c-0.1,0-0.3,0.1-0.4,0.1c-0.3,0-0.5-0.1-0.7-0.2s-0.3-0.3-0.3-0.6l0,0    c-0.2,0.3-0.5,0.5-0.8,0.6s-0.6,0.2-1,0.2s-0.7-0.1-1-0.4s-0.4-0.6-0.4-1c0-0.2,0-0.4,0.1-0.6s0.1-0.3,0.3-0.4    c0.1-0.1,0.2-0.2,0.4-0.3c0.2-0.1,0.3-0.2,0.4-0.2c0.2-0.1,0.5-0.2,1-0.3c0.5-0.2,0.8-0.3,1-0.4v-0.5c0,0,0-0.1,0-0.3    c0-0.1-0.1-0.3-0.1-0.4c-0.1-0.1-0.2-0.3-0.3-0.4s-0.3-0.2-0.6-0.2c-0.2,0-0.3,0-0.5,0.1s-0.2,0.1-0.3,0.2c0,0.1,0,0.2,0.1,0.3    c0,0.1,0.1,0.3,0.1,0.4s-0.1,0.2-0.2,0.4c-0.1,0.1-0.3,0.2-0.5,0.2s-0.3-0.1-0.4-0.2s-0.1-0.3-0.1-0.4c0-0.2,0.1-0.3,0.2-0.5    s0.3-0.3,0.5-0.4s0.4-0.2,0.6-0.3c0.2-0.1,0.5-0.1,0.7-0.1c0.3,0,0.6,0,0.8,0.1c0.2,0,0.4,0.1,0.6,0.3c0.2,0.1,0.3,0.3,0.4,0.6    c0.1,0.2,0.1,0.5,0.1,0.9c0,0.5,0,1,0,1.4s0,0.9,0,1.3c0,0.1,0,0.3,0.1,0.3c0,0.1,0.1,0.2,0.2,0.2s0.1,0.1,0.3,0.1s0.2,0,0.4,0    v0.2L253.6,359.9L253.6,359.9z M251.7,357c-0.3,0.1-0.6,0.2-0.8,0.3s-0.5,0.2-0.7,0.3c-0.2,0.1-0.3,0.3-0.4,0.4s-0.2,0.4-0.2,0.6    c0,0.3,0.1,0.5,0.2,0.7c0.2,0.1,0.4,0.2,0.6,0.2c0.3,0,0.5-0.1,0.7-0.2s0.4-0.3,0.5-0.5L251.7,357z"></path>
	</g>
	<g class="st1">
		<path d="M257.4,359.8c-0.2,0.1-0.5,0.2-0.7,0.3c-0.2,0.1-0.5,0.1-0.8,0.1c-0.5,0-0.8-0.1-1-0.3c-0.2-0.2-0.3-0.6-0.3-1v-3.7h-1    v-0.6h1v-1.7h1v1.7h1.6v0.5h-1.4v3c0,0.2,0,0.4,0,0.6s0.1,0.3,0.1,0.4c0.1,0.1,0.1,0.2,0.3,0.2c0.1,0.1,0.3,0.1,0.5,0.1    c0.1,0,0.2,0,0.4,0c0.2,0,0.3,0,0.4-0.1L257.4,359.8L257.4,359.8z"></path>
	</g>
	<g class="st1">
		<path d="M262.4,358.8c-0.2,0.4-0.5,0.8-0.9,1c-0.4,0.3-0.8,0.4-1.3,0.4c-0.4,0-0.8-0.1-1.2-0.2c-0.3-0.2-0.6-0.4-0.8-0.6    c-0.2-0.3-0.4-0.6-0.5-0.9c-0.1-0.4-0.2-0.7-0.2-1.1s0.1-0.7,0.2-1s0.3-0.6,0.5-0.9s0.5-0.5,0.8-0.6s0.7-0.2,1-0.2    c0.4,0,0.7,0.1,1,0.2s0.5,0.3,0.7,0.5s0.3,0.4,0.4,0.7s0.1,0.6,0.1,0.9v0.4h-3.6c0,0.4,0,0.7,0.1,1s0.2,0.5,0.3,0.8    c0.1,0.2,0.3,0.4,0.6,0.5s0.5,0.2,0.8,0.2s0.6-0.1,0.8-0.2s0.5-0.4,0.7-0.8L262.4,358.8z M261.3,356.7c0-0.2,0-0.4-0.1-0.7    c0-0.2-0.1-0.4-0.2-0.6s-0.2-0.3-0.3-0.4s-0.3-0.2-0.6-0.2c-0.4,0-0.7,0.2-1,0.5s-0.4,0.8-0.4,1.3h2.6V356.7z"></path>
	</g>
</g>
<g id="Layer_2_1_">
</g>
<g>
	<g>
		<g>
			<g>
				<polygon class="st5" points="290.6,121.5 352.8,121.5 352.8,332.9 290.6,332.9     "></polygon>
			</g>
		</g>
	</g>
</g>
<g>
	<g>
		<g>
			<g>
				<g>
					<polygon class="st5" points="275.3,352.9 281.8,352.9 281.8,358.6 275.3,358.6      "></polygon>
				</g>
			</g>
		</g>
	</g>
	<g class="st1">
		<path d="M287.9,359.9c-0.5,0-0.9-0.1-1.3-0.3c-0.4-0.2-0.8-0.4-1.1-0.8c-0.3-0.3-0.6-0.8-0.8-1.3c-0.2-0.5-0.3-1.1-0.3-1.7    s0.1-1.2,0.3-1.7c0.2-0.5,0.5-0.9,0.8-1.3s0.7-0.6,1.2-0.8c0.5-0.2,0.9-0.3,1.5-0.3c0.4,0,0.7,0,1,0.1s0.6,0.2,0.9,0.4l0.2-0.4    h0.4v2.8h-0.5c-0.1-0.3-0.1-0.6-0.3-0.9c-0.1-0.3-0.3-0.6-0.4-0.8c-0.2-0.3-0.4-0.4-0.6-0.6c-0.2-0.1-0.5-0.2-0.8-0.2    c-0.4,0-0.7,0.1-1,0.2c-0.3,0.2-0.6,0.4-0.8,0.7c-0.2,0.3-0.4,0.7-0.5,1.1c-0.1,0.5-0.2,1-0.2,1.5s0.1,1,0.2,1.4s0.3,0.8,0.5,1.1    c0.2,0.3,0.5,0.6,0.8,0.7s0.7,0.3,1.1,0.3c0.3,0,0.6,0,0.8-0.1s0.5-0.2,0.7-0.4c0.2-0.2,0.3-0.3,0.5-0.6c0.1-0.2,0.3-0.4,0.3-0.7    l0.4,0.2c-0.3,0.8-0.7,1.3-1.3,1.7S288.7,359.9,287.9,359.9z"></path>
	</g>
	<g class="st1">
		<path d="M296.8,357c0,0.4-0.1,0.8-0.2,1.1c-0.1,0.4-0.3,0.7-0.5,0.9c-0.3,0.3-0.5,0.5-0.9,0.7s-0.7,0.2-1.1,0.2    c-0.3,0-0.7-0.1-1-0.2s-0.6-0.3-0.8-0.6c-0.2-0.2-0.4-0.5-0.6-0.9c-0.1-0.4-0.2-0.8-0.2-1.2c0-0.9,0.2-1.5,0.7-2.1s1.1-0.8,2-0.8    c0.8,0,1.4,0.3,1.9,0.8C296.5,355.4,296.8,356.1,296.8,357z M295.7,357c0-0.3,0-0.6-0.1-0.9s-0.1-0.6-0.2-0.8    c-0.1-0.2-0.3-0.4-0.5-0.5s-0.4-0.2-0.7-0.2s-0.5,0.1-0.7,0.2s-0.4,0.3-0.5,0.6c-0.1,0.2-0.2,0.5-0.2,0.8s-0.1,0.6-0.1,0.8    c0,0.4,0,0.7,0.1,1s0.1,0.6,0.3,0.8c0.1,0.2,0.3,0.4,0.5,0.6c0.2,0.1,0.4,0.2,0.7,0.2c0.5,0,0.8-0.2,1.1-0.7    S295.7,357.8,295.7,357z"></path>
	</g>
	<g class="st1">
		<path d="M301.9,355c0,0.2,0,0.4-0.1,0.5s-0.2,0.2-0.4,0.2c-0.2,0-0.4-0.1-0.5-0.2s-0.2-0.2-0.2-0.4c0-0.1,0-0.2,0-0.2    c0-0.1,0-0.1,0-0.2c-0.2,0-0.4,0.1-0.6,0.2s-0.4,0.3-0.6,0.6v3.2c0,0.1,0,0.2,0.1,0.3s0.1,0.1,0.2,0.2c0.1,0,0.2,0.1,0.4,0.1    c0.1,0,0.3,0,0.4,0v0.4h-2.9v-0.4c0.1,0,0.2,0,0.3,0s0.2,0,0.2,0c0.1,0,0.2-0.1,0.2-0.2s0.1-0.2,0.1-0.3v-3.4c0-0.1,0-0.2-0.1-0.3    c-0.1-0.1-0.1-0.2-0.2-0.3c-0.1,0-0.2-0.1-0.2-0.1c-0.1,0-0.2,0-0.3,0v-0.4l1.8-0.1l0.1,0.1v0.8l0,0c0.2-0.3,0.5-0.5,0.8-0.7    s0.5-0.2,0.8-0.2c0.2,0,0.4,0.1,0.6,0.2C301.9,354.5,301.9,354.7,301.9,355z"></path>
	</g>
	<g class="st1">
		<path d="M307,354.9c0.2,0.3,0.4,0.6,0.5,0.9s0.2,0.7,0.2,1.2c0,0.4-0.1,0.8-0.2,1.2c-0.1,0.4-0.3,0.7-0.6,0.9    c-0.2,0.3-0.5,0.4-0.8,0.6c-0.3,0.1-0.6,0.2-1,0.2c-0.3,0-0.6,0-0.8-0.1c-0.2-0.1-0.4-0.2-0.5-0.3l0,0v1.6c0,0.1,0,0.2,0.1,0.3    c0.1,0.1,0.1,0.2,0.2,0.2s0.2,0.1,0.4,0.1c0.2,0,0.3,0,0.4,0.1v0.4h-3v-0.4c0.1,0,0.2,0,0.3,0s0.2,0,0.3-0.1    c0.1,0,0.2-0.1,0.2-0.2s0.1-0.2,0.1-0.3v-5.8c0-0.1,0-0.2-0.1-0.3c-0.1-0.1-0.1-0.2-0.2-0.2s-0.2-0.1-0.3-0.1s-0.2,0-0.3,0v-0.5    l1.9-0.1l0.1,0.1v0.6l0,0c0.2-0.2,0.4-0.4,0.7-0.6c0.3-0.1,0.6-0.2,0.8-0.2c0.3,0,0.6,0.1,0.9,0.2    C306.7,354.5,306.8,354.7,307,354.9z M306.2,358.8c0.1-0.2,0.3-0.5,0.3-0.8c0.1-0.3,0.1-0.6,0.1-1c0-0.3,0-0.5-0.1-0.8    s-0.2-0.5-0.3-0.7s-0.3-0.4-0.5-0.5s-0.4-0.2-0.7-0.2c-0.3,0-0.5,0.1-0.7,0.2s-0.4,0.3-0.5,0.4v3.2c0,0.1,0.1,0.2,0.2,0.3    c0.1,0.1,0.2,0.2,0.3,0.3c0.1,0.1,0.2,0.2,0.4,0.2c0.1,0.1,0.3,0.1,0.5,0.1s0.4-0.1,0.6-0.2C305.8,359.2,306,359,306.2,358.8z"></path>
	</g>
	<g class="st1">
		<path d="M314.4,357c0,0.4-0.1,0.8-0.2,1.1c-0.1,0.4-0.3,0.7-0.5,0.9c-0.3,0.3-0.5,0.5-0.9,0.7s-0.7,0.2-1.1,0.2    c-0.3,0-0.7-0.1-1-0.2s-0.6-0.3-0.8-0.6c-0.2-0.2-0.4-0.5-0.6-0.9c-0.1-0.4-0.2-0.8-0.2-1.2c0-0.9,0.2-1.5,0.7-2.1s1.1-0.8,2-0.8    c0.8,0,1.4,0.3,1.9,0.8S314.4,356.1,314.4,357z M313.3,357c0-0.3,0-0.6-0.1-0.9s-0.1-0.6-0.2-0.8c-0.1-0.2-0.3-0.4-0.5-0.5    s-0.4-0.2-0.7-0.2c-0.3,0-0.5,0.1-0.7,0.2s-0.4,0.3-0.5,0.6c-0.1,0.2-0.2,0.5-0.2,0.8s-0.1,0.6-0.1,0.8c0,0.4,0,0.7,0.1,1    s0.1,0.6,0.3,0.8c0.1,0.2,0.3,0.4,0.5,0.6c0.2,0.1,0.4,0.2,0.7,0.2c0.5,0,0.8-0.2,1.1-0.7C313.3,358.4,313.3,357.8,313.3,357z"></path>
	</g>
	<g class="st1">
		<path d="M318.9,355c0,0.2,0,0.4-0.1,0.5s-0.2,0.2-0.4,0.2c-0.2,0-0.4-0.1-0.5-0.2s-0.2-0.2-0.2-0.4c0-0.1,0-0.2,0-0.2    c0-0.1,0-0.1,0-0.2c-0.2,0-0.4,0.1-0.6,0.2s-0.4,0.3-0.6,0.6v3.2c0,0.1,0,0.2,0.1,0.3s0.1,0.1,0.2,0.2c0.1,0,0.2,0.1,0.4,0.1    c0.1,0,0.3,0,0.4,0v0.4h-2.8v-0.4c0.1,0,0.2,0,0.3,0s0.2,0,0.2,0c0.1,0,0.2-0.1,0.2-0.2s0.1-0.2,0.1-0.3v-3.4c0-0.1,0-0.2-0.1-0.3    c-0.1-0.1-0.1-0.2-0.2-0.3c-0.1,0-0.2-0.1-0.2-0.1c-0.1,0-0.2,0-0.3,0v-0.4l1.8-0.1l0.1,0.1v0.8l0,0c0.2-0.3,0.5-0.5,0.8-0.7    s0.5-0.2,0.8-0.2c0.2,0,0.4,0.1,0.6,0.2C318.9,354.5,318.9,354.7,318.9,355z"></path>
	</g>
	<g class="st1">
		<path d="M324.8,359.6c-0.2,0.1-0.3,0.1-0.5,0.2c-0.1,0-0.3,0.1-0.4,0.1c-0.3,0-0.5-0.1-0.7-0.2s-0.3-0.3-0.3-0.6l0,0    c-0.2,0.3-0.5,0.5-0.8,0.6s-0.6,0.2-1,0.2s-0.7-0.1-1-0.4s-0.4-0.6-0.4-1c0-0.2,0-0.4,0.1-0.6s0.1-0.3,0.3-0.4    c0.1-0.1,0.2-0.2,0.4-0.3c0.2-0.1,0.3-0.2,0.4-0.2c0.2-0.1,0.5-0.2,1-0.3c0.5-0.2,0.8-0.3,1-0.4v-0.5c0,0,0-0.1,0-0.3    c0-0.1-0.1-0.3-0.1-0.4c-0.1-0.1-0.2-0.3-0.3-0.4s-0.3-0.2-0.6-0.2c-0.2,0-0.3,0-0.5,0.1c-0.1,0.1-0.2,0.1-0.3,0.2    c0,0.1,0,0.2,0.1,0.3c0,0.1,0.1,0.3,0.1,0.4s-0.1,0.2-0.2,0.4c-0.1,0.1-0.3,0.2-0.5,0.2s-0.3-0.1-0.4-0.2s-0.1-0.3-0.1-0.4    c0-0.2,0.1-0.3,0.2-0.5s0.3-0.3,0.5-0.4s0.4-0.2,0.6-0.3c0.2-0.1,0.5-0.1,0.7-0.1c0.3,0,0.6,0,0.8,0.1c0.2,0,0.4,0.1,0.6,0.3    c0.2,0.1,0.3,0.3,0.4,0.6c0.1,0.2,0.1,0.5,0.1,0.9c0,0.5,0,1,0,1.4s0,0.9,0,1.3c0,0.1,0,0.3,0.1,0.3c0,0.1,0.1,0.2,0.2,0.2    s0.1,0.1,0.3,0.1c0.2,0,0.2,0,0.4,0v0.2L324.8,359.6L324.8,359.6z M322.9,356.7c-0.3,0.1-0.6,0.2-0.8,0.3    c-0.2,0.1-0.5,0.2-0.7,0.3c-0.2,0.1-0.3,0.3-0.4,0.4s-0.2,0.4-0.2,0.6c0,0.3,0.1,0.5,0.2,0.7c0.2,0.1,0.4,0.2,0.6,0.2    c0.3,0,0.5-0.1,0.7-0.2s0.4-0.3,0.5-0.5L322.9,356.7z"></path>
	</g>
	<g class="st1">
		<path d="M328.8,359.5c-0.2,0.1-0.5,0.2-0.7,0.3c-0.2,0.1-0.5,0.1-0.8,0.1c-0.5,0-0.8-0.1-1-0.3c-0.2-0.2-0.3-0.6-0.3-1v-3.7h-1    v-0.6h1v-1.7h1v1.7h1.6v0.5H327v3c0,0.2,0,0.4,0,0.6s0.1,0.3,0.1,0.4c0.1,0.1,0.1,0.2,0.3,0.2c0.1,0.1,0.3,0.1,0.5,0.1    c0.1,0,0.2,0,0.4,0c0.2,0,0.3,0,0.4-0.1v0.5H328.8z"></path>
	</g>
	<g class="st1">
		<path d="M333.8,358.5c-0.2,0.4-0.5,0.8-0.9,1c-0.4,0.3-0.8,0.4-1.3,0.4c-0.4,0-0.8-0.1-1.2-0.2c-0.3-0.2-0.6-0.4-0.8-0.6    c-0.2-0.3-0.4-0.6-0.5-0.9c-0.1-0.4-0.2-0.7-0.2-1.1s0.1-0.7,0.2-1s0.3-0.6,0.5-0.9s0.5-0.5,0.8-0.6s0.7-0.2,1-0.2    c0.4,0,0.7,0.1,1,0.2s0.5,0.3,0.7,0.5s0.3,0.4,0.4,0.7c0.1,0.3,0.1,0.6,0.1,0.9v0.4H330c0,0.4,0,0.7,0.1,1s0.2,0.5,0.3,0.8    c0.1,0.2,0.3,0.4,0.6,0.5c0.2,0.1,0.5,0.2,0.8,0.2s0.6-0.1,0.8-0.2c0.2-0.1,0.5-0.4,0.7-0.8L333.8,358.5z M332.5,356.4    c0-0.2,0-0.4-0.1-0.7c0-0.2-0.1-0.4-0.2-0.6s-0.2-0.3-0.3-0.4s-0.3-0.2-0.6-0.2c-0.4,0-0.7,0.2-1,0.5s-0.4,0.8-0.4,1.3h2.6V356.4z    "></path>
	</g>
	<g class="st1">
		<path d="M343.2,356.1c0.2,0.2,0.4,0.4,0.6,0.6c0.2,0.3,0.2,0.6,0.2,0.9c0,0.4-0.1,0.7-0.2,0.9c-0.2,0.3-0.4,0.5-0.6,0.7    s-0.5,0.3-0.8,0.4s-0.6,0.1-1,0.1h-3.7v-0.4c0.1,0,0.2,0,0.4,0c0.2,0,0.3-0.1,0.4-0.1c0.1-0.1,0.2-0.1,0.2-0.2s0.1-0.2,0.1-0.3    v-5.6c0-0.1,0-0.2-0.1-0.3s-0.1-0.2-0.3-0.2c-0.1-0.1-0.2-0.1-0.4-0.1c-0.2,0-0.3,0-0.3-0.1V352h3.6c0.3,0,0.5,0,0.8,0.1    s0.5,0.2,0.7,0.3c0.2,0.1,0.4,0.3,0.5,0.5s0.2,0.5,0.2,0.8s0,0.5-0.1,0.7s-0.2,0.4-0.4,0.6c-0.2,0.1-0.4,0.3-0.6,0.4    s-0.5,0.2-0.7,0.2l0,0c0.2,0,0.5,0.1,0.8,0.2C342.7,355.9,342.9,355.9,343.2,356.1z M341.8,354.9c0.1-0.2,0.2-0.3,0.3-0.5    s0.1-0.4,0.1-0.7c0-0.4-0.1-0.8-0.4-1s-0.6-0.4-1.1-0.4c-0.1,0-0.3,0-0.4,0c-0.2,0-0.3,0-0.4,0v3h0.7c0.3,0,0.6,0,0.8-0.1    C341.5,355.2,341.7,355.1,341.8,354.9z M342.5,357.4c0-0.5-0.2-0.8-0.5-1.1c-0.3-0.3-0.8-0.4-1.3-0.4c-0.2,0-0.4,0-0.6,0    s-0.3,0-0.4,0v2.8c0,0.2,0.1,0.4,0.3,0.5c0.2,0.1,0.4,0.2,0.8,0.2c0.5,0,1-0.2,1.3-0.5C342.4,358.5,342.5,358,342.5,357.4z"></path>
	</g>
	<g class="st1">
		<path d="M349.8,357c0,0.4-0.1,0.8-0.2,1.1c-0.1,0.4-0.3,0.7-0.5,0.9c-0.3,0.3-0.5,0.5-0.9,0.7s-0.7,0.2-1.1,0.2    c-0.3,0-0.7-0.1-1-0.2s-0.6-0.3-0.8-0.6c-0.2-0.2-0.4-0.5-0.6-0.9c-0.1-0.4-0.2-0.8-0.2-1.2c0-0.9,0.2-1.5,0.7-2.1s1.1-0.8,2-0.8    c0.8,0,1.4,0.3,1.9,0.8C349.7,355.4,349.8,356.1,349.8,357z M348.8,357c0-0.3,0-0.6-0.1-0.9s-0.1-0.6-0.2-0.8    c-0.1-0.2-0.3-0.4-0.5-0.5s-0.4-0.2-0.7-0.2c-0.3,0-0.5,0.1-0.7,0.2s-0.4,0.3-0.5,0.6c-0.1,0.2-0.2,0.5-0.2,0.8s-0.1,0.6-0.1,0.8    c0,0.4,0,0.7,0.1,1s0.1,0.6,0.3,0.8c0.1,0.2,0.3,0.4,0.5,0.6c0.2,0.1,0.4,0.2,0.7,0.2c0.5,0,0.8-0.2,1.1-0.7    C348.8,358.4,348.8,357.8,348.8,357z"></path>
	</g>
	<g class="st1">
		<path d="M356.8,359.7h-2.7v-0.4c0.1,0,0.2,0,0.3,0s0.2,0,0.3,0s0.2-0.1,0.2-0.2s0.1-0.2,0.1-0.3V356c0-0.4-0.1-0.7-0.3-0.9    c-0.2-0.2-0.4-0.3-0.7-0.3c-0.2,0-0.4,0-0.5,0.1c-0.2,0.1-0.3,0.1-0.4,0.2s-0.2,0.2-0.3,0.3c-0.1,0.1-0.1,0.2-0.2,0.2v3.1    c0,0.1,0,0.2,0.1,0.3c0.1,0.1,0.1,0.1,0.2,0.2c0.1,0,0.2,0.1,0.3,0.1s0.2,0,0.3,0v0.4h-2.7v-0.4c0.1,0,0.2,0,0.3,0s0.2,0,0.2,0    c0.1,0,0.2-0.1,0.2-0.2s0.1-0.2,0.1-0.3v-3.4c0-0.1,0-0.2-0.1-0.3c-0.1-0.1-0.1-0.2-0.2-0.3c-0.1,0-0.2-0.1-0.2-0.1    c-0.1,0-0.2,0-0.3,0v-0.4l1.8-0.1l0.1,0.1v0.8l0,0c0.1-0.1,0.2-0.2,0.3-0.3c0.1-0.1,0.3-0.2,0.4-0.3c0.1-0.1,0.3-0.2,0.5-0.2    s0.4-0.1,0.6-0.1c0.5,0,0.9,0.2,1.2,0.5c0.3,0.3,0.4,0.8,0.4,1.3v2.8c0,0.1,0,0.2,0.1,0.3c0,0.1,0.1,0.1,0.2,0.2    c0.1,0,0.2,0.1,0.2,0.1s0.2,0,0.3,0L356.8,359.7L356.8,359.7L356.8,359.7z"></path>
	</g>
	<g class="st1">
		<path d="M363.3,359.6l-1.9,0.1l-0.1-0.1v-0.5l0,0c-0.2,0.2-0.4,0.4-0.7,0.5c-0.3,0.1-0.6,0.2-0.9,0.2s-0.6-0.1-0.9-0.2    s-0.5-0.3-0.8-0.6c-0.2-0.3-0.4-0.6-0.5-0.9c-0.1-0.4-0.2-0.8-0.2-1.2c0-0.4,0.1-0.8,0.2-1.1c0.1-0.4,0.3-0.7,0.6-0.9    c0.2-0.2,0.5-0.4,0.8-0.6c0.3-0.1,0.7-0.2,1-0.2s0.5,0,0.7,0.1s0.5,0.1,0.6,0.2v-1.9c0-0.2,0-0.3-0.1-0.4s-0.1-0.2-0.2-0.3    c-0.1-0.1-0.2-0.1-0.4-0.2c-0.2,0-0.4-0.1-0.6-0.1v-0.2l2.2-0.1l0.1,0.1v7.3c0,0.1,0,0.2,0.1,0.3c0,0.1,0.1,0.2,0.2,0.2    s0.2,0.1,0.3,0.1s0.3,0,0.4,0L363.3,359.6L363.3,359.6z M361.3,358.7v-3.2c0-0.1-0.1-0.2-0.1-0.3c-0.1-0.1-0.1-0.2-0.2-0.3    c-0.1-0.1-0.2-0.2-0.4-0.2c-0.1-0.1-0.3-0.1-0.5-0.1s-0.4,0.1-0.6,0.2s-0.4,0.3-0.5,0.5s-0.2,0.5-0.3,0.8s-0.1,0.7-0.1,1.1    c0,0.3,0,0.6,0.1,0.8c0.1,0.3,0.2,0.5,0.3,0.7s0.3,0.4,0.5,0.5s0.4,0.2,0.7,0.2c0.3,0,0.5-0.1,0.7-0.2    C360.9,359,361.2,358.8,361.3,358.7z"></path>
	</g>
	<g class="st1">
		<path d="M367.8,357.1c0.2,0.1,0.3,0.3,0.3,0.5s0.1,0.4,0.1,0.6c0,0.5-0.2,0.9-0.6,1.2c-0.4,0.3-0.9,0.5-1.5,0.5    c-0.3,0-0.6-0.1-0.9-0.2s-0.5-0.2-0.6-0.3l-0.1,0.4h-0.4l-0.1-1.9h0.4c0,0.1,0.1,0.3,0.2,0.5s0.2,0.4,0.3,0.5    c0.1,0.2,0.3,0.3,0.5,0.4s0.4,0.2,0.7,0.2c0.4,0,0.6-0.1,0.8-0.2c0.2-0.2,0.3-0.4,0.3-0.7c0-0.2,0-0.3-0.1-0.4s-0.2-0.2-0.3-0.3    c-0.1-0.1-0.3-0.2-0.4-0.2c-0.2-0.1-0.4-0.1-0.6-0.2s-0.4-0.1-0.6-0.2s-0.4-0.2-0.5-0.3c-0.2-0.1-0.3-0.3-0.4-0.5    s-0.2-0.4-0.2-0.7c0-0.4,0.2-0.8,0.5-1.1c0.3-0.3,0.8-0.5,1.3-0.5c0.2,0,0.4,0,0.7,0.1c0.2,0.1,0.4,0.1,0.5,0.2l0.1-0.3h0.4    l0.1,1.8h-0.4c-0.1-0.4-0.2-0.7-0.5-1c-0.3-0.2-0.6-0.4-0.9-0.4s-0.5,0.1-0.7,0.2c-0.2,0.2-0.3,0.3-0.3,0.5s0,0.3,0.1,0.4    s0.1,0.2,0.3,0.3c0.1,0.1,0.2,0.1,0.4,0.2c0.2,0.1,0.4,0.1,0.6,0.2s0.5,0.2,0.7,0.3C367.5,356.8,367.8,356.9,367.8,357.1z"></path>
	</g>
</g>
<rect x="164.2" y="90" class="st6" width="69" height="24.3"></rect>
<g>
	<path d="M76.4,204.5c-0.2,0.3-0.1,0.6,0.2,1.2c0.3,0.4,0.3,0.9,0.3,1.4c0,1-0.7,1.7-1.8,1.7c-1.1,0-1.9-0.8-1.9-2   c0-1.8,1.9-3.8,5.3-3.8c4,0,6.2,1.6,6.2,4.1c0,2.8-2.5,5-4.6,6.3c-0.7,0.5-1.7,1-3.7,1.9v0.1h4.3c1.5,0,2.2-0.3,2.9-1   c0.5-0.4,1-1.1,1.2-1.4h0.5l-1.6,5.5H72.8l-0.1-0.4c0.5-0.5,1.2-1.1,2.4-2.4c2-2,5.4-5.1,5.4-9.2c0-2.2-0.9-2.9-2.5-2.9   C77.1,203.8,76.5,204.1,76.4,204.5z"></path>
	<path d="M86.5,217c0-1.1,0.8-2,2.1-2c1.3,0,2.1,0.9,2.1,2s-0.8,2-2.1,2C87.3,219,86.5,218.1,86.5,217z"></path>
	<path d="M92.1,218.7v-0.5c0.4-0.1,0.9-0.1,1.1-0.3c0.3-0.2,0.5-0.3,0.6-0.7c0.1-0.4,0.1-1.1,0.1-1.8v-8.7c0-0.6,0-1.1-0.1-1.5   c-0.1-0.5-0.2-0.7-0.5-0.8c-0.3-0.1-1-0.3-1.4-0.3v-0.4l3.8-0.3c0.8-0.1,1.9-0.2,2.1-0.2c0.1,0,0.2,0,0.2,0.2c0,0.3,0,1.6,0,2.2   v9.9c0,0.7,0,1.3,0.1,1.7c0.1,0.4,0.3,0.6,0.6,0.8c0.2,0.1,0.6,0.2,1.1,0.3v0.5H92.1z"></path>
	<path d="M104.6,211.2c-2.3,0-4-1.7-4-4.1c0-2.5,1.9-4.1,4-4.1c2.4,0,4.1,1.7,4.1,4.1C108.6,209.5,106.7,211.2,104.6,211.2z    M103.3,207.1c0,2.4,0.3,3.6,1.3,3.6s1.3-1.1,1.3-3.6c0-2.5-0.3-3.5-1.3-3.5S103.3,204.6,103.3,207.1z M104.9,219l-0.6-0.3   l8.7-15.8l0.6,0.3L104.9,219z M113.3,210.8c2.4,0,4,1.7,4,4.1c0,2.4-1.9,4.1-4,4.1c-2.4,0-4-1.7-4-4.1   C109.3,212.4,111.2,210.8,113.3,210.8z M114.6,214.9c0-2.5-0.3-3.5-1.3-3.5s-1.3,1.1-1.3,3.6c0,2.5,0.3,3.5,1.3,3.5   C114.2,218.4,114.6,217.3,114.6,214.9z"></path>
</g>
<g>
	<path d="M185.4,120c0,2.2-2.1,3.2-4.9,4v0.1c3.4-0.4,6,1.1,6,3.7c0,2.8-2.6,4.9-7,4.9c-3.7,0-5.5-1.7-5.5-3.4   c0-1.2,0.8-1.9,1.9-1.9c1.1,0,1.7,0.9,1.7,1.9c0,0.5,0,0.9-0.2,1.4c-0.1,0.4,0,0.6,0.1,0.8c0.2,0.3,0.6,0.5,1.4,0.5   c2,0,3.2-1.6,3.2-4.6c0-2-0.6-2.6-2-2.6c-0.6,0-1,0.2-1.4,0.4l-1,0.6l-0.3-0.5l1.4-0.8c2-1.2,2.7-2.6,2.7-4.7c0-1.5-0.5-2.3-2-2.3   c-1.1,0-1.8,0.4-1.8,0.9c0,0.3,0,0.4,0.2,0.7c0.2,0.4,0.3,0.8,0.3,1.2c0,1-0.6,1.7-1.6,1.7c-1.1,0-1.8-0.8-1.8-1.9   c0-1.5,1.7-3.3,5.4-3.3C183.2,116.8,185.4,117.8,185.4,120z"></path>
	<path d="M187.7,130.7c0-1.1,0.8-2,2.1-2c1.3,0,2.1,0.9,2.1,2s-0.8,2-2.1,2C188.5,132.7,187.7,131.8,187.7,130.7z"></path>
	<path d="M199.8,130.2c-0.4,1.7-0.9,2.6-2.3,2.6s-2.1-0.9-2.1-1.9c0-1.7,1.1-3.5,2.4-4.9c1.6-1.8,3.3-3.7,4.6-5.4v-0.1h-5.3   c-1,0-1.4,0.1-2,0.3c-0.6,0.3-1,0.9-1.3,1.7h-0.4l1.3-6.2h0.4c0.2,0.4,0.5,0.8,1.5,0.8h8.2v0.3   C201.3,122.9,200.3,126.9,199.8,130.2z"></path>
	<path d="M209.7,124.9c-2.3,0-4-1.7-4-4.1c0-2.5,1.9-4.1,4-4.1c2.4,0,4.1,1.7,4.1,4.1C213.8,123.2,211.8,124.9,209.7,124.9z    M208.4,120.8c0,2.4,0.3,3.6,1.3,3.6s1.3-1.1,1.3-3.6c0-2.5-0.3-3.5-1.3-3.5S208.4,118.3,208.4,120.8z M210,132.8l-0.6-0.3   l8.7-15.8l0.6,0.3L210,132.8z M218.4,124.5c2.4,0,4,1.7,4,4.1c0,2.4-1.9,4.1-4,4.1c-2.4,0-4-1.7-4-4.1   C214.4,126.1,216.3,124.5,218.4,124.5z M219.7,128.6c0-2.5-0.3-3.5-1.3-3.5s-1.3,1.1-1.3,3.6c0,2.5,0.3,3.5,1.3,3.5   C219.4,132.2,219.7,131.1,219.7,128.6z"></path>
</g>
<g>
	<path d="M307.6,108.5h-7.7V108c0.4,0,0.8-0.1,1.1-0.2c0.4-0.2,0.5-0.4,0.6-0.8c0.1-0.4,0.1-1,0.1-1.7v-1.8h-6.1V103l7.3-9.7h2.8   c0,0,0.1,0,0.1,0.1c0,0.3,0,0.8,0,1.4v8.1h0.5c1.1,0,1.5-0.3,1.7-0.7c0.3-0.4,0.5-1.2,0.6-1.8h0.5v5.5h-0.5   c-0.1-0.6-0.3-1.3-0.6-1.8c-0.3-0.3-0.6-0.7-1.7-0.7h-0.5v1.8c0,0.7,0,1.2,0.1,1.7c0.1,0.4,0.3,0.6,0.6,0.8   c0.3,0.1,0.7,0.2,1.1,0.3V108.5z M301.7,102.9v-6.9h-0.1l-5.2,6.9H301.7z"></path>
	<path d="M310.7,106.8c0-1.1,0.8-2,2.1-2s2.1,0.9,2.1,2s-0.8,2-2.1,2S310.7,107.9,310.7,106.8z"></path>
	<path d="M319,94.3c-0.2,0.3-0.1,0.6,0.2,1.2c0.3,0.4,0.3,0.9,0.3,1.4c0,1-0.7,1.7-1.8,1.7c-1.2,0-1.9-0.8-1.9-2   c0-1.8,1.9-3.8,5.3-3.8c4,0,6.2,1.6,6.2,4.1c0,2.8-2.5,5-4.6,6.3c-0.7,0.5-1.7,1-3.7,1.9v0.1h4.3c1.5,0,2.2-0.3,2.9-1   c0.5-0.4,1-1.1,1.2-1.4h0.5l-1.6,5.5h-10.9l-0.1-0.4c0.5-0.5,1.2-1.1,2.4-2.4c2-2,5.4-5.1,5.4-9.2c0-2.2-0.9-2.9-2.5-2.9   C319.7,93.6,319.1,94,319,94.3z"></path>
	<path d="M332.8,101c-2.3,0-4-1.7-4-4.1c0-2.5,1.9-4.1,4-4.1c2.4,0,4.1,1.7,4.1,4.1C336.9,99.3,334.9,101,332.8,101z M331.6,96.9   c0,2.4,0.3,3.6,1.3,3.6c0.9,0,1.3-1.1,1.3-3.6c0-2.5-0.3-3.5-1.3-3.5C331.9,93.3,331.6,94.4,331.6,96.9z M333.1,108.9l-0.6-0.3   l8.7-15.8l0.6,0.3L333.1,108.9z M341.6,100.6c2.4,0,4,1.7,4,4.1c0,2.4-1.9,4.1-4,4.1c-2.4,0-4-1.7-4-4.1   C337.5,102.2,339.4,100.6,341.6,100.6z M342.8,104.7c0-2.5-0.3-3.5-1.3-3.5c-0.9,0-1.3,1.1-1.3,3.6c0,2.5,0.3,3.5,1.3,3.5   C342.5,108.3,342.8,107.2,342.8,104.7z"></path>
</g>
<g>
	<path d="M414.6,108.5h-7.7V108c0.4,0,0.8-0.1,1.1-0.2c0.4-0.2,0.5-0.4,0.6-0.8c0.1-0.4,0.1-1,0.1-1.7v-1.8h-6.1V103l7.3-9.7h2.8   c0,0,0.1,0,0.1,0.1c0,0.3,0,0.8,0,1.4v8.1h0.5c1.1,0,1.5-0.3,1.7-0.7c0.3-0.4,0.5-1.2,0.6-1.8h0.5v5.5h-0.5   c-0.1-0.6-0.3-1.3-0.6-1.8c-0.3-0.3-0.6-0.7-1.7-0.7h-0.5v1.8c0,0.7,0,1.2,0.1,1.7c0.1,0.4,0.3,0.6,0.6,0.8   c0.3,0.1,0.7,0.2,1.1,0.3V108.5z M408.7,102.9v-6.9h-0.1l-5.2,6.9H408.7z"></path>
	<path d="M417.7,106.8c0-1.1,0.8-2,2.1-2s2.1,0.9,2.1,2s-0.8,2-2.1,2S417.7,107.9,417.7,106.8z"></path>
	<path d="M426,94.3c-0.2,0.3-0.1,0.6,0.2,1.2c0.3,0.4,0.3,0.9,0.3,1.4c0,1-0.7,1.7-1.8,1.7c-1.2,0-1.9-0.8-1.9-2   c0-1.8,1.9-3.8,5.3-3.8c4,0,6.2,1.6,6.2,4.1c0,2.8-2.5,5-4.6,6.3c-0.7,0.5-1.7,1-3.7,1.9v0.1h4.3c1.5,0,2.2-0.3,2.9-1   c0.5-0.4,1-1.1,1.2-1.4h0.5l-1.6,5.5h-10.9l-0.1-0.4c0.5-0.5,1.2-1.1,2.4-2.4c2-2,5.4-5.1,5.4-9.2c0-2.2-0.9-2.9-2.5-2.9   C426.7,93.6,426.1,94,426,94.3z"></path>
	<path d="M439.8,101c-2.3,0-4-1.7-4-4.1c0-2.5,1.9-4.1,4-4.1c2.4,0,4.1,1.7,4.1,4.1C443.9,99.3,441.9,101,439.8,101z M438.6,96.9   c0,2.4,0.3,3.6,1.3,3.6c0.9,0,1.3-1.1,1.3-3.6c0-2.5-0.3-3.5-1.3-3.5C438.9,93.3,438.6,94.4,438.6,96.9z M440.1,108.9l-0.6-0.3   l8.7-15.8l0.6,0.3L440.1,108.9z M448.6,100.6c2.4,0,4,1.7,4,4.1c0,2.4-1.9,4.1-4,4.1c-2.4,0-4-1.7-4-4.1   C444.5,102.2,446.4,100.6,448.6,100.6z M449.8,104.7c0-2.5-0.3-3.5-1.3-3.5c-0.9,0-1.3,1.1-1.3,3.6c0,2.5,0.3,3.5,1.3,3.5   C449.5,108.3,449.8,107.2,449.8,104.7z"></path>
</g>
</svg>
