<svg xmlns="http://www.w3.org/2000/svg" width="111.415" height="22.828" viewBox="0 0 111.415 22.828"><defs><style>.a{fill:#fff;}.b{fill:#b86c00;}</style></defs><g transform="translate(1215 -1792)"><path class="a" d="M10.044-711.622l-6.81,15.765-6.716-15.765H-9L.522-689.551H5.567l9.554-22.071Zm11.986,17.972v-5.108H32.278v-3.973H22.031v-4.793h11.6v-4.1H16.954v22.071H34.043v-4.1Zm16.085,4.1H54.291v-4.162H43.224v-17.909H38.116Zm29.359.378c6.937,0,12.076-4.824,12.076-11.414S74.412-712,67.475-712c-6.968,0-12.076,4.856-12.076,11.414S60.507-689.172,67.475-689.172Zm0-4.351a6.733,6.733,0,0,1-6.905-7.063,6.733,6.733,0,0,1,6.905-7.063,6.733,6.733,0,0,1,6.905,7.063A6.733,6.733,0,0,1,67.475-693.523Zm34.94,3.973-8.229-11.414,7.693-10.657H96.362l-4.982,7.157L86.3-711.622H80.5l7.756,10.846-8.166,11.225h5.865l5.234-7.662,5.329,7.662Z" transform="translate(-1206 2504)"/><path class="b" d="M8642.761-3297.723l-4.5,6.79.762.5,3.435-5.171v5.8h-4.418v.913h9.747v-.913h-4.417v-5.674l3.434,5.044.761-.5Z" transform="translate(-9781.246 5095.901)"/></g></svg>